SplineFontDB: 3.2
FontName: Multivers-Semibold
FullName: Multivers SemiBold
FamilyName: Multivers
Weight: Semibold
Copyright: 
Version: 1.000
ItalicAngle: 0
UnderlinePosition: -199
UnderlineWidth: 38
Ascent: 800
Descent: 200
InvalidEm: 0
sfntRevision: 0x00010000
LayerCount: 2
Layer: 0 1 "Back" 1
Layer: 1 1 "Fore" 0
XUID: [1021 473 -325923738 4484261]
StyleMap: 0x0040
FSType: 0
OS2Version: 4
OS2_WeightWidthSlopeOnly: 0
OS2_UseTypoMetrics: 0
CreationTime: 1659194366
ModificationTime: 1733477904
PfmFamily: 81
TTFWeight: 600
TTFWidth: 5
LineGap: 0
VLineGap: 0
Panose: 0 0 0 0 0 0 0 0 0 0
OS2TypoAscent: 970
OS2TypoAOffset: 0
OS2TypoDescent: -250
OS2TypoDOffset: 0
OS2TypoLinegap: 0
OS2WinAscent: 986
OS2WinAOffset: 0
OS2WinDescent: 350
OS2WinDOffset: 0
HheadAscent: 970
HheadAOffset: 0
HheadDescent: -250
HheadDOffset: 0
OS2SubXSize: 650
OS2SubYSize: 600
OS2SubXOff: 0
OS2SubYOff: 75
OS2SupXSize: 650
OS2SupYSize: 600
OS2SupXOff: 0
OS2SupYOff: 350
OS2StrikeYSize: 38
OS2StrikeYPos: 301
OS2CapHeight: 720
OS2XHeight: 510
OS2Vendor: 'NONE'
OS2CodePages: 00000093.00000000
OS2UnicodeRanges: a000006f.0000006a.00000000.00000000
Lookup: 1 0 0 "'aalt' Access All Alternates in Latin lookup 0" { "'aalt' Access All Alternates in Latin lookup 0 subtable"  } ['aalt' ('DFLT' <'dflt' > 'latn' <'AZE ' 'CAT ' 'CRT ' 'KAZ ' 'MOL ' 'ROM ' 'TAT ' 'TRK ' 'dflt' > ) ]
Lookup: 3 0 0 "'aalt' Access All Alternates in Latin lookup 1" { "'aalt' Access All Alternates in Latin lookup 1 subtable"  } ['aalt' ('DFLT' <'dflt' > 'latn' <'AZE ' 'CAT ' 'CRT ' 'KAZ ' 'MOL ' 'ROM ' 'TAT ' 'TRK ' 'dflt' > ) ]
Lookup: 6 0 0 "'ccmp' Glyph Composition/Decomposition in Latin lookup 2" { "'ccmp' Glyph Composition/Decomposition in Latin lookup 2 subtable"  } ['ccmp' ('DFLT' <'dflt' > 'latn' <'AZE ' 'CAT ' 'CRT ' 'KAZ ' 'MOL ' 'ROM ' 'TAT ' 'TRK ' 'dflt' > ) ]
Lookup: 1 0 0 "Single Substitution lookup 3" { "Single Substitution lookup 3 subtable"  } []

StartChar: .notdef
Encoding: 65536 -1 0
Width: 652
Flags: W
LayerCount: 2
Fore
SplineSet
62 0 m 1,0,-1
 62 720 l 1,1,-1
 591 720 l 1,2,-1
 591 0 l 1,3,-1
 62 0 l 1,0,-1
191 102 m 1,4,-1
 462 102 l 1,5,-1
 462 618 l 1,6,-1
 191 618 l 1,7,-1
 191 102 l 1,4,-1
EndSplineSet
Validated: 1
EndChar

StartChar: A
Encoding: 65 65 1
Width: 712
GlyphClass: 2
Flags: W
AnchorPoint: "Anchor-3" 685 0 basechar 0
AnchorPoint: "Anchor-2" 356 0 basechar 0
AnchorPoint: "Anchor-0" 356 720 basechar 0
LayerCount: 2
Fore
SplineSet
27 0 m 1,0,-1
 282 720 l 1,1,-1
 392 720 l 1,2,-1
 154 0 l 1,3,-1
 27 0 l 1,0,-1
552 0 m 1,4,-1
 314 720 l 1,5,-1
 430 720 l 1,6,-1
 685 0 l 1,7,-1
 552 0 l 1,4,-1
160 282 m 1,8,-1
 543 282 l 1,9,-1
 543 179 l 1,10,-1
 160 179 l 1,11,-1
 160 282 l 1,8,-1
EndSplineSet
Validated: 5
Substitution2: "Single Substitution lookup 17 subtable" ordfeminine
Substitution2: "'aalt' Access All Alternates in Latin lookup 0 subtable" ordfeminine
EndChar

StartChar: AE
Encoding: 198 198 12
Width: 945
Flags: W
LayerCount: 2
Fore
SplineSet
27 0 m 1,0,-1
 282 720 l 1,1,-1
 394 720 l 1,2,-1
 154 0 l 1,3,-1
 27 0 l 1,0,-1
470 0 m 1,4,-1
 470 720 l 1,5,-1
 599 720 l 1,6,-1
 599 0 l 1,7,-1
 470 0 l 1,4,-1
532 0 m 1,8,-1
 532 102 l 1,9,-1
 895 102 l 1,10,-1
 895 0 l 1,11,-1
 532 0 l 1,8,-1
228 320 m 1,12,-1
 228 421 l 1,13,-1
 861 421 l 1,14,-1
 861 320 l 1,15,-1
 228 320 l 1,12,-1
324 618 m 1,16,-1
 324 720 l 1,17,-1
 885 720 l 1,18,-1
 885 618 l 1,19,-1
 324 618 l 1,16,-1
EndSplineSet
Validated: 5
EndChar

StartChar: B
Encoding: 66 66 13
Width: 629
Flags: W
LayerCount: 2
Fore
SplineSet
163 0 m 1,0,-1
 163 96 l 1,1,-1
 353 96 l 2,2,3
 407 96 407 96 436.5 126 c 128,-1,4
 466 156 466 156 466 209 c 0,5,6
 466 265 466 265 434.5 297.5 c 128,-1,7
 403 330 403 330 347 330 c 2,8,-1
 163 330 l 1,9,-1
 163 424 l 1,10,-1
 338 424 l 2,11,12
 391 424 391 424 419.5 450 c 128,-1,13
 448 476 448 476 448 526 c 0,14,15
 448 574 448 574 421 599 c 128,-1,16
 394 624 394 624 342 624 c 2,17,-1
 163 624 l 1,18,-1
 163 720 l 1,19,-1
 366 720 l 2,20,21
 462 720 462 720 519.5 671.5 c 128,-1,22
 577 623 577 623 577 540 c 0,23,24
 577 488 577 488 553 449.5 c 128,-1,25
 529 411 529 411 488.5 390 c 128,-1,26
 448 369 448 369 397 369 c 1,27,-1
 402 390 l 1,28,29
 456 390 456 390 500.5 365.5 c 128,-1,30
 545 341 545 341 571 297 c 128,-1,31
 597 253 597 253 597 195 c 0,32,33
 597 136 597 136 569.5 92 c 128,-1,34
 542 48 542 48 493 24 c 128,-1,35
 444 0 444 0 378 0 c 2,36,-1
 163 0 l 1,0,-1
62 0 m 1,37,-1
 62 720 l 1,38,-1
 191 720 l 1,39,-1
 191 0 l 1,40,-1
 62 0 l 1,37,-1
EndSplineSet
Validated: 5
EndChar

StartChar: C
Encoding: 67 67 14
Width: 726
GlyphClass: 2
Flags: W
AnchorPoint: "Anchor-2" 375 0 basechar 0
AnchorPoint: "Anchor-0" 375 720 basechar 0
LayerCount: 2
Fore
SplineSet
380 -10 m 0,0,1
 305 -10 305 -10 242 17 c 128,-1,2
 179 44 179 44 133 94 c 128,-1,3
 87 144 87 144 61.5 212 c 128,-1,4
 36 280 36 280 36 362 c 256,5,6
 36 444 36 444 61.5 511 c 128,-1,7
 87 578 87 578 132.5 627.5 c 128,-1,8
 178 677 178 677 241 703.5 c 128,-1,9
 304 730 304 730 379 730 c 0,10,11
 464 730 464 730 531 696 c 128,-1,12
 598 662 598 662 640.5 600 c 128,-1,13
 683 538 683 538 692 455 c 1,14,-1
 566 455 l 1,15,16
 554 537 554 537 504 581 c 128,-1,17
 454 625 454 625 380 625 c 0,18,19
 317 625 317 625 269 593.5 c 128,-1,20
 221 562 221 562 194 503.5 c 128,-1,21
 167 445 167 445 167 363 c 0,22,23
 167 280 167 280 194 220 c 128,-1,24
 221 160 221 160 269.5 127.5 c 128,-1,25
 318 95 318 95 381 95 c 0,26,27
 453 95 453 95 503.5 139 c 128,-1,28
 554 183 554 183 567 265 c 1,29,-1
 694 265 l 1,30,31
 683 181 683 181 640.5 119 c 128,-1,32
 598 57 598 57 531 23.5 c 128,-1,33
 464 -10 464 -10 380 -10 c 0,0,1
EndSplineSet
Validated: 1
EndChar

StartChar: D
Encoding: 68 68 19
Width: 735
GlyphClass: 2
Flags: W
AnchorPoint: "Anchor-2" 369 0 basechar 0
AnchorPoint: "Anchor-0" 369 720 basechar 0
LayerCount: 2
Fore
SplineSet
140 0 m 1,0,-1
 140 103 l 1,1,-1
 318 103 l 2,2,3
 397 103 397 103 453 136 c 128,-1,4
 509 169 509 169 538.5 227.5 c 128,-1,5
 568 286 568 286 568 364 c 0,6,7
 568 441 568 441 539 497.5 c 128,-1,8
 510 554 510 554 454 585.5 c 128,-1,9
 398 617 398 617 318 617 c 2,10,-1
 142 617 l 1,11,-1
 142 720 l 1,12,-1
 318 720 l 2,13,14
 434 720 434 720 519.5 676.5 c 128,-1,15
 605 633 605 633 652 552.5 c 128,-1,16
 699 472 699 472 699 362 c 256,17,18
 699 252 699 252 651.5 170.5 c 128,-1,19
 604 89 604 89 519 44.5 c 128,-1,20
 434 0 434 0 319 0 c 2,21,-1
 140 0 l 1,0,-1
62 0 m 1,22,-1
 62 720 l 1,23,-1
 191 720 l 1,24,-1
 191 0 l 1,25,-1
 62 0 l 1,22,-1
EndSplineSet
Validated: 5
EndChar

StartChar: Eth
Encoding: 208 208 20
Width: 745
GlyphClass: 2
Flags: W
AnchorPoint: "Anchor-2" 382 0 basechar 0
AnchorPoint: "Anchor-0" 382 720 basechar 0
LayerCount: 2
Fore
SplineSet
7 310 m 1,0,-1
 7 412 l 1,1,-1
 381 412 l 1,2,-1
 381 310 l 1,3,-1
 7 310 l 1,0,-1
152 0 m 1,4,-1
 152 103 l 1,5,-1
 331 103 l 2,6,7
 410 103 410 103 466 136 c 128,-1,8
 522 169 522 169 551 227.5 c 128,-1,9
 580 286 580 286 580 364 c 0,10,11
 580 441 580 441 551 497.5 c 128,-1,12
 522 554 522 554 466.5 585.5 c 128,-1,13
 411 617 411 617 331 617 c 2,14,-1
 155 617 l 1,15,-1
 155 720 l 1,16,-1
 331 720 l 2,17,18
 446 720 446 720 531.5 676.5 c 128,-1,19
 617 633 617 633 664 552.5 c 128,-1,20
 711 472 711 472 711 362 c 256,21,22
 711 252 711 252 663.5 170.5 c 128,-1,23
 616 89 616 89 531 44.5 c 128,-1,24
 446 0 446 0 332 0 c 2,25,-1
 152 0 l 1,4,-1
74 0 m 1,26,-1
 74 720 l 1,27,-1
 203 720 l 1,28,-1
 203 0 l 1,29,-1
 74 0 l 1,26,-1
EndSplineSet
Validated: 5
EndChar

StartChar: E
Encoding: 69 69 23
Width: 612
GlyphClass: 2
Flags: W
AnchorPoint: "Anchor-3" 526 0 basechar 0
AnchorPoint: "Anchor-2" 307 0 basechar 0
AnchorPoint: "Anchor-0" 317 720 basechar 0
LayerCount: 2
Fore
SplineSet
62 0 m 1,0,-1
 62 720 l 1,1,-1
 191 720 l 1,2,-1
 191 0 l 1,3,-1
 62 0 l 1,0,-1
124 0 m 1,4,-1
 124 102 l 1,5,-1
 563 102 l 1,6,-1
 563 0 l 1,7,-1
 124 0 l 1,4,-1
124 320 m 1,8,-1
 124 421 l 1,9,-1
 529 421 l 1,10,-1
 529 320 l 1,11,-1
 124 320 l 1,8,-1
124 618 m 1,12,-1
 124 720 l 1,13,-1
 553 720 l 1,14,-1
 553 618 l 1,15,-1
 124 618 l 1,12,-1
EndSplineSet
Validated: 5
EndChar

StartChar: F
Encoding: 70 70 32
Width: 577
Flags: W
LayerCount: 2
Fore
SplineSet
62 0 m 1,0,-1
 62 720 l 1,1,-1
 191 720 l 1,2,-1
 191 0 l 1,3,-1
 62 0 l 1,0,-1
124 290 m 1,4,-1
 124 391 l 1,5,-1
 513 391 l 1,6,-1
 513 290 l 1,7,-1
 124 290 l 1,4,-1
124 618 m 1,8,-1
 124 720 l 1,9,-1
 537 720 l 1,10,-1
 537 618 l 1,11,-1
 124 618 l 1,8,-1
EndSplineSet
Validated: 5
EndChar

StartChar: G
Encoding: 71 71 33
Width: 742
GlyphClass: 2
Flags: W
AnchorPoint: "Anchor-2" 381 0 basechar 0
AnchorPoint: "Anchor-0" 381 720 basechar 0
LayerCount: 2
Fore
SplineSet
396 -10 m 0,0,1
 284 -10 284 -10 203.5 35 c 128,-1,2
 123 80 123 80 79.5 162.5 c 128,-1,3
 36 245 36 245 36 357 c 0,4,5
 36 468 36 468 80 552 c 128,-1,6
 124 636 124 636 201.5 683 c 128,-1,7
 279 730 279 730 382 730 c 0,8,9
 466 730 466 730 532.5 698.5 c 128,-1,10
 599 667 599 667 640 612.5 c 128,-1,11
 681 558 681 558 689 485 c 1,12,-1
 560 485 l 1,13,14
 551 550 551 550 503.5 587.5 c 128,-1,15
 456 625 456 625 384 625 c 0,16,17
 318 625 318 625 269.5 593 c 128,-1,18
 221 561 221 561 194 502 c 128,-1,19
 167 443 167 443 167 360 c 0,20,21
 167 275 167 275 194.5 215.5 c 128,-1,22
 222 156 222 156 274.5 125 c 0,23,24
 322.060352832 96.9167440421 322.060352832 96.9167440421 403 94 c 4,25,26
 514 89 514 89 565 113.87109375 c 1,27,-1
 565 287 l 1,28,-1
 400 287 l 1,29,-1
 400 389 l 1,30,-1
 694 389 l 1,31,-1
 694 71 l 1,32,33
 628 21 628 21 539 2.5 c 0,34,35
 483.011385 -10 483.011385 -10 396 -10 c 0,0,1
EndSplineSet
Validated: 33
Substitution2: "'ss07' Style Set 7 in Latin lookup 28 subtable" G.ss07
Substitution2: "'aalt' Access All Alternates in Latin lookup 0 subtable" G.ss07
EndChar

StartChar: H
Encoding: 72 72 37
Width: 707
GlyphClass: 2
Flags: W
AnchorPoint: "Anchor-2" 354 0 basechar 0
AnchorPoint: "Anchor-0" 354 720 basechar 0
LayerCount: 2
Fore
SplineSet
62 0 m 1,0,-1
 62 720 l 1,1,-1
 191 720 l 1,2,-1
 191 0 l 1,3,-1
 62 0 l 1,0,-1
517 0 m 1,4,-1
 517 720 l 1,5,-1
 646 720 l 1,6,-1
 646 0 l 1,7,-1
 517 0 l 1,4,-1
124 426 m 1,8,-1
 575 426 l 1,9,-1
 575 324 l 1,10,-1
 124 324 l 1,11,-1
 124 426 l 1,8,-1
EndSplineSet
Validated: 5
EndChar

StartChar: Hbar
Encoding: 294 294 38
Width: 728
GlyphClass: 2
Flags: W
AnchorPoint: "Anchor-2" 364 0 basechar 0
AnchorPoint: "Anchor-0" 364 720 basechar 0
LayerCount: 2
Fore
SplineSet
7 529 m 1,0,-1
 7 631 l 1,1,-1
 721 631 l 1,2,-1
 721 529 l 1,3,-1
 7 529 l 1,0,-1
72 0 m 1,4,-1
 72 720 l 1,5,-1
 201 720 l 1,6,-1
 201 0 l 1,7,-1
 72 0 l 1,4,-1
527 0 m 1,8,-1
 527 720 l 1,9,-1
 656 720 l 1,10,-1
 656 0 l 1,11,-1
 527 0 l 1,8,-1
134 426 m 1,12,-1
 586 426 l 1,13,-1
 586 324 l 1,14,-1
 134 324 l 1,15,-1
 134 426 l 1,12,-1
EndSplineSet
Validated: 5
EndChar

StartChar: I
Encoding: 73 73 39
Width: 252
GlyphClass: 2
Flags: W
AnchorPoint: "Anchor-3" 172 0 basechar 0
AnchorPoint: "Anchor-2" 126 0 basechar 0
AnchorPoint: "Anchor-0" 126 720 basechar 0
LayerCount: 2
Fore
SplineSet
62 0 m 1,0,-1
 62 720 l 1,1,-1
 191 720 l 1,2,-1
 191 0 l 1,3,-1
 62 0 l 1,0,-1
EndSplineSet
Validated: 1
EndChar

StartChar: J
Encoding: 74 74 48
Width: 417
Flags: W
LayerCount: 2
Fore
SplineSet
133 -10 m 4,0,1
 78 -10 78 -10 13 -4 c 5,2,-1
 13 100 l 5,3,4
 63 93 63 93 118 93 c 128,-1,5
 173 93 173 93 201.5 115.5 c 128,-1,6
 230 138 230 138 230 190 c 2,7,-1
 230 720 l 1,8,-1
 359 720 l 1,9,-1
 359 184 l 2,10,11
 359 86 359 86 301 38 c 128,-1,12
 243 -10 243 -10 133 -10 c 4,0,1
EndSplineSet
Validated: 1
Substitution2: "'ss08' Style Set 8 in Latin lookup 29 subtable" J.ss08
Substitution2: "'aalt' Access All Alternates in Latin lookup 0 subtable" J.ss08
EndChar

StartChar: K
Encoding: 75 75 49
Width: 694
GlyphClass: 2
Flags: W
AnchorPoint: "Anchor-2" 352 0 basechar 0
AnchorPoint: "Anchor-0" 348 720 basechar 0
LayerCount: 2
Fore
SplineSet
62 0 m 1,0,-1
 62 720 l 1,1,-1
 191 720 l 1,2,-1
 191 0 l 1,3,-1
 62 0 l 1,0,-1
157 374 m 1,4,-1
 483 720 l 1,5,-1
 654 720 l 1,6,-1
 313 374 l 1,7,-1
 157 374 l 1,4,-1
499 0 m 1,8,-1
 155 374 l 1,9,-1
 313 374 l 1,10,-1
 674 0 l 1,11,-1
 499 0 l 1,8,-1
EndSplineSet
Validated: 5
Substitution2: "'ss04' Style Set 4 in Latin lookup 25 subtable" K.ss04
Substitution2: "'aalt' Access All Alternates in Latin lookup 0 subtable" K.ss04
EndChar

StartChar: L
Encoding: 76 76 51
Width: 572
GlyphClass: 2
Flags: W
AnchorPoint: "Anchor-2" 310 0 basechar 0
AnchorPoint: "Anchor-1" 361 720 basechar 0
AnchorPoint: "Anchor-0" 126 720 basechar 0
LayerCount: 2
Fore
SplineSet
62 0 m 1,0,-1
 62 720 l 1,1,-1
 191 720 l 1,2,-1
 191 0 l 1,3,-1
 62 0 l 1,0,-1
124 0 m 1,4,-1
 124 102 l 1,5,-1
 530 102 l 1,6,-1
 530 0 l 1,7,-1
 124 0 l 1,4,-1
EndSplineSet
Validated: 5
EndChar

StartChar: Lslash
Encoding: 321 321 55
Width: 577
GlyphClass: 2
Flags: W
AnchorPoint: "Anchor-2" 317 0 basechar 0
AnchorPoint: "Anchor-1" 368 720 basechar 0
AnchorPoint: "Anchor-0" 132 720 basechar 0
LayerCount: 2
Fore
SplineSet
150 331 m 1,0,-1
 0 270 l 1,1,-1
 0 363 l 1,2,-1
 149 424 l 1,3,-1
 150 331 l 1,0,-1
149 432 m 1,4,-1
 343 514 l 1,5,-1
 343 421 l 1,6,-1
 150 339 l 1,7,-1
 149 432 l 1,4,-1
68 0 m 1,8,-1
 68 720 l 1,9,-1
 197 720 l 1,10,-1
 197 0 l 1,11,-1
 68 0 l 1,8,-1
130 0 m 1,12,-1
 130 102 l 1,13,-1
 536 102 l 1,14,-1
 536 0 l 1,15,-1
 130 0 l 1,12,-1
EndSplineSet
Validated: 5
EndChar

StartChar: M
Encoding: 77 77 56
Width: 881
Flags: W
LayerCount: 2
Fore
SplineSet
62 0 m 1,0,-1
 62 720 l 1,1,-1
 261 720 l 1,2,-1
 476 27 l 1,3,-1
 405 27 l 1,4,-1
 619 720 l 1,5,-1
 819 720 l 1,6,-1
 819 0 l 1,7,-1
 692 0 l 1,8,-1
 692 672 l 1,9,-1
 713 672 l 1,10,-1
 505 0 l 1,11,-1
 370 0 l 1,12,-1
 163 667 l 1,13,-1
 183 667 l 1,14,-1
 183 0 l 1,15,-1
 62 0 l 1,0,-1
EndSplineSet
Validated: 5
Substitution2: "'ss06' Style Set 6 in Latin lookup 27 subtable" M.ss06
Substitution2: "'aalt' Access All Alternates in Latin lookup 0 subtable" M.ss06
EndChar

StartChar: N
Encoding: 78 78 57
Width: 708
GlyphClass: 2
Flags: W
AnchorPoint: "Anchor-2" 354 0 basechar 0
AnchorPoint: "Anchor-0" 354 720 basechar 0
LayerCount: 2
Fore
SplineSet
62 0 m 1,0,-1
 62 720 l 1,1,-1
 221 720 l 1,2,-1
 557 95 l 1,3,-1
 522 87 l 1,4,-1
 522 720 l 1,5,-1
 646 720 l 1,6,-1
 646 0 l 1,7,-1
 487 0 l 1,8,-1
 150 625 l 1,9,-1
 186 633 l 1,10,-1
 186 0 l 1,11,-1
 62 0 l 1,0,-1
EndSplineSet
Validated: 5
EndChar

StartChar: Eng
Encoding: 330 330 62
Width: 703
Flags: W
LayerCount: 2
Fore
SplineSet
59 0 m 1,0,-1
 59 720 l 1,1,-1
 218 720 l 1,2,-1
 589 107 l 1,3,-1
 519 118 l 1,4,-1
 519 720 l 1,5,-1
 644 720 l 1,6,-1
 644 0 l 1,7,-1
 520 0 l 1,8,-1
 148 617 l 1,9,-1
 184 625 l 1,10,-1
 184 0 l 1,11,-1
 59 0 l 1,0,-1
469 -215 m 0,12,13
 443 -215 443 -215 423.5 -212 c 128,-1,14
 404 -209 404 -209 391 -205 c 1,15,-1
 391 -103 l 1,16,17
 402 -106 402 -106 417 -109 c 128,-1,18
 432 -112 432 -112 449 -112 c 0,19,20
 486 -112 486 -112 501.5 -97 c 128,-1,21
 517 -82 517 -82 517 -50 c 2,22,-1
 517 41 l 1,23,-1
 644 41 l 1,24,-1
 644 -54 l 2,25,26
 644 -130 644 -130 602.5 -172.5 c 128,-1,27
 561 -215 561 -215 469 -215 c 0,12,13
EndSplineSet
Validated: 5
EndChar

StartChar: O
Encoding: 79 79 63
Width: 772
GlyphClass: 2
Flags: W
AnchorPoint: "Anchor-3" 532 20 basechar 0
AnchorPoint: "Anchor-2" 386 0 basechar 0
AnchorPoint: "Anchor-1" 752 720 basechar 0
AnchorPoint: "Anchor-0" 386 720 basechar 0
LayerCount: 2
Fore
SplineSet
386 -10 m 0,0,1
 309 -10 309 -10 245.5 17 c 128,-1,2
 182 44 182 44 135 93.5 c 128,-1,3
 88 143 88 143 62 211.5 c 128,-1,4
 36 280 36 280 36 363 c 0,5,6
 36 473 36 473 80.5 555.5 c 128,-1,7
 125 638 125 638 204 684 c 128,-1,8
 283 730 283 730 385 730 c 0,9,10
 488 730 488 730 567 684 c 128,-1,11
 646 638 646 638 690.5 555 c 128,-1,12
 735 472 735 472 735 362 c 0,13,14
 735 280 735 280 709 211.5 c 128,-1,15
 683 143 683 143 636.5 93.5 c 128,-1,16
 590 44 590 44 526 17 c 128,-1,17
 462 -10 462 -10 386 -10 c 0,0,1
385 95 m 256,18,19
 450 95 450 95 499 129 c 128,-1,20
 548 163 548 163 576 223.5 c 128,-1,21
 604 284 604 284 604 364 c 0,22,23
 604 443 604 443 576.5 502 c 128,-1,24
 549 561 549 561 500 593 c 128,-1,25
 451 625 451 625 385 625 c 256,26,27
 319 625 319 625 270 593 c 128,-1,28
 221 561 221 561 194 502.5 c 128,-1,29
 167 444 167 444 167 364 c 0,30,31
 167 283 167 283 194.5 222.5 c 128,-1,32
 222 162 222 162 271 128.5 c 128,-1,33
 320 95 320 95 385 95 c 256,18,19
EndSplineSet
Validated: 1
Substitution2: "Single Substitution lookup 17 subtable" ordmasculine
Substitution2: "'aalt' Access All Alternates in Latin lookup 0 subtable" ordmasculine
EndChar

StartChar: Oslash
Encoding: 216 216 70
Width: 772
GlyphClass: 2
Flags: W
AnchorPoint: "Anchor-3" 532 20 basechar 0
AnchorPoint: "Anchor-2" 386 0 basechar 0
AnchorPoint: "Anchor-1" 752 720 basechar 0
AnchorPoint: "Anchor-0" 386 720 basechar 0
LayerCount: 2
Fore
SplineSet
115 -10 m 1,0,-1
 46 51 l 1,1,-1
 649 730 l 1,2,-1
 718 669 l 1,3,-1
 115 -10 l 1,0,-1
386 -10 m 0,4,5
 309 -10 309 -10 245.5 17 c 128,-1,6
 182 44 182 44 135 93.5 c 128,-1,7
 88 143 88 143 62 211.5 c 128,-1,8
 36 280 36 280 36 363 c 0,9,10
 36 473 36 473 80.5 555.5 c 128,-1,11
 125 638 125 638 204 684 c 128,-1,12
 283 730 283 730 385 730 c 0,13,14
 488 730 488 730 567 684 c 128,-1,15
 646 638 646 638 690.5 555 c 128,-1,16
 735 472 735 472 735 362 c 0,17,18
 735 280 735 280 709 211.5 c 128,-1,19
 683 143 683 143 636.5 93.5 c 128,-1,20
 590 44 590 44 526 17 c 128,-1,21
 462 -10 462 -10 386 -10 c 0,4,5
385 95 m 256,22,23
 450 95 450 95 499 129 c 128,-1,24
 548 163 548 163 576 223.5 c 128,-1,25
 604 284 604 284 604 364 c 0,26,27
 604 443 604 443 576.5 502 c 128,-1,28
 549 561 549 561 500 593 c 128,-1,29
 451 625 451 625 385 625 c 256,30,31
 319 625 319 625 270 593 c 128,-1,32
 221 561 221 561 194 502.5 c 128,-1,33
 167 444 167 444 167 364 c 0,34,35
 167 283 167 283 194.5 222.5 c 128,-1,36
 222 162 222 162 271 128.5 c 128,-1,37
 320 95 320 95 385 95 c 256,22,23
EndSplineSet
Validated: 5
EndChar

StartChar: OE
Encoding: 338 338 72
Width: 1049
Flags: W
LayerCount: 2
Fore
SplineSet
415 -10 m 0,0,1
 301 -10 301 -10 216 36.5 c 128,-1,2
 131 83 131 83 83.5 166.5 c 128,-1,3
 36 250 36 250 36 361 c 256,4,5
 36 472 36 472 83.5 555 c 128,-1,6
 131 638 131 638 216 684 c 128,-1,7
 301 730 301 730 415 730 c 0,8,9
 459 730 459 730 494 726 c 128,-1,10
 529 722 529 722 559 715 c 1,11,-1
 555 603 l 1,12,13
 528 614 528 614 493.5 619.5 c 128,-1,14
 459 625 459 625 415 625 c 0,15,16
 334 625 334 625 278.5 593 c 128,-1,17
 223 561 223 561 195 501.5 c 128,-1,18
 167 442 167 442 167 361 c 0,19,20
 167 279 167 279 195 219 c 128,-1,21
 223 159 223 159 278.5 127 c 128,-1,22
 334 95 334 95 415 95 c 0,23,24
 459 95 459 95 493.5 100.5 c 128,-1,25
 528 106 528 106 555 117 c 1,26,-1
 559 5 l 1,27,28
 529 -2 529 -2 494 -6 c 128,-1,29
 459 -10 459 -10 415 -10 c 0,0,1
529 0 m 1,30,-1
 529 720 l 1,31,-1
 989 720 l 1,32,-1
 989 618 l 1,33,-1
 658 618 l 1,34,-1
 658 421 l 1,35,-1
 965 421 l 1,36,-1
 965 320 l 1,37,-1
 658 320 l 1,38,-1
 658 102 l 1,39,-1
 999 102 l 1,40,-1
 999 0 l 1,41,-1
 529 0 l 1,30,-1
EndSplineSet
Validated: 5
EndChar

StartChar: P
Encoding: 80 80 73
Width: 649
Flags: W
LayerCount: 2
Fore
SplineSet
62 0 m 1,0,-1
 62 720 l 1,1,-1
 372 720 l 2,2,3
 450 720 450 720 505.5 693 c 128,-1,4
 561 666 561 666 591 617 c 128,-1,5
 621 568 621 568 621 501 c 256,6,7
 621 434 621 434 590.5 384.5 c 128,-1,8
 560 335 560 335 504.5 307.5 c 128,-1,9
 449 280 449 280 372 280 c 2,10,-1
 162 280 l 1,11,-1
 162 382 l 1,12,-1
 366 382 l 2,13,14
 427 382 427 382 459.5 413.5 c 128,-1,15
 492 445 492 445 492 501 c 0,16,17
 492 556 492 556 459.5 587 c 128,-1,18
 427 618 427 618 366 618 c 2,19,-1
 191 618 l 1,20,-1
 191 0 l 1,21,-1
 62 0 l 1,0,-1
EndSplineSet
Validated: 5
EndChar

StartChar: Thorn
Encoding: 222 222 74
Width: 647
Flags: W
LayerCount: 2
Fore
SplineSet
159 154 m 1,0,-1
 159 256 l 1,1,-1
 361 256 l 2,2,3
 422 256 422 256 456 287 c 128,-1,4
 490 318 490 318 490 370 c 256,5,6
 490 422 490 422 456 453 c 128,-1,7
 422 484 422 484 361 484 c 2,8,-1
 159 484 l 1,9,-1
 159 586 l 1,10,-1
 369 586 l 2,11,12
 446 586 446 586 501.5 559 c 128,-1,13
 557 532 557 532 588 483.5 c 128,-1,14
 619 435 619 435 619 370 c 0,15,16
 619 306 619 306 588 257 c 128,-1,17
 557 208 557 208 501.5 181 c 128,-1,18
 446 154 446 154 369 154 c 2,19,-1
 159 154 l 1,0,-1
59 0 m 1,20,-1
 59 720 l 1,21,-1
 188 720 l 1,22,-1
 188 0 l 1,23,-1
 59 0 l 1,20,-1
EndSplineSet
Validated: 5
EndChar

StartChar: Q
Encoding: 81 81 75
Width: 783
Flags: W
LayerCount: 2
Fore
SplineSet
392 -10 m 1,0,1
 286 -10 286 -10 205.5 37 c 128,-1,2
 125 84 125 84 80.5 168 c 128,-1,3
 36 252 36 252 36 363 c 0,4,5
 36 473 36 473 80.5 555.5 c 128,-1,6
 125 638 125 638 204 684 c 128,-1,7
 283 730 283 730 385 730 c 0,8,9
 488 730 488 730 567 684 c 128,-1,10
 646 638 646 638 690.5 555 c 128,-1,11
 735 472 735 472 735 362 c 0,12,13
 735 288 735 288 712 224 c 128,-1,14
 689 160 689 160 640 114.5 c 128,-1,15
 591 69 591 69 514 49 c 1,16,-1
 392 -10 l 1,0,1
385 90 m 256,17,18
 450 90 450 90 499.5 123.5 c 128,-1,19
 549 157 549 157 576.5 219 c 128,-1,20
 604 281 604 281 604 364 c 0,21,22
 604 443 604 443 576.5 502 c 128,-1,23
 549 561 549 561 500 593 c 128,-1,24
 451 625 451 625 385 625 c 256,25,26
 319 625 319 625 270 593 c 128,-1,27
 221 561 221 561 194 502.5 c 128,-1,28
 167 444 167 444 167 364 c 0,29,30
 167 280 167 280 194.5 218.5 c 128,-1,31
 222 157 222 157 271 123.5 c 128,-1,32
 320 90 320 90 385 90 c 256,17,18
392 -10 m 1,33,-1
 390 52 l 5,34,-1
 768 102 l 1,35,-1
 768 0 l 1,36,37
 707 0 707 0 661 -1.5 c 128,-1,38
 615 -3 615 -3 574.5 -5 c 128,-1,39
 534 -7 534 -7 490.5 -8.5 c 128,-1,40
 447 -10 447 -10 392 -10 c 1,33,-1
EndSplineSet
Validated: 5
Substitution2: "'ss09' Style Set 9 in Latin lookup 30 subtable" Q.ss09
Substitution2: "'aalt' Access All Alternates in Latin lookup 0 subtable" Q.ss09
EndChar

StartChar: R
Encoding: 65537 -1 76
Width: 647
GlyphClass: 2
Flags: W
AnchorPoint: "Anchor-2" 323 0 basechar 0
AnchorPoint: "Anchor-0" 323 720 basechar 0
LayerCount: 2
Fore
SplineSet
59 0 m 1,0,-1
 59 720 l 1,1,-1
 351 720 l 2,2,3
 427 720 427 720 483 694 c 128,-1,4
 539 668 539 668 569 621 c 128,-1,5
 599 574 599 574 599 511 c 0,6,7
 599 449 599 449 569 402.5 c 128,-1,8
 539 356 539 356 483 329.5 c 128,-1,9
 427 303 427 303 351 303 c 2,10,-1
 159 303 l 1,11,-1
 159 402 l 1,12,-1
 347 402 l 2,13,14
 409 402 409 402 441.5 431 c 128,-1,15
 474 460 474 460 474 511 c 256,16,17
 474 562 474 562 442 590 c 128,-1,18
 410 618 410 618 347 618 c 2,19,-1
 188 618 l 1,20,-1
 188 0 l 1,21,-1
 59 0 l 1,0,-1
458 0 m 1,22,-1
 150 369 l 1,23,-1
 294 369 l 1,24,-1
 634 0 l 1,25,-1
 458 0 l 1,22,-1
EndSplineSet
Validated: 5
Substitution2: "'calt' Contextual Alternates in Latin lookup 26 subtable" R.ss05
Substitution2: "'aalt' Access All Alternates in Latin lookup 0 subtable" R.ss05
EndChar

StartChar: S
Encoding: 83 83 80
Width: 621
GlyphClass: 2
Flags: W
AnchorPoint: "Anchor-2" 326 0 basechar 0
AnchorPoint: "Anchor-0" 320 720 basechar 0
LayerCount: 2
Fore
SplineSet
331 -9 m 0,0,1
 199 -9 199 -9 120.5 53.5 c 128,-1,2
 42 116 42 116 30 230 c 1,3,-1
 154 230 l 1,4,5
 162 163 162 163 209.5 126.5 c 128,-1,6
 257 90 257 90 336 90 c 0,7,8
 400 90 400 90 434 114.5 c 128,-1,9
 468 139 468 139 468 182 c 0,10,11
 468 221 468 221 446.5 245.5 c 128,-1,12
 425 270 425 270 374 286 c 2,13,-1
 249 327 l 2,14,15
 153 358 153 358 108.5 407 c 128,-1,16
 64 456 64 456 64 529 c 0,17,18
 64 591 64 591 95 636.5 c 128,-1,19
 126 682 126 682 183 706.5 c 128,-1,20
 240 731 240 731 316 731 c 0,21,22
 433 731 433 731 503 672.5 c 128,-1,23
 573 614 573 614 582 514 c 1,24,-1
 458 514 l 1,25,26
 448 575 448 575 410.5 603 c 128,-1,27
 373 631 373 631 310 631 c 0,28,29
 253 631 253 631 220.5 608.5 c 128,-1,30
 188 586 188 586 188 546 c 0,31,32
 188 514 188 514 208.5 490 c 128,-1,33
 229 466 229 466 283 449 c 2,34,-1
 411 407 l 2,35,36
 506 377 506 377 549.5 326.5 c 128,-1,37
 593 276 593 276 593 201 c 0,38,39
 593 100 593 100 524 45.5 c 128,-1,40
 455 -9 455 -9 331 -9 c 0,0,1
EndSplineSet
Validated: 1
EndChar

StartChar: uni1E9E
Encoding: 7838 7838 85
Width: 698
Flags: W
LayerCount: 2
Fore
SplineSet
404 -9 m 0,0,1
 369 -9 369 -9 336 -4.5 c 128,-1,2
 303 0 303 0 275 9 c 1,3,-1
 275 116 l 1,4,5
 301 105 301 105 330 99.5 c 128,-1,6
 359 94 359 94 393 94 c 0,7,8
 467 94 467 94 503 121 c 128,-1,9
 539 148 539 148 539 204 c 0,10,11
 539 258 539 258 499.5 293.5 c 128,-1,12
 460 329 460 329 368 357 c 2,13,-1
 330 368 l 1,14,-1
 532 636 l 1,15,-1
 520 568 l 1,16,17
 493 598 493 598 454.5 613 c 128,-1,18
 416 628 416 628 367 628 c 0,19,20
 281 628 281 628 236 581 c 128,-1,21
 191 534 191 534 191 442 c 2,22,-1
 191 0 l 1,23,-1
 62 0 l 1,24,-1
 62 432 l 2,25,26
 62 578 62 578 142 654.5 c 128,-1,27
 222 731 222 731 374 731 c 0,28,29
 462 731 462 731 532.5 704.5 c 128,-1,30
 603 678 603 678 662 622 c 1,31,-1
 473 377 l 1,32,-1
 425 442 l 1,33,34
 551 401 551 401 610 341 c 128,-1,35
 669 281 669 281 669 194 c 0,36,37
 669 131 669 131 637.5 85.5 c 128,-1,38
 606 40 606 40 546.5 15.5 c 128,-1,39
 487 -9 487 -9 404 -9 c 0,0,1
EndSplineSet
Validated: 5
EndChar

StartChar: T
Encoding: 84 84 86
Width: 644
GlyphClass: 2
Flags: W
AnchorPoint: "Anchor-2" 322 0 basechar 0
AnchorPoint: "Anchor-0" 322 720 basechar 0
LayerCount: 2
Fore
SplineSet
258 0 m 1,0,-1
 258 618 l 1,1,-1
 27 618 l 1,2,-1
 27 720 l 1,3,-1
 617 720 l 1,4,-1
 617 618 l 1,5,-1
 387 618 l 1,6,-1
 387 0 l 1,7,-1
 258 0 l 1,0,-1
EndSplineSet
Validated: 1
EndChar

StartChar: U
Encoding: 85 85 89
Width: 686
GlyphClass: 2
Flags: W
AnchorPoint: "Anchor-3" 489 20 basechar 0
AnchorPoint: "Anchor-2" 343 0 basechar 0
AnchorPoint: "Anchor-1" 670 720 basechar 0
AnchorPoint: "Anchor-0" 343 720 basechar 0
LayerCount: 2
Fore
SplineSet
342 -10 m 0,0,1
 200 -10 200 -10 127 70.5 c 128,-1,2
 54 151 54 151 54 302 c 2,3,-1
 54 720 l 1,4,-1
 183 720 l 1,5,-1
 183 282 l 2,6,7
 183 188 183 188 225 141.5 c 128,-1,8
 267 95 267 95 343 95 c 256,9,10
 419 95 419 95 461 141.5 c 128,-1,11
 503 188 503 188 503 282 c 2,12,-1
 503 720 l 1,13,-1
 632 720 l 1,14,-1
 632 301 l 2,15,16
 632 151 632 151 558.5 70.5 c 128,-1,17
 485 -10 485 -10 342 -10 c 0,0,1
EndSplineSet
Validated: 1
EndChar

StartChar: V
Encoding: 86 86 99
Width: 712
Flags: W
LayerCount: 2
Fore
SplineSet
282 0 m 1,0,-1
 27 720 l 1,1,-1
 162 720 l 1,2,-1
 370 91 l 1,3,-1
 349 91 l 1,4,-1
 557 720 l 1,5,-1
 685 720 l 1,6,-1
 430 0 l 1,7,-1
 282 0 l 1,0,-1
EndSplineSet
Validated: 5
EndChar

StartChar: W
Encoding: 87 87 100
Width: 1051
GlyphClass: 2
Flags: W
AnchorPoint: "Anchor-2" 526 0 basechar 0
AnchorPoint: "Anchor-0" 526 720 basechar 0
LayerCount: 2
Fore
SplineSet
235 0 m 1,0,-1
 38 720 l 1,1,-1
 169 720 l 1,2,-1
 335 58 l 1,3,-1
 299 58 l 1,4,-1
 455 720 l 1,5,-1
 603 720 l 1,6,-1
 757 58 l 1,7,-1
 722 58 l 1,8,-1
 889 720 l 1,9,-1
 1013 720 l 1,10,-1
 816 0 l 1,11,-1
 669 0 l 1,12,-1
 512 647 l 1,13,-1
 541 647 l 1,14,-1
 383 0 l 1,15,-1
 235 0 l 1,0,-1
EndSplineSet
Validated: 5
EndChar

StartChar: X
Encoding: 88 88 105
Width: 686
Flags: W
LayerCount: 2
Fore
SplineSet
511 0 m 1,0,-1
 307 323 l 1,1,-1
 42 720 l 1,2,-1
 192 720 l 1,3,-1
 384 416 l 1,4,-1
 661 0 l 1,5,-1
 511 0 l 1,0,-1
326 417 m 1,6,-1
 524 720 l 1,7,-1
 661 720 l 1,8,-1
 374 307 l 1,9,-1
 326 417 l 1,6,-1
359 303 m 1,10,-1
 161 0 l 1,11,-1
 25 0 l 1,12,-1
 311 413 l 1,13,-1
 359 303 l 1,10,-1
EndSplineSet
Validated: 5
EndChar

StartChar: Y
Encoding: 89 89 106
Width: 682
GlyphClass: 2
Flags: W
AnchorPoint: "Anchor-2" 341 0 basechar 0
AnchorPoint: "Anchor-0" 341 720 basechar 0
LayerCount: 2
Fore
SplineSet
277 0 m 1,0,-1
 277 304 l 1,1,-1
 15 720 l 1,2,-1
 169 720 l 1,3,-1
 383 351 l 1,4,-1
 314 351 l 1,5,-1
 527 720 l 1,6,-1
 668 720 l 1,7,-1
 406 304 l 1,8,-1
 406 0 l 1,9,-1
 277 0 l 1,0,-1
EndSplineSet
Validated: 5
EndChar

StartChar: Z
Encoding: 90 90 111
Width: 616
GlyphClass: 2
Flags: W
AnchorPoint: "Anchor-2" 309 0 basechar 0
AnchorPoint: "Anchor-0" 309 720 basechar 0
LayerCount: 2
Fore
SplineSet
47 0 m 1,0,-1
 47 90 l 1,1,-1
 438 667 l 1,2,-1
 472 618 l 1,3,-1
 59 618 l 1,4,-1
 59 720 l 1,5,-1
 568 720 l 1,6,-1
 568 632 l 1,7,-1
 180 57 l 1,8,-1
 148 102 l 1,9,-1
 574 102 l 1,10,-1
 574 0 l 1,11,-1
 47 0 l 1,0,-1
EndSplineSet
Validated: 5
EndChar

StartChar: K.ss04
Encoding: 65559 -1 133
Width: 694
GlyphClass: 2
Flags: W
AnchorPoint: "Anchor-2" 352 0 basechar 0
AnchorPoint: "Anchor-0" 348 720 basechar 0
LayerCount: 2
Fore
SplineSet
62 0 m 1,0,-1
 62 720 l 1,1,-1
 191 720 l 1,2,-1
 191 0 l 1,3,-1
 62 0 l 1,0,-1
135 298 m 1,4,-1
 493 720 l 1,5,-1
 655 720 l 1,6,-1
 341 358 l 1,7,-1
 319 350 l 1,8,-1
 150 155 l 1,9,-1
 135 298 l 1,4,-1
516 0 m 1,10,-1
 248 404 l 1,11,-1
 368 442 l 1,12,-1
 674 0 l 1,13,-1
 516 0 l 1,10,-1
EndSplineSet
Validated: 5
EndChar

StartChar: R.ss05
Encoding: 82 82 135
Width: 640
GlyphClass: 2
Flags: W
AnchorPoint: "Anchor-2" 327 0 basechar 0
AnchorPoint: "Anchor-0" 321 720 basechar 0
LayerCount: 2
Fore
SplineSet
62 0 m 1,0,-1
 62 720 l 1,1,-1
 361 720 l 2,2,3
 436 720 436 720 490 696 c 128,-1,4
 544 672 544 672 573 627.5 c 128,-1,5
 602 583 602 583 602 522 c 0,6,7
 602 447 602 447 555.5 401.5 c 128,-1,8
 509 356 509 356 414 335 c 1,9,-1
 417 363 l 1,10,11
 481 368 481 368 527.292765679 331.194302176 c 0,12,13
 579 291 579 291 587.767578125 183.432617188 c 0,14,15
 599 41 599 41 618 0 c 1,16,-1
 472 0 l 1,17,18
 467 29 467 29 465 94 c 0,19,20
 460 304 460 304 336 304 c 2,21,-1
 124 304 l 1,22,-1
 124 402 l 1,23,-1
 346 402 l 2,24,25
 407 402 407 402 440 431 c 128,-1,26
 473 460 473 460 473 511 c 0,27,28
 473 563 473 563 440.5 590.5 c 128,-1,29
 408 618 408 618 346 618 c 2,30,-1
 191 618 l 1,31,-1
 191 0 l 1,32,-1
 62 0 l 1,0,-1
EndSplineSet
EndChar

StartChar: M.ss06
Encoding: 65561 -1 139
Width: 860
Flags: W
LayerCount: 2
Fore
SplineSet
42 0 m 1,0,-1
 114 720 l 1,1,-1
 279 720 l 1,2,-1
 460 15 l 1,3,-1
 399 15 l 1,4,-1
 579 720 l 1,5,-1
 745 720 l 1,6,-1
 818 0 l 1,7,-1
 691 0 l 1,8,-1
 623 686 l 1,9,-1
 668 686 l 1,10,-1
 497 0 l 1,11,-1
 356 0 l 1,12,-1
 187 680 l 1,13,-1
 230 680 l 1,14,-1
 163 0 l 1,15,-1
 42 0 l 1,0,-1
EndSplineSet
Validated: 5
EndChar

StartChar: G.ss07
Encoding: 65562 -1 140
Width: 750
GlyphClass: 2
Flags: W
AnchorPoint: "Anchor-2" 381 0 basechar 0
AnchorPoint: "Anchor-0" 381 720 basechar 0
LayerCount: 2
Fore
SplineSet
388 -10 m 0,0,1
 284 -10 284 -10 204.5 37 c 128,-1,2
 125 84 125 84 80.5 168 c 128,-1,3
 36 252 36 252 36 360 c 0,4,5
 36 469 36 469 81 552 c 128,-1,6
 126 635 126 635 205.5 682.5 c 128,-1,7
 285 730 285 730 389 730 c 0,8,9
 474 730 474 730 540.5 698 c 128,-1,10
 607 666 607 666 649.5 611 c 128,-1,11
 692 556 692 556 702 485 c 1,12,-1
 575 485 l 1,13,14
 568 526 568 526 543 557.5 c 128,-1,15
 518 589 518 589 479.5 607 c 128,-1,16
 441 625 441 625 390 625 c 0,17,18
 322 625 322 625 272 593 c 128,-1,19
 222 561 222 561 194.5 501.5 c 128,-1,20
 167 442 167 442 167 360 c 0,21,22
 167 280 167 280 194 220 c 128,-1,23
 221 160 221 160 271.5 127.5 c 128,-1,24
 322 95 322 95 391 95 c 0,25,26
 452 95 452 95 497.5 121.5 c 128,-1,27
 543 148 543 148 568 201 c 128,-1,28
 593 254 593 254 593 333 c 1,29,-1
 713 333 l 1,30,31
 713 224 713 224 672 147 c 128,-1,32
 631 70 631 70 558 30 c 128,-1,33
 485 -10 485 -10 388 -10 c 0,0,1
622 282 m 1,34,-1
 402 282 l 1,35,-1
 402 384 l 1,36,-1
 713 384 l 1,37,-1
 713 333 l 1,38,-1
 622 282 l 1,34,-1
EndSplineSet
Validated: 5
EndChar

StartChar: J.ss08
Encoding: 65566 -1 144
Width: 619
Flags: W
LayerCount: 2
Fore
SplineSet
301 -10 m 0,0,1
 218 -10 218 -10 160 24 c 128,-1,2
 102 58 102 58 71.5 116 c 128,-1,3
 41 174 41 174 41 247 c 1,4,-1
 167 247 l 1,5,6
 167 175 167 175 205.5 135 c 128,-1,7
 244 95 244 95 301 95 c 0,8,9
 339 95 339 95 369.5 111 c 128,-1,10
 400 127 400 127 417.5 162.5 c 128,-1,11
 435 198 435 198 435 257 c 2,12,-1
 435 720 l 1,13,-1
 564 720 l 1,14,-1
 564 274 l 2,15,16
 564 181 564 181 533.5 118 c 128,-1,17
 503 55 503 55 444.5 22.5 c 128,-1,18
 386 -10 386 -10 301 -10 c 0,0,1
EndSplineSet
Validated: 1
EndChar

StartChar: Q.ss09
Encoding: 65567 -1 145
Width: 772
Flags: W
LayerCount: 2
Fore
SplineSet
386 -10 m 0,0,1
 309 -10 309 -10 245.5 17 c 128,-1,2
 182 44 182 44 135 93.5 c 128,-1,3
 88 143 88 143 62 211.5 c 128,-1,4
 36 280 36 280 36 363 c 0,5,6
 36 473 36 473 80.5 555.5 c 128,-1,7
 125 638 125 638 204 684 c 128,-1,8
 283 730 283 730 385 730 c 0,9,10
 488 730 488 730 567 684 c 128,-1,11
 646 638 646 638 690.5 555 c 128,-1,12
 735 472 735 472 735 362 c 0,13,14
 735 280 735 280 709 211.5 c 128,-1,15
 683 143 683 143 636.5 93.5 c 128,-1,16
 590 44 590 44 526 17 c 128,-1,17
 462 -10 462 -10 386 -10 c 0,0,1
385 95 m 0,18,19
 433 95 433 95 473.5 113.5 c 128,-1,20
 514 132 514 132 543.5 167.5 c 128,-1,21
 573 203 573 203 588.5 252.5 c 128,-1,22
 604 302 604 302 604 364 c 0,23,24
 604 443 604 443 576.5 502 c 128,-1,25
 549 561 549 561 500 593 c 128,-1,26
 451 625 451 625 385 625 c 256,27,28
 319 625 319 625 270 593 c 128,-1,29
 221 561 221 561 194 502.5 c 128,-1,30
 167 444 167 444 167 364 c 0,31,32
 167 283 167 283 194.5 222.5 c 128,-1,33
 222 162 222 162 271 128.5 c 128,-1,34
 320 95 320 95 385 95 c 0,18,19
361 241 m 1,35,-1
 450 292 l 1,36,-1
 671 -92 l 1,37,-1
 582 -143 l 1,38,-1
 361 241 l 1,35,-1
EndSplineSet
Validated: 5
EndChar

StartChar: a
Encoding: 97 97 150
Width: 546
GlyphClass: 2
Flags: W
AnchorPoint: "Anchor-3" 500 0 basechar 0
AnchorPoint: "Anchor-2" 278 0 basechar 0
AnchorPoint: "Anchor-0" 282 510 basechar 0
LayerCount: 2
Fore
SplineSet
375 0 m 1,0,1
 370 20 370 20 367.5 44 c 128,-1,2
 365 68 365 68 365 100 c 1,3,-1
 361 100 l 1,4,-1
 361 346 l 2,5,6
 361 385 361 385 341.5 405.5 c 128,-1,7
 322 426 322 426 277 426 c 0,8,9
 241 426 241 426 212.5 409 c 0,10,11
 188 395 188 395 183 361 c 1,12,-1
 63 361 l 1,13,14
 71 432 71 432 130 476 c 128,-1,15
 189 520 189 520 282 520 c 0,16,17
 384 520 384 520 435 473 c 128,-1,18
 486 426 486 426 486 336 c 2,19,-1
 486 100 l 2,20,21
 486 77 486 77 489 52 c 128,-1,22
 492 27 492 27 499 0 c 1,23,-1
 375 0 l 1,0,1
203 -10 m 0,24,25
 128 -10 128 -10 84 28 c 128,-1,26
 40 66 40 66 40 131 c 0,27,28
 40 199 40 199 88.5 240 c 0,29,30
 143.257439773 287.222012282 143.257439773 287.222012282 228 297 c 2,31,-1
 384 315 l 5,32,-1
 384 234 l 5,33,-1
 252 221 l 2,34,35
 214 217 214 217 186 195 c 0,36,37
 164 177 164 177 164 145 c 0,38,39
 164 116 164 116 184.5 100.5 c 128,-1,40
 205 85 205 85 241 85 c 0,41,42
 292 85 292 85 326.5 111.5 c 128,-1,43
 361 138 361 138 361 176 c 1,44,-1
 374 100 l 1,45,46
 355 46 355 46 310.5 18 c 128,-1,47
 266 -10 266 -10 203 -10 c 0,24,25
EndSplineSet
Validated: 5
Substitution2: "'ss02' Style Set 2 in Latin lookup 23 subtable" a.ss02
Substitution2: "Single Substitution lookup 17 subtable" ordfeminine
AlternateSubs2: "'aalt' Access All Alternates in Latin lookup 1 subtable" a.ss02 ordfeminine
EndChar

StartChar: ae
Encoding: 230 230 161
Width: 860
Flags: W
LayerCount: 2
Fore
SplineSet
358 139 m 1,0,-1
 358 346 l 2,1,2
 358 385 358 385 335.5 405.5 c 128,-1,3
 313 426 313 426 271 426 c 0,4,5
 232 426 232 426 205.5 409 c 128,-1,6
 179 392 179 392 174 361 c 1,7,-1
 54 361 l 1,8,9
 62 432 62 432 118 476 c 128,-1,10
 174 520 174 520 271 520 c 0,11,12
 371 520 371 520 423 473 c 128,-1,13
 475 426 475 426 475 336 c 2,14,-1
 475 139 l 1,15,-1
 358 139 l 1,0,-1
209 -10 m 0,16,17
 133 -10 133 -10 86.5 28.5 c 128,-1,18
 40 67 40 67 40 133 c 0,19,20
 40 194 40 194 83.5 235.5 c 128,-1,21
 127 277 127 277 225 293 c 2,22,-1
 370 317 l 1,23,-1
 370 237 l 1,24,-1
 254 217 l 2,25,26
 206 209 206 209 185 190.5 c 128,-1,27
 164 172 164 172 164 143 c 0,28,29
 164 116 164 116 184 100.5 c 128,-1,30
 204 85 204 85 243 85 c 0,31,32
 271 85 271 85 297.5 97.5 c 128,-1,33
 324 110 324 110 341 131 c 128,-1,34
 358 152 358 152 358 177 c 1,35,-1
 431 140 l 1,36,37
 398 56 398 56 342 23 c 128,-1,38
 286 -10 286 -10 209 -10 c 0,16,17
602 -10 m 0,39,40
 527 -10 527 -10 472.5 24 c 128,-1,41
 418 58 418 58 389 117.5 c 128,-1,42
 360 177 360 177 360 256 c 256,43,44
 360 335 360 335 389.5 394.5 c 128,-1,45
 419 454 419 454 473.5 487 c 128,-1,46
 528 520 528 520 600 520 c 0,47,48
 671 520 671 520 723 488.5 c 128,-1,49
 775 457 775 457 804 400.5 c 128,-1,50
 833 344 833 344 833 267 c 0,51,52
 833 253 833 253 832.5 241 c 128,-1,53
 832 229 832 229 830 218 c 1,54,-1
 428 218 l 1,55,-1
 428 305 l 1,56,-1
 741 305 l 1,57,-1
 717 280 l 1,58,59
 717 353 717 353 687.5 389.5 c 128,-1,60
 658 426 658 426 604 426 c 0,61,62
 565 426 565 426 536 407.5 c 128,-1,63
 507 389 507 389 491 351 c 128,-1,64
 475 313 475 313 475 254 c 0,65,66
 475 171 475 171 508.5 127.5 c 128,-1,67
 542 84 542 84 603 84 c 0,68,69
 641 84 641 84 664.5 99.5 c 128,-1,70
 688 115 688 115 701 148 c 1,71,-1
 820 148 l 1,72,73
 796 75 796 75 740 32.5 c 128,-1,74
 684 -10 684 -10 602 -10 c 0,39,40
EndSplineSet
Validated: 5
EndChar

StartChar: b
Encoding: 98 98 162
Width: 608
Flags: W
LayerCount: 2
Fore
SplineSet
351 -10 m 0,0,1
 281 -10 281 -10 235 24 c 128,-1,2
 189 58 189 58 178 118 c 1,3,-1
 187 120 l 1,4,-1
 187 0 l 1,5,-1
 65 0 l 1,6,-1
 65 720 l 1,7,-1
 191 720 l 1,8,-1
 191 396 l 1,9,-1
 182 399 l 1,10,11
 195 455 195 455 242.5 487.5 c 128,-1,12
 290 520 290 520 359 520 c 0,13,14
 426 520 426 520 475 487.5 c 128,-1,15
 524 455 524 455 551 396 c 128,-1,16
 578 337 578 337 578 257 c 0,17,18
 578 176 578 176 550 116 c 128,-1,19
 522 56 522 56 471 23 c 128,-1,20
 420 -10 420 -10 351 -10 c 0,0,1
319 93 m 0,21,22
 378 93 378 93 413 135.5 c 128,-1,23
 448 178 448 178 448 256 c 256,24,25
 448 334 448 334 412.5 375.5 c 128,-1,26
 377 417 377 417 318 417 c 256,27,28
 259 417 259 417 223.5 374.5 c 128,-1,29
 188 332 188 332 188 255 c 0,30,31
 188 177 188 177 223.5 135 c 128,-1,32
 259 93 259 93 319 93 c 0,21,22
EndSplineSet
Validated: 5
EndChar

StartChar: c
Encoding: 99 99 163
Width: 540
GlyphClass: 2
Flags: W
AnchorPoint: "Anchor-2" 276 0 basechar 0
AnchorPoint: "Anchor-0" 285 510 basechar 0
LayerCount: 2
Fore
SplineSet
282 -10 m 0,0,1
 207 -10 207 -10 149.5 24 c 128,-1,2
 92 58 92 58 59.5 118 c 128,-1,3
 27 178 27 178 27 256 c 0,4,5
 27 333 27 333 59.5 393 c 128,-1,6
 92 453 92 453 149.5 486.5 c 128,-1,7
 207 520 207 520 282 520 c 0,8,9
 344 520 344 520 394 496.5 c 128,-1,10
 444 473 444 473 475.5 430.5 c 128,-1,11
 507 388 507 388 516 330 c 1,12,-1
 396 330 l 1,13,14
 386 373 386 373 356.5 396 c 128,-1,15
 327 419 327 419 284 419 c 0,16,17
 245 419 245 419 216.5 399.5 c 128,-1,18
 188 380 188 380 172.5 343.5 c 128,-1,19
 157 307 157 307 157 256 c 256,20,21
 157 205 157 205 172.5 168 c 128,-1,22
 188 131 188 131 216.5 111 c 128,-1,23
 245 91 245 91 284 91 c 0,24,25
 326 91 326 91 356.5 114 c 128,-1,26
 387 137 387 137 396 180 c 1,27,-1
 516 180 l 1,28,29
 507 122 507 122 475 79.5 c 128,-1,30
 443 37 443 37 393 13.5 c 128,-1,31
 343 -10 343 -10 282 -10 c 0,0,1
EndSplineSet
Validated: 1
EndChar

StartChar: d
Encoding: 100 100 168
Width: 608
GlyphClass: 2
Flags: W
AnchorPoint: "Anchor-2" 304 0 basechar 0
AnchorPoint: "Anchor-1" 598 720 basechar 0
AnchorPoint: "Anchor-0" 304 738 basechar 0
LayerCount: 2
Fore
SplineSet
421 0 m 1,0,-1
 421 114 l 1,1,-1
 431 111 l 1,2,3
 418 56 418 56 369 23 c 128,-1,4
 320 -10 320 -10 253 -10 c 0,5,6
 185 -10 185 -10 135 22.5 c 128,-1,7
 85 55 85 55 57.5 114 c 128,-1,8
 30 173 30 173 30 253 c 0,9,10
 30 334 30 334 58 394 c 128,-1,11
 86 454 86 454 137 487 c 128,-1,12
 188 520 188 520 257 520 c 0,13,14
 327 520 327 520 373 486 c 128,-1,15
 419 452 419 452 430 392 c 1,16,-1
 417 390 l 1,17,-1
 417 720 l 1,18,-1
 543 720 l 1,19,-1
 543 0 l 1,20,-1
 421 0 l 1,0,-1
290 93 m 0,21,22
 350 93 350 93 385 135.5 c 128,-1,23
 420 178 420 178 420 255 c 0,24,25
 420 333 420 333 384.5 375 c 128,-1,26
 349 417 349 417 289 417 c 0,27,28
 231 417 231 417 195.5 374.5 c 128,-1,29
 160 332 160 332 160 254 c 256,30,31
 160 176 160 176 195.5 134.5 c 128,-1,32
 231 93 231 93 290 93 c 0,21,22
EndSplineSet
Validated: 5
EndChar

StartChar: eth
Encoding: 240 240 169
Width: 596
Flags: W
LayerCount: 2
Fore
SplineSet
291 -10 m 0,0,1
 217 -10 217 -10 158.5 20 c 128,-1,2
 100 50 100 50 66.5 106.5 c 128,-1,3
 33 163 33 163 33 244 c 0,4,5
 33 324 33 324 67 380 c 128,-1,6
 101 436 101 436 157 465.5 c 128,-1,7
 213 495 213 495 278 495 c 0,8,9
 332 495 332 495 372.5 476 c 128,-1,10
 413 457 413 457 438.5 423 c 128,-1,11
 464 389 464 389 471 342 c 1,12,-1
 438 293 l 1,13,-1
 438 355 l 2,14,15
 438 448 438 448 401.5 512 c 128,-1,16
 365 576 365 576 291 609.5 c 128,-1,17
 217 643 217 643 105 643 c 1,18,-1
 125 730 l 1,19,20
 228 730 228 730 309.5 703.5 c 128,-1,21
 391 677 391 677 448 625.5 c 128,-1,22
 505 574 505 574 535.5 498.5 c 128,-1,23
 566 423 566 423 566 324 c 0,24,25
 566 165 566 165 496 77.5 c 128,-1,26
 426 -10 426 -10 291 -10 c 0,0,1
293 92 m 0,27,28
 330 92 330 92 361 109 c 128,-1,29
 392 126 392 126 410.5 161 c 128,-1,30
 429 196 429 196 429 248 c 256,31,32
 429 300 429 300 410.5 332.5 c 128,-1,33
 392 365 392 365 361.5 380.5 c 128,-1,34
 331 396 331 396 295 396 c 0,35,36
 241 396 241 396 204 358.5 c 128,-1,37
 167 321 167 321 167 244 c 0,38,39
 167 191 167 191 184 157.5 c 128,-1,40
 201 124 201 124 229.5 108 c 128,-1,41
 258 92 258 92 293 92 c 0,27,28
199 512 m 1,42,-1
 158 577 l 1,43,-1
 442 756 l 1,44,-1
 483 691 l 1,45,-1
 199 512 l 1,42,-1
EndSplineSet
Validated: 5
EndChar

StartChar: dcroat
Encoding: 273 273 171
Width: 608
GlyphClass: 2
Flags: W
AnchorPoint: "Anchor-2" 304 0 basechar 0
AnchorPoint: "Anchor-1" 598 720 basechar 0
AnchorPoint: "Anchor-0" 304 738 basechar 0
LayerCount: 2
Fore
SplineSet
245 584 m 1,0,-1
 245 668 l 1,1,-1
 608 668 l 1,2,-1
 608 584 l 1,3,-1
 245 584 l 1,0,-1
421 0 m 1,4,-1
 421 114 l 1,5,-1
 431 111 l 1,6,7
 418 56 418 56 369 23 c 128,-1,8
 320 -10 320 -10 253 -10 c 0,9,10
 185 -10 185 -10 135 22.5 c 128,-1,11
 85 55 85 55 57.5 114 c 128,-1,12
 30 173 30 173 30 253 c 0,13,14
 30 334 30 334 58 394 c 128,-1,15
 86 454 86 454 137 487 c 128,-1,16
 188 520 188 520 257 520 c 0,17,18
 327 520 327 520 373 486 c 128,-1,19
 419 452 419 452 430 392 c 1,20,-1
 417 390 l 1,21,-1
 417 720 l 1,22,-1
 543 720 l 1,23,-1
 543 0 l 1,24,-1
 421 0 l 1,4,-1
290 93 m 0,25,26
 350 93 350 93 385 135.5 c 128,-1,27
 420 178 420 178 420 255 c 0,28,29
 420 333 420 333 384.5 375 c 128,-1,30
 349 417 349 417 289 417 c 0,31,32
 231 417 231 417 195.5 374.5 c 128,-1,33
 160 332 160 332 160 254 c 256,34,35
 160 176 160 176 195.5 134.5 c 128,-1,36
 231 93 231 93 290 93 c 0,25,26
EndSplineSet
Validated: 5
EndChar

StartChar: e
Encoding: 101 101 172
Width: 559
GlyphClass: 2
Flags: W
AnchorPoint: "Anchor-3" 417 20 basechar 0
AnchorPoint: "Anchor-2" 279 0 basechar 0
AnchorPoint: "Anchor-0" 290 510 basechar 0
LayerCount: 2
Fore
SplineSet
290 -10 m 0,0,1
 211 -10 211 -10 151.5 24 c 128,-1,2
 92 58 92 58 59.5 117.5 c 128,-1,3
 27 177 27 177 27 256 c 256,4,5
 27 335 27 335 59.5 394.5 c 128,-1,6
 92 454 92 454 151 487 c 128,-1,7
 210 520 210 520 288 520 c 0,8,9
 363 520 363 520 417.5 488.5 c 128,-1,10
 472 457 472 457 502 400.5 c 128,-1,11
 532 344 532 344 532 267 c 0,12,13
 532 253 532 253 531.5 241 c 128,-1,14
 531 229 531 229 529 218 c 1,15,-1
 105 218 l 1,16,-1
 105 305 l 1,17,-1
 434 305 l 1,18,-1
 408 280 l 1,19,20
 408 353 408 353 376 389.5 c 128,-1,21
 344 426 344 426 287 426 c 0,22,23
 224 426 224 426 188 382 c 128,-1,24
 152 338 152 338 152 254 c 0,25,26
 152 171 152 171 188 127.5 c 128,-1,27
 224 84 224 84 291 84 c 0,28,29
 330 84 330 84 359 99.5 c 128,-1,30
 388 115 388 115 401 148 c 1,31,-1
 519 148 l 1,32,33
 495 75 495 75 436.5 32.5 c 128,-1,34
 378 -10 378 -10 290 -10 c 0,0,1
EndSplineSet
Validated: 5
EndChar

StartChar: f
Encoding: 102 102 181
Width: 363
Flags: W
LayerCount: 2
Fore
SplineSet
104 0 m 1,0,-1
 104 559 l 2,1,2
 104 643 104 643 150 686.5 c 128,-1,3
 196 730 196 730 287 730 c 0,4,5
 308 730 308 730 322 728 c 128,-1,6
 336 726 336 726 348 722 c 1,7,-1
 348 625 l 1,8,9
 341 627 341 627 330.5 629 c 128,-1,10
 320 631 320 631 307 631 c 0,11,12
 267 631 267 631 248 611.5 c 128,-1,13
 229 592 229 592 229 557 c 2,14,-1
 229 0 l 1,15,-1
 104 0 l 1,0,-1
15 412 m 1,16,-1
 15 510 l 1,17,-1
 338 510 l 1,18,-1
 338 412 l 1,19,-1
 15 412 l 1,16,-1
EndSplineSet
Validated: 5
EndChar

StartChar: g
Encoding: 103 103 182
Width: 608
GlyphClass: 2
Flags: W
AnchorPoint: "Anchor-2" 304 -205 basechar 0
AnchorPoint: "Anchor-0" 289 510 basechar 0
LayerCount: 2
Fore
SplineSet
286 -215 m 0,0,1
 187 -215 187 -215 123.5 -171 c 128,-1,2
 60 -127 60 -127 49 -52 c 1,3,-1
 168 -52 l 1,4,5
 176 -78 176 -78 205.5 -93 c 128,-1,6
 235 -108 235 -108 283 -108 c 0,7,8
 351 -108 351 -108 384 -77 c 128,-1,9
 417 -46 417 -46 417 16 c 2,10,-1
 417 129 l 1,11,-1
 426 127 l 1,12,13
 414 71 414 71 366 38 c 128,-1,14
 318 5 318 5 250 5 c 0,15,16
 183 5 183 5 134 37 c 128,-1,17
 85 69 85 69 57.5 126 c 128,-1,18
 30 183 30 183 30 261 c 256,19,20
 30 339 30 339 58.5 397 c 128,-1,21
 87 455 87 455 138 487.5 c 128,-1,22
 189 520 189 520 258 520 c 0,23,24
 328 520 328 520 373 486 c 128,-1,25
 418 452 418 452 429 391 c 1,26,-1
 421 391 l 1,27,-1
 421 510 l 1,28,-1
 543 510 l 1,29,-1
 543 19 l 2,30,31
 543 -90 543 -90 474.5 -152.5 c 128,-1,32
 406 -215 406 -215 286 -215 c 0,0,1
291 105 m 0,33,34
 349 105 349 105 384.5 146.5 c 128,-1,35
 420 188 420 188 420 263 c 256,36,37
 420 338 420 338 384.5 379 c 128,-1,38
 349 420 349 420 289 420 c 0,39,40
 231 420 231 420 195.5 378.5 c 128,-1,41
 160 337 160 337 160 262 c 256,42,43
 160 187 160 187 196 146 c 128,-1,44
 232 105 232 105 291 105 c 0,33,34
EndSplineSet
Validated: 5
EndChar

StartChar: h
Encoding: 104 104 186
Width: 599
GlyphClass: 2
Flags: W
AnchorPoint: "Anchor-2" 293 0 basechar 0
AnchorPoint: "Anchor-0" 293 510 basechar 0
LayerCount: 2
Fore
SplineSet
65 0 m 1,0,-1
 65 720 l 1,1,-1
 191 720 l 1,2,-1
 191 0 l 1,3,-1
 65 0 l 1,0,-1
414 0 m 1,4,-1
 414 326 l 2,5,6
 414 372 414 372 391 394.5 c 128,-1,7
 368 417 368 417 323 417 c 0,8,9
 285 417 285 417 255 399.5 c 128,-1,10
 225 382 225 382 208 351.5 c 128,-1,11
 191 321 191 321 191 280 c 1,12,-1
 178 398 l 1,13,14
 203 454 203 454 252 487 c 128,-1,15
 301 520 301 520 369 520 c 0,16,17
 450 520 450 520 495 474 c 128,-1,18
 540 428 540 428 540 352 c 2,19,-1
 540 0 l 1,20,-1
 414 0 l 1,4,-1
EndSplineSet
Validated: 5
EndChar

StartChar: hbar
Encoding: 295 295 187
Width: 599
GlyphClass: 2
Flags: W
AnchorPoint: "Anchor-2" 293 0 basechar 0
AnchorPoint: "Anchor-0" 293 510 basechar 0
LayerCount: 2
Fore
SplineSet
0 584 m 1,0,-1
 0 668 l 1,1,-1
 363 668 l 1,2,-1
 363 584 l 1,3,-1
 0 584 l 1,0,-1
65 0 m 1,4,-1
 65 720 l 1,5,-1
 191 720 l 1,6,-1
 191 0 l 1,7,-1
 65 0 l 1,4,-1
414 0 m 1,8,-1
 414 326 l 2,9,10
 414 372 414 372 391 394.5 c 128,-1,11
 368 417 368 417 324 417 c 0,12,13
 284 417 284 417 254 399.5 c 128,-1,14
 224 382 224 382 207.5 351.5 c 128,-1,15
 191 321 191 321 191 280 c 1,16,-1
 178 398 l 1,17,18
 203 454 203 454 252 487 c 128,-1,19
 301 520 301 520 369 520 c 0,20,21
 450 520 450 520 495 474 c 128,-1,22
 540 428 540 428 540 352 c 2,23,-1
 540 0 l 1,24,-1
 414 0 l 1,8,-1
EndSplineSet
Validated: 5
EndChar

StartChar: dotlessi
Encoding: 305 305 189
Width: 256
GlyphClass: 2
Flags: W
AnchorPoint: "Anchor-3" 191 0 basechar 0
AnchorPoint: "Anchor-2" 128 0 basechar 0
AnchorPoint: "Anchor-0" 128 510 basechar 0
LayerCount: 2
Fore
SplineSet
65 0 m 1,0,-1
 65 510 l 1,1,-1
 191 510 l 1,2,-1
 191 0 l 1,3,-1
 65 0 l 1,0,-1
EndSplineSet
Validated: 1
EndChar

StartChar: uni0237
Encoding: 567 567 199
Width: 256
GlyphClass: 2
Flags: W
AnchorPoint: "Anchor-2" 128 -205 basechar 0
AnchorPoint: "Anchor-0" 128 510 basechar 0
LayerCount: 2
Fore
SplineSet
27 -215 m 0,0,1
 9 -215 9 -215 -4.5 -212.5 c 128,-1,2
 -18 -210 -18 -210 -31 -207 c 1,3,-1
 -31 -110 l 1,4,5
 -23 -112 -23 -112 -13 -114 c 128,-1,6
 -3 -116 -3 -116 8 -116 c 0,7,8
 37 -116 37 -116 51 -102.5 c 128,-1,9
 65 -89 65 -89 65 -61 c 2,10,-1
 65 510 l 1,11,-1
 191 510 l 1,12,-1
 191 -64 l 2,13,14
 191 -135 191 -135 151 -175 c 128,-1,15
 111 -215 111 -215 27 -215 c 0,0,1
EndSplineSet
Validated: 1
EndChar

StartChar: k
Encoding: 107 107 200
Width: 547
GlyphClass: 2
Flags: W
AnchorPoint: "Anchor-2" 281 0 basechar 0
AnchorPoint: "Anchor-0" 274 740 basechar 0
LayerCount: 2
Fore
SplineSet
65 0 m 1,0,-1
 65 726 l 1,1,-1
 191 726 l 1,2,-1
 191 0 l 1,3,-1
 65 0 l 1,0,-1
387 0 m 1,4,-1
 163 265 l 1,5,-1
 380 510 l 1,6,-1
 530 510 l 1,7,-1
 279 242 l 1,8,-1
 285 289 l 1,9,-1
 540 0 l 1,10,-1
 387 0 l 1,4,-1
EndSplineSet
Validated: 5
Substitution2: "'ss04' Style Set 4 in Latin lookup 25 subtable" k.ss04
Substitution2: "'aalt' Access All Alternates in Latin lookup 0 subtable" k.ss04
EndChar

StartChar: l
Encoding: 108 108 202
Width: 256
GlyphClass: 2
Flags: W
AnchorPoint: "Anchor-2" 128 0 basechar 0
AnchorPoint: "Anchor-1" 247 720 basechar 0
AnchorPoint: "Anchor-0" 128 720 basechar 0
LayerCount: 2
Fore
SplineSet
65 0 m 1,0,-1
 65 720 l 1,1,-1
 191 720 l 1,2,-1
 191 0 l 1,3,-1
 65 0 l 1,0,-1
EndSplineSet
Validated: 1
EndChar

StartChar: lslash
Encoding: 322 322 206
Width: 289
GlyphClass: 2
Flags: W
AnchorPoint: "Anchor-2" 145 0 basechar 0
AnchorPoint: "Anchor-1" 263 720 basechar 0
AnchorPoint: "Anchor-0" 145 720 basechar 0
LayerCount: 2
Fore
SplineSet
149 335 m 1,0,-1
 7 276 l 1,1,-1
 7 363 l 1,2,-1
 149 421 l 1,3,-1
 149 335 l 1,0,-1
149 429 m 1,4,-1
 282 485 l 1,5,-1
 282 399 l 1,6,-1
 149 343 l 1,7,-1
 149 429 l 1,4,-1
82 0 m 1,8,-1
 82 720 l 1,9,-1
 207 720 l 1,10,-1
 207 0 l 1,11,-1
 82 0 l 1,8,-1
EndSplineSet
Validated: 5
EndChar

StartChar: m
Encoding: 109 109 207
Width: 919
Flags: W
LayerCount: 2
Fore
SplineSet
65 0 m 1,0,-1
 65 510 l 1,1,-1
 187 510 l 1,2,-1
 187 392 l 1,3,-1
 191 392 l 1,4,-1
 191 0 l 1,5,-1
 65 0 l 1,0,-1
400 0 m 1,6,-1
 400 332 l 2,7,8
 400 376 400 376 378.5 396.5 c 128,-1,9
 357 417 357 417 317 417 c 0,10,11
 282 417 282 417 253 400.5 c 128,-1,12
 224 384 224 384 207.5 354.5 c 128,-1,13
 191 325 191 325 191 285 c 1,14,-1
 178 398 l 1,15,16
 203 455 203 455 250.5 487.5 c 128,-1,17
 298 520 298 520 362 520 c 0,18,19
 438 520 438 520 481.5 476.5 c 128,-1,20
 525 433 525 433 525 363 c 2,21,-1
 525 0 l 1,22,-1
 400 0 l 1,6,-1
734 0 m 1,23,-1
 734 332 l 2,24,25
 734 376 734 376 712.5 396.5 c 128,-1,26
 691 417 691 417 651 417 c 0,27,28
 616 417 616 417 587 400.5 c 128,-1,29
 558 384 558 384 541.5 354.5 c 128,-1,30
 525 325 525 325 525 285 c 1,31,-1
 503 399 l 1,32,33
 528 455 528 455 578 487.5 c 128,-1,34
 628 520 628 520 694 520 c 0,35,36
 771 520 771 520 815 475.5 c 128,-1,37
 859 431 859 431 859 357 c 2,38,-1
 859 0 l 1,39,-1
 734 0 l 1,23,-1
EndSplineSet
Validated: 5
EndChar

StartChar: n
Encoding: 110 110 208
Width: 599
GlyphClass: 2
Flags: W
AnchorPoint: "Anchor-2" 310 0 basechar 0
AnchorPoint: "Anchor-0" 323 510 basechar 0
LayerCount: 2
Fore
SplineSet
65 0 m 1,0,-1
 65 510 l 1,1,-1
 187 510 l 1,2,-1
 187 392 l 1,3,-1
 191 392 l 1,4,-1
 191 0 l 1,5,-1
 65 0 l 1,0,-1
414 0 m 1,6,-1
 414 326 l 2,7,8
 414 372 414 372 391 394.5 c 128,-1,9
 368 417 368 417 323 417 c 0,10,11
 285 417 285 417 255 399.5 c 128,-1,12
 225 382 225 382 208 351.5 c 128,-1,13
 191 321 191 321 191 280 c 1,14,-1
 178 398 l 1,15,16
 203 454 203 454 252 487 c 128,-1,17
 301 520 301 520 369 520 c 0,18,19
 450 520 450 520 495 474 c 128,-1,20
 540 428 540 428 540 352 c 2,21,-1
 540 0 l 1,22,-1
 414 0 l 1,6,-1
EndSplineSet
Validated: 5
EndChar

StartChar: eng
Encoding: 331 331 213
Width: 599
Flags: W
LayerCount: 2
Fore
SplineSet
376 -215 m 0,0,1
 358 -215 358 -215 344.5 -212.5 c 128,-1,2
 331 -210 331 -210 318 -207 c 1,3,-1
 318 -110 l 1,4,5
 326 -112 326 -112 335.5 -114 c 128,-1,6
 345 -116 345 -116 357 -116 c 0,7,8
 386 -116 386 -116 400 -102.5 c 128,-1,9
 414 -89 414 -89 414 -61 c 2,10,-1
 414 326 l 2,11,12
 414 372 414 372 391 394.5 c 128,-1,13
 368 417 368 417 323 417 c 0,14,15
 285 417 285 417 255 399.5 c 128,-1,16
 225 382 225 382 208 351.5 c 128,-1,17
 191 321 191 321 191 280 c 1,18,-1
 178 398 l 1,19,20
 203 454 203 454 252 487 c 128,-1,21
 301 520 301 520 369 520 c 0,22,23
 450 520 450 520 495 474 c 128,-1,24
 540 428 540 428 540 352 c 2,25,-1
 540 -64 l 2,26,27
 540 -135 540 -135 500 -175 c 128,-1,28
 460 -215 460 -215 376 -215 c 0,0,1
65 0 m 1,29,-1
 65 510 l 1,30,-1
 187 510 l 1,31,-1
 187 392 l 1,32,-1
 191 392 l 1,33,-1
 191 0 l 1,34,-1
 65 0 l 1,29,-1
EndSplineSet
Validated: 5
EndChar

StartChar: o
Encoding: 111 111 214
Width: 585
GlyphClass: 2
Flags: W
AnchorPoint: "Anchor-3" 424 20 basechar 0
AnchorPoint: "Anchor-2" 293 0 basechar 0
AnchorPoint: "Anchor-1" 565 510 basechar 0
AnchorPoint: "Anchor-0" 293 510 basechar 0
LayerCount: 2
Fore
SplineSet
293 -10 m 0,0,1
 213 -10 213 -10 153 24 c 128,-1,2
 93 58 93 58 60 118.5 c 128,-1,3
 27 179 27 179 27 257 c 256,4,5
 27 335 27 335 60.5 394 c 128,-1,6
 94 453 94 453 153.5 486.5 c 128,-1,7
 213 520 213 520 293 520 c 256,8,9
 373 520 373 520 432.5 486.5 c 128,-1,10
 492 453 492 453 525.5 394 c 128,-1,11
 559 335 559 335 559 257 c 256,12,13
 559 179 559 179 525.5 118.5 c 128,-1,14
 492 58 492 58 432 24 c 128,-1,15
 372 -10 372 -10 293 -10 c 0,0,1
293 91 m 0,16,17
 332 91 332 91 362.5 111 c 128,-1,18
 393 131 393 131 410.5 168.5 c 128,-1,19
 428 206 428 206 428 258 c 0,20,21
 428 334 428 334 390 376.5 c 128,-1,22
 352 419 352 419 293 419 c 256,23,24
 234 419 234 419 195.5 376.5 c 128,-1,25
 157 334 157 334 157 258 c 0,26,27
 157 206 157 206 174.5 168.5 c 128,-1,28
 192 131 192 131 222.5 111 c 128,-1,29
 253 91 253 91 293 91 c 0,16,17
EndSplineSet
Validated: 1
Substitution2: "Single Substitution lookup 17 subtable" ordmasculine
Substitution2: "'aalt' Access All Alternates in Latin lookup 0 subtable" ordmasculine
EndChar

StartChar: oslash
Encoding: 248 248 221
Width: 585
Flags: W
LayerCount: 2
Fore
SplineSet
293 -10 m 0,0,1
 213 -10 213 -10 153 24 c 128,-1,2
 93 58 93 58 60 118.5 c 128,-1,3
 27 179 27 179 27 257 c 256,4,5
 27 335 27 335 60.5 394 c 128,-1,6
 94 453 94 453 153.5 486.5 c 128,-1,7
 213 520 213 520 293 520 c 256,8,9
 373 520 373 520 432.5 486.5 c 128,-1,10
 492 453 492 453 525.5 394 c 128,-1,11
 559 335 559 335 559 257 c 256,12,13
 559 179 559 179 525.5 118.5 c 128,-1,14
 492 58 492 58 432 24 c 128,-1,15
 372 -10 372 -10 293 -10 c 0,0,1
293 87 m 0,16,17
 334 87 334 87 365 107.5 c 128,-1,18
 396 128 396 128 414 166.5 c 128,-1,19
 432 205 432 205 432 258 c 0,20,21
 432 336 432 336 393.5 379.5 c 128,-1,22
 355 423 355 423 293 423 c 0,23,24
 230 423 230 423 191.5 379.5 c 128,-1,25
 153 336 153 336 153 258 c 0,26,27
 153 205 153 205 171 166.5 c 128,-1,28
 189 128 189 128 220 107.5 c 128,-1,29
 251 87 251 87 293 87 c 0,16,17
89 -13 m 1,30,-1
 29 45 l 1,31,-1
 496 523 l 1,32,-1
 556 465 l 1,33,-1
 89 -13 l 1,30,-1
EndSplineSet
Validated: 5
EndChar

StartChar: oe
Encoding: 339 339 223
Width: 925
Flags: W
LayerCount: 2
Fore
SplineSet
283 -10 m 0,0,1
 208 -10 208 -10 150 24 c 128,-1,2
 92 58 92 58 59.5 118.5 c 128,-1,3
 27 179 27 179 27 257 c 256,4,5
 27 335 27 335 60 394 c 128,-1,6
 93 453 93 453 150.5 486.5 c 128,-1,7
 208 520 208 520 283 520 c 256,8,9
 358 520 358 520 413 486.5 c 128,-1,10
 468 453 468 453 498 394 c 128,-1,11
 528 335 528 335 528 257 c 256,12,13
 528 179 528 179 498 118.5 c 128,-1,14
 468 58 468 58 412.5 24 c 128,-1,15
 357 -10 357 -10 283 -10 c 0,0,1
283 91 m 0,16,17
 320 91 320 91 348 111 c 128,-1,18
 376 131 376 131 392 168.5 c 128,-1,19
 408 206 408 206 408 258 c 0,20,21
 408 309 408 309 392 345 c 128,-1,22
 376 381 376 381 348 400 c 128,-1,23
 320 419 320 419 283 419 c 256,24,25
 246 419 246 419 218 400 c 128,-1,26
 190 381 190 381 173.5 345 c 128,-1,27
 157 309 157 309 157 258 c 0,28,29
 157 206 157 206 173.5 168.5 c 128,-1,30
 190 131 190 131 218.5 111 c 128,-1,31
 247 91 247 91 283 91 c 0,16,17
666 -10 m 0,32,33
 592 -10 592 -10 535.5 24 c 128,-1,34
 479 58 479 58 448 117.5 c 128,-1,35
 417 177 417 177 417 256 c 256,36,37
 417 335 417 335 448 394.5 c 128,-1,38
 479 454 479 454 535 487 c 128,-1,39
 591 520 591 520 664 520 c 0,40,41
 734 520 734 520 786.5 488.5 c 128,-1,42
 839 457 839 457 868.5 400.5 c 128,-1,43
 898 344 898 344 898 267 c 0,44,45
 898 253 898 253 897 241 c 128,-1,46
 896 229 896 229 895 218 c 1,47,-1
 491 218 l 1,48,-1
 491 305 l 1,49,-1
 800 305 l 1,50,-1
 776 280 l 1,51,52
 776 353 776 353 745.5 389.5 c 128,-1,53
 715 426 715 426 665 426 c 0,54,55
 627 426 627 426 598 406.5 c 128,-1,56
 569 387 569 387 553.5 348.5 c 128,-1,57
 538 310 538 310 538 254 c 0,58,59
 538 199 538 199 553.5 161 c 128,-1,60
 569 123 569 123 598 103.5 c 128,-1,61
 627 84 627 84 667 84 c 0,62,63
 699 84 699 84 726 99.5 c 128,-1,64
 753 115 753 115 765 148 c 1,65,-1
 885 148 l 1,66,67
 861 75 861 75 804 32.5 c 128,-1,68
 747 -10 747 -10 666 -10 c 0,32,33
EndSplineSet
Validated: 5
EndChar

StartChar: p
Encoding: 112 112 224
Width: 608
Flags: W
LayerCount: 2
Fore
SplineSet
351 -10 m 0,0,1
 281 -10 281 -10 236 24 c 128,-1,2
 191 58 191 58 180 118 c 1,3,-1
 191 120 l 1,4,-1
 191 -205 l 1,5,-1
 65 -205 l 1,6,-1
 65 510 l 1,7,-1
 187 510 l 1,8,-1
 187 396 l 1,9,-1
 178 399 l 1,10,11
 191 455 191 455 240 487.5 c 128,-1,12
 289 520 289 520 359 520 c 0,13,14
 426 520 426 520 475 487.5 c 128,-1,15
 524 455 524 455 551 396 c 128,-1,16
 578 337 578 337 578 257 c 0,17,18
 578 176 578 176 550 116 c 128,-1,19
 522 56 522 56 471 23 c 128,-1,20
 420 -10 420 -10 351 -10 c 0,0,1
319 93 m 0,21,22
 378 93 378 93 413 135.5 c 128,-1,23
 448 178 448 178 448 256 c 256,24,25
 448 334 448 334 412.5 375.5 c 128,-1,26
 377 417 377 417 318 417 c 256,27,28
 259 417 259 417 223.5 374.5 c 128,-1,29
 188 332 188 332 188 255 c 0,30,31
 188 177 188 177 223.5 135 c 128,-1,32
 259 93 259 93 319 93 c 0,21,22
EndSplineSet
Validated: 5
EndChar

StartChar: thorn
Encoding: 254 254 225
Width: 608
Flags: W
LayerCount: 2
Fore
SplineSet
351 -10 m 0,0,1
 281 -10 281 -10 236 24 c 128,-1,2
 191 58 191 58 180 118 c 1,3,-1
 191 120 l 1,4,-1
 191 -205 l 1,5,-1
 65 -205 l 1,6,-1
 65 720 l 1,7,-1
 191 720 l 1,8,-1
 191 396 l 1,9,-1
 178 399 l 1,10,11
 191 455 191 455 240 487.5 c 128,-1,12
 289 520 289 520 359 520 c 0,13,14
 426 520 426 520 475 487.5 c 128,-1,15
 524 455 524 455 551 396 c 128,-1,16
 578 337 578 337 578 257 c 0,17,18
 578 176 578 176 550 116 c 128,-1,19
 522 56 522 56 471 23 c 128,-1,20
 420 -10 420 -10 351 -10 c 0,0,1
319 93 m 0,21,22
 379 93 379 93 413.5 135.5 c 128,-1,23
 448 178 448 178 448 256 c 256,24,25
 448 334 448 334 413 375.5 c 128,-1,26
 378 417 378 417 318 417 c 256,27,28
 258 417 258 417 223 374.5 c 128,-1,29
 188 332 188 332 188 255 c 0,30,31
 188 177 188 177 223 135 c 128,-1,32
 258 93 258 93 319 93 c 0,21,22
EndSplineSet
Validated: 5
EndChar

StartChar: q
Encoding: 113 113 226
Width: 608
Flags: W
LayerCount: 2
Fore
SplineSet
417 -205 m 1,0,-1
 417 114 l 1,1,-1
 431 111 l 1,2,3
 418 56 418 56 369 23 c 128,-1,4
 320 -10 320 -10 253 -10 c 0,5,6
 185 -10 185 -10 135 22.5 c 128,-1,7
 85 55 85 55 57.5 114 c 128,-1,8
 30 173 30 173 30 253 c 0,9,10
 30 334 30 334 58 394 c 128,-1,11
 86 454 86 454 137.5 487 c 128,-1,12
 189 520 189 520 257 520 c 0,13,14
 328 520 328 520 373.5 486 c 128,-1,15
 419 452 419 452 430 392 c 1,16,-1
 421 390 l 1,17,-1
 421 510 l 1,18,-1
 543 510 l 1,19,-1
 543 -205 l 1,20,-1
 417 -205 l 1,0,-1
290 93 m 0,21,22
 351 93 351 93 385.5 135.5 c 128,-1,23
 420 178 420 178 420 255 c 0,24,25
 420 333 420 333 385 375 c 128,-1,26
 350 417 350 417 289 417 c 0,27,28
 229 417 229 417 194.5 374.5 c 128,-1,29
 160 332 160 332 160 254 c 256,30,31
 160 176 160 176 195 134.5 c 128,-1,32
 230 93 230 93 290 93 c 0,21,22
EndSplineSet
Validated: 5
EndChar

StartChar: r
Encoding: 114 114 227
Width: 383
GlyphClass: 2
Flags: W
AnchorPoint: "Anchor-2" 126 0 basechar 0
AnchorPoint: "Anchor-0" 212 510 basechar 0
LayerCount: 2
Fore
SplineSet
65 0 m 1,0,-1
 65 510 l 1,1,-1
 187 510 l 1,2,-1
 187 387 l 1,3,-1
 191 387 l 1,4,-1
 191 0 l 1,5,-1
 65 0 l 1,0,-1
191 269 m 1,6,-1
 178 387 l 1,7,8
 196 452 196 452 237.5 486 c 128,-1,9
 279 520 279 520 338 520 c 0,10,11
 358 520 358 520 367 516 c 1,12,-1
 367 398 l 1,13,14
 362 399 362 399 353.5 399.5 c 128,-1,15
 345 400 345 400 332 400 c 0,16,17
 261 400 261 400 226 368.5 c 128,-1,18
 191 337 191 337 191 269 c 1,6,-1
EndSplineSet
Validated: 5
EndChar

StartChar: s
Encoding: 115 115 231
Width: 482
GlyphClass: 2
Flags: W
AnchorPoint: "Anchor-2" 253 0 basechar 0
AnchorPoint: "Anchor-0" 242 510 basechar 0
LayerCount: 2
Fore
SplineSet
255 -10 m 0,0,1
 152 -10 152 -10 91 34.5 c 128,-1,2
 30 79 30 79 24 158 c 1,3,-1
 137 158 l 1,4,5
 142 119 142 119 172.5 98.5 c 128,-1,6
 203 78 203 78 256 78 c 0,7,8
 303 78 303 78 326.5 93.5 c 128,-1,9
 350 109 350 109 350 138 c 0,10,11
 350 159 350 159 336 173 c 128,-1,12
 322 187 322 187 284 196 c 2,13,-1
 204 216 l 2,14,15
 123 236 123 236 84.5 273.5 c 128,-1,16
 46 311 46 311 46 369 c 0,17,18
 46 439 46 439 99 479.5 c 128,-1,19
 152 520 152 520 245 520 c 256,20,21
 338 520 338 520 393.5 479.5 c 128,-1,22
 449 439 449 439 455 368 c 1,23,-1
 342 368 l 1,24,25
 337 399 337 399 312 415.5 c 128,-1,26
 287 432 287 432 243 432 c 0,27,28
 202 432 202 432 180.5 418 c 128,-1,29
 159 404 159 404 159 379 c 0,30,31
 159 359 159 359 175.5 345 c 128,-1,32
 192 331 192 331 231 321 c 2,33,-1
 317 299 l 2,34,35
 389 282 389 282 426 240.5 c 128,-1,36
 463 199 463 199 463 142 c 0,37,38
 463 70 463 70 408.5 30 c 128,-1,39
 354 -10 354 -10 255 -10 c 0,0,1
EndSplineSet
Validated: 1
EndChar

StartChar: germandbls
Encoding: 223 223 236
Width: 618
Flags: W
LayerCount: 2
Fore
SplineSet
342 -10 m 0,0,1
 316 -10 316 -10 295.5 -6.5 c 128,-1,2
 275 -3 275 -3 262 3 c 1,3,-1
 262 100 l 1,4,5
 275 96 275 96 290.5 93.5 c 128,-1,6
 306 91 306 91 324 91 c 0,7,8
 392 91 392 91 424 121 c 128,-1,9
 456 151 456 151 456 207 c 0,10,11
 456 261 456 261 420.5 294 c 128,-1,12
 385 327 385 327 321 327 c 2,13,-1
 272 327 l 1,14,-1
 272 426 l 1,15,-1
 313 426 l 2,16,17
 343 426 343 426 367 438 c 128,-1,18
 391 450 391 450 405 472.5 c 128,-1,19
 419 495 419 495 419 525 c 0,20,21
 419 574 419 574 390 602.5 c 128,-1,22
 361 631 361 631 309 631 c 0,23,24
 252 631 252 631 221.5 596 c 128,-1,25
 191 561 191 561 191 491 c 2,26,-1
 191 0 l 1,27,-1
 65 0 l 1,28,-1
 65 488 l 2,29,30
 65 598 65 598 127.5 664 c 128,-1,31
 190 730 190 730 311 730 c 0,32,33
 384 730 384 730 437 705.5 c 128,-1,34
 490 681 490 681 519.5 637.5 c 128,-1,35
 549 594 549 594 549 537 c 0,36,37
 549 485 549 485 525.5 447.5 c 128,-1,38
 502 410 502 410 461 390 c 128,-1,39
 420 370 420 370 369 370 c 1,40,-1
 371 391 l 1,41,42
 440 391 440 391 488 365.5 c 128,-1,43
 536 340 536 340 561.5 296.5 c 128,-1,44
 587 253 587 253 587 197 c 0,45,46
 587 134 587 134 556.5 87.5 c 128,-1,47
 526 41 526 41 471 15.5 c 128,-1,48
 416 -10 416 -10 342 -10 c 0,0,1
EndSplineSet
Validated: 5
EndChar

StartChar: t
Encoding: 116 116 237
Width: 397
GlyphClass: 2
Flags: W
AnchorPoint: "Anchor-2" 257 0 basechar 0
AnchorPoint: "Anchor-1" 313 786 basechar 0
AnchorPoint: "Anchor-0" 157 510 basechar 0
LayerCount: 2
Fore
SplineSet
290 -10 m 0,0,1
 198 -10 198 -10 154 33.5 c 128,-1,2
 110 77 110 77 110 164 c 2,3,-1
 110 624 l 5,4,-1
 236 672 l 1,5,-1
 236 162 l 2,6,7
 236 126 236 126 255.5 108.5 c 128,-1,8
 275 91 275 91 317 91 c 0,9,10
 333 91 333 91 346 93.5 c 128,-1,11
 359 96 359 96 371 100 c 1,12,-1
 371 3 l 1,13,14
 359 -3 359 -3 337.5 -6.5 c 128,-1,15
 316 -10 316 -10 290 -10 c 0,0,1
15 412 m 1,16,-1
 15 510 l 1,17,-1
 371 510 l 1,18,-1
 371 412 l 1,19,-1
 15 412 l 1,16,-1
EndSplineSet
Validated: 5
EndChar

StartChar: u
Encoding: 117 117 240
Width: 591
GlyphClass: 2
Flags: W
AnchorPoint: "Anchor-3" 525 0 basechar 0
AnchorPoint: "Anchor-2" 296 0 basechar 0
AnchorPoint: "Anchor-1" 571 510 basechar 0
AnchorPoint: "Anchor-0" 296 510 basechar 0
LayerCount: 2
Fore
SplineSet
226 -10 m 0,0,1
 175 -10 175 -10 137.5 12 c 128,-1,2
 100 34 100 34 79.5 72 c 128,-1,3
 59 110 59 110 59 158 c 2,4,-1
 59 510 l 1,5,-1
 185 510 l 1,6,-1
 185 184 l 2,7,8
 185 138 185 138 207.5 115.5 c 128,-1,9
 230 93 230 93 272 93 c 0,10,11
 309 93 309 93 337.5 110.5 c 128,-1,12
 366 128 366 128 383 159 c 128,-1,13
 400 190 400 190 400 230 c 1,14,-1
 413 111 l 1,15,16
 388 56 388 56 339.5 23 c 128,-1,17
 291 -10 291 -10 226 -10 c 0,0,1
404 0 m 1,18,-1
 404 118 l 1,19,-1
 400 118 l 1,20,-1
 400 510 l 1,21,-1
 525 510 l 1,22,-1
 525 0 l 1,23,-1
 404 0 l 1,18,-1
EndSplineSet
Validated: 5
EndChar

StartChar: v
Encoding: 118 118 250
Width: 526
Flags: W
LayerCount: 2
Fore
SplineSet
204 0 m 1,0,-1
 6 510 l 1,1,-1
 140 510 l 1,2,-1
 297 44 l 1,3,-1
 234 44 l 1,4,-1
 390 510 l 1,5,-1
 520 510 l 1,6,-1
 322 0 l 1,7,-1
 204 0 l 1,0,-1
EndSplineSet
Validated: 5
EndChar

StartChar: w
Encoding: 119 119 251
Width: 787
GlyphClass: 2
Flags: W
AnchorPoint: "Anchor-2" 394 0 basechar 0
AnchorPoint: "Anchor-0" 394 510 basechar 0
LayerCount: 2
Fore
SplineSet
169 0 m 1,0,-1
 17 510 l 1,1,-1
 148 510 l 1,2,-1
 237 127 l 1,3,-1
 228 127 l 1,4,-1
 338 510 l 1,5,-1
 453 510 l 1,6,-1
 564 127 l 1,7,-1
 555 127 l 1,8,-1
 643 510 l 1,9,-1
 770 510 l 1,10,-1
 618 0 l 1,11,-1
 500 0 l 1,12,-1
 389 379 l 1,13,-1
 399 379 l 1,14,-1
 287 0 l 1,15,-1
 169 0 l 1,0,-1
EndSplineSet
Validated: 5
EndChar

StartChar: x
Encoding: 120 120 256
Width: 572
Flags: W
LayerCount: 2
Fore
SplineSet
406 0 m 1,0,-1
 253 228 l 1,1,-1
 47 510 l 1,2,-1
 188 510 l 1,3,-1
 325 303 l 1,4,-1
 547 0 l 1,5,-1
 406 0 l 1,0,-1
263 307 m 1,6,-1
 402 510 l 1,7,-1
 539 510 l 1,8,-1
 324 218 l 1,9,-1
 263 307 l 1,6,-1
312 212 m 1,10,-1
 163 0 l 1,11,-1
 26 0 l 1,12,-1
 252 302 l 1,13,-1
 312 212 l 1,10,-1
EndSplineSet
Validated: 5
EndChar

StartChar: y
Encoding: 65573 -1 257
Width: 526
GlyphClass: 2
Flags: W
AnchorPoint: "Anchor-2" 264 0 basechar 0
AnchorPoint: "Anchor-0" 264 510 basechar 0
LayerCount: 2
Fore
SplineSet
99 -205 m 1,0,-1
 226 91 l 1,1,-1
 249 128 l 1,2,-1
 388 510 l 1,3,-1
 520 510 l 1,4,-1
 225 -205 l 1,5,-1
 99 -205 l 1,0,-1
208 4 m 1,6,-1
 6 510 l 1,7,-1
 142 510 l 1,8,-1
 309 53 l 1,9,-1
 208 4 l 1,6,-1
EndSplineSet
Validated: 5
Substitution2: "'calt' Contextual Alternates in Latin lookup 24 subtable" y.ss03
Substitution2: "'aalt' Access All Alternates in Latin lookup 0 subtable" y.ss03
EndChar

StartChar: z
Encoding: 122 122 262
Width: 502
GlyphClass: 2
Flags: W
AnchorPoint: "Anchor-2" 251 0 basechar 0
AnchorPoint: "Anchor-0" 251 510 basechar 0
LayerCount: 2
Fore
SplineSet
46 0 m 1,0,-1
 46 88 l 1,1,-1
 330 457 l 1,2,-1
 359 412 l 1,3,-1
 55 412 l 1,4,-1
 55 510 l 1,5,-1
 456 510 l 1,6,-1
 456 423 l 1,7,-1
 174 57 l 1,8,-1
 147 98 l 1,9,-1
 461 98 l 1,10,-1
 461 0 l 1,11,-1
 46 0 l 1,0,-1
EndSplineSet
Validated: 5
EndChar

StartChar: a.ss02
Encoding: 65601 -1 289
Width: 608
GlyphClass: 2
Flags: W
AnchorPoint: "Anchor-3" 543 0 basechar 0
AnchorPoint: "Anchor-2" 304 0 basechar 0
AnchorPoint: "Anchor-0" 304 510 basechar 0
LayerCount: 2
Fore
SplineSet
253 -10 m 0,0,1
 185 -10 185 -10 135 22.5 c 128,-1,2
 85 55 85 55 57.5 114 c 128,-1,3
 30 173 30 173 30 253 c 0,4,5
 30 334 30 334 58 394 c 128,-1,6
 86 454 86 454 137 487 c 128,-1,7
 188 520 188 520 257 520 c 0,8,9
 327 520 327 520 373 486 c 128,-1,10
 419 452 419 452 430 392 c 1,11,-1
 421 390 l 1,12,-1
 421 510 l 1,13,-1
 543 510 l 1,14,-1
 543 0 l 1,15,-1
 421 0 l 1,16,-1
 421 114 l 1,17,-1
 431 111 l 1,18,19
 418 56 418 56 369 23 c 128,-1,20
 320 -10 320 -10 253 -10 c 0,0,1
290 93 m 0,21,22
 351 93 351 93 385.5 135.5 c 128,-1,23
 420 178 420 178 420 255 c 0,24,25
 420 333 420 333 385 375 c 128,-1,26
 350 417 350 417 289 417 c 0,27,28
 229 417 229 417 194.5 374.5 c 128,-1,29
 160 332 160 332 160 254 c 256,30,31
 160 176 160 176 195 134.5 c 128,-1,32
 230 93 230 93 290 93 c 0,21,22
EndSplineSet
Validated: 5
EndChar

StartChar: y.ss03
Encoding: 121 121 300
Width: 533
GlyphClass: 2
Flags: W
AnchorPoint: "Anchor-2" 264 0 basechar 0
AnchorPoint: "Anchor-0" 266 510 basechar 0
LayerCount: 2
Fore
SplineSet
122 -215 m 0,0,1
 106 -215 106 -215 91.5 -212.5 c 128,-1,2
 77 -210 77 -210 63 -207 c 1,3,-1
 63 -104 l 1,4,5
 71 -106 71 -106 82 -108 c 128,-1,6
 93 -110 93 -110 106 -110 c 0,7,8
 137 -110 137 -110 156.5 -93.5 c 128,-1,9
 176 -77 176 -77 190 -40 c 2,10,-1
 237 88 l 1,11,-1
 266 124 l 1,12,-1
 402 510 l 1,13,-1
 527 510 l 1,14,-1
 289 -90 l 2,15,16
 272 -133 272 -133 248.5 -161 c 128,-1,17
 225 -189 225 -189 194 -202 c 128,-1,18
 163 -215 163 -215 122 -215 c 0,0,1
215 4 m 1,19,-1
 12 510 l 1,20,-1
 146 510 l 1,21,-1
 311 61 l 1,22,-1
 215 4 l 1,19,-1
EndSplineSet
Validated: 5
EndChar

StartChar: k.ss04
Encoding: 65612 -1 305
Width: 547
GlyphClass: 2
Flags: W
AnchorPoint: "Anchor-2" 281 0 basechar 0
AnchorPoint: "Anchor-0" 274 740 basechar 0
LayerCount: 2
Fore
SplineSet
65 0 m 1,0,-1
 65 720 l 1,1,-1
 191 720 l 1,2,-1
 191 0 l 1,3,-1
 65 0 l 1,0,-1
137 235 m 1,4,-1
 379 510 l 1,5,-1
 526 510 l 1,6,-1
 315 276 l 1,7,-1
 306 275 l 1,8,-1
 172 131 l 1,9,-1
 137 235 l 1,4,-1
332 315 m 1,10,-1
 540 0 l 1,11,-1
 400 0 l 1,12,-1
 228 270 l 1,13,-1
 332 315 l 1,10,-1
EndSplineSet
Validated: 5
EndChar

StartChar: f_f_i
Encoding: 65617 -1 310
Width: 932
GlyphClass: 3
LigCaretCntFixed: 1
Flags: W
LayerCount: 2
Fore
SplineSet
104 0 m 1,0,-1
 104 559 l 2,1,2
 104 643 104 643 150 686.5 c 128,-1,3
 196 730 196 730 286 730 c 0,4,5
 307 730 307 730 320.5 728 c 128,-1,6
 334 726 334 726 347 722 c 1,7,-1
 347 618 l 1,8,9
 340 621 340 621 329.5 622.5 c 128,-1,10
 319 624 319 624 305 624 c 0,11,12
 266 624 266 624 247.5 605 c 128,-1,13
 229 586 229 586 229 550 c 2,14,-1
 229 0 l 1,15,-1
 104 0 l 1,0,-1
424 0 m 1,16,-1
 424 559 l 2,17,18
 424 643 424 643 470 686.5 c 128,-1,19
 516 730 516 730 606 730 c 0,20,21
 626 730 626 730 640 728 c 128,-1,22
 654 726 654 726 667 722 c 1,23,-1
 667 618 l 1,24,25
 660 621 660 621 649.5 622.5 c 128,-1,26
 639 624 639 624 625 624 c 0,27,28
 586 624 586 624 567.5 605 c 128,-1,29
 549 586 549 586 549 550 c 2,30,-1
 549 0 l 1,31,-1
 424 0 l 1,16,-1
744 0 m 1,32,-1
 744 510 l 1,33,-1
 869 510 l 1,34,-1
 869 0 l 1,35,-1
 744 0 l 1,32,-1
15 412 m 1,36,-1
 15 510 l 1,37,-1
 783 510 l 1,38,-1
 783 412 l 1,39,-1
 15 412 l 1,36,-1
742 587 m 1,40,-1
 742 720 l 1,41,-1
 872 720 l 1,42,-1
 872 587 l 1,43,-1
 742 587 l 1,40,-1
EndSplineSet
Validated: 5
Substitution2: "'ss01' Style Set 1 in Latin lookup 22 subtable" f_f_i.ss01
Ligature2: "'liga' Standard Ligatures in Latin lookup 21 subtable" f f i
Substitution2: "'aalt' Access All Alternates in Latin lookup 0 subtable" f_f_i.ss01
LCarets2: 2 311 621
EndChar

StartChar: f_f_l
Encoding: 65618 -1 311
Width: 935
GlyphClass: 3
LigCaretCntFixed: 1
Flags: W
LayerCount: 2
Fore
SplineSet
424 0 m 1,0,-1
 424 549 l 2,1,2
 424 633 424 633 470 676.5 c 128,-1,3
 516 720 516 720 608 720 c 2,4,-1
 806 720 l 1,5,-1
 806 614 l 1,6,-1
 626 614 l 2,7,8
 587 614 587 614 568 595 c 128,-1,9
 549 576 549 576 549 540 c 2,10,-1
 549 0 l 1,11,-1
 424 0 l 1,0,-1
104 0 m 1,12,-1
 104 549 l 2,13,14
 104 633 104 633 150 676.5 c 128,-1,15
 196 720 196 720 287 720 c 0,16,17
 307 720 307 720 321 718 c 128,-1,18
 335 716 335 716 348 712 c 1,19,-1
 348 608 l 1,20,21
 341 611 341 611 330.5 612.5 c 128,-1,22
 320 614 320 614 306 614 c 0,23,24
 267 614 267 614 248 595 c 128,-1,25
 229 576 229 576 229 540 c 2,26,-1
 229 0 l 1,27,-1
 104 0 l 1,12,-1
15 405 m 1,28,-1
 15 510 l 1,29,-1
 648 510 l 1,30,-1
 648 405 l 1,31,-1
 15 405 l 1,28,-1
744 0 m 1,32,-1
 744 720 l 1,33,-1
 869 720 l 1,34,-1
 869 0 l 1,35,-1
 744 0 l 1,32,-1
EndSplineSet
Validated: 5
Ligature2: "'liga' Standard Ligatures in Latin lookup 21 subtable" f f l
LCarets2: 2 312 623
EndChar

StartChar: f_i
Encoding: 65619 -1 312
Width: 599
GlyphClass: 3
LigCaretCntFixed: 1
Flags: W
AnchorPoint: "Anchor-5" 150 0 baselig 0
AnchorPoint: "Anchor-4" 150 740 baselig 0
AnchorPoint: "Anchor-5" 449 0 baselig 1
AnchorPoint: "Anchor-4" 449 740 baselig 1
LayerCount: 2
Fore
SplineSet
104 0 m 1,0,-1
 104 559 l 2,1,2
 104 643 104 643 150 686.5 c 128,-1,3
 196 730 196 730 286 730 c 0,4,5
 306 730 306 730 320 728 c 128,-1,6
 334 726 334 726 347 722 c 1,7,-1
 347 618 l 1,8,9
 340 621 340 621 329.5 622.5 c 128,-1,10
 319 624 319 624 305 624 c 0,11,12
 266 624 266 624 247.5 605 c 128,-1,13
 229 586 229 586 229 550 c 2,14,-1
 229 0 l 1,15,-1
 104 0 l 1,0,-1
424 0 m 1,16,-1
 424 510 l 1,17,-1
 549 510 l 1,18,-1
 549 0 l 1,19,-1
 424 0 l 1,16,-1
15 405 m 1,20,-1
 15 510 l 1,21,-1
 463 510 l 1,22,-1
 463 405 l 1,23,-1
 15 405 l 1,20,-1
422 587 m 1,24,-1
 422 720 l 1,25,-1
 552 720 l 1,26,-1
 552 587 l 1,27,-1
 422 587 l 1,24,-1
EndSplineSet
Validated: 5
Substitution2: "'ss01' Style Set 1 in Latin lookup 22 subtable" f_i.ss01
Ligature2: "'liga' Standard Ligatures in Latin lookup 21 subtable" f i
Substitution2: "'aalt' Access All Alternates in Latin lookup 0 subtable" f_i.ss01
LCarets2: 1 300
EndChar

StartChar: f_l
Encoding: 65620 -1 313
Width: 615
GlyphClass: 3
LigCaretCntFixed: 1
Flags: W
AnchorPoint: "Anchor-5" 154 0 baselig 0
AnchorPoint: "Anchor-4" 154 740 baselig 0
AnchorPoint: "Anchor-5" 461 0 baselig 1
AnchorPoint: "Anchor-4" 461 740 baselig 1
LayerCount: 2
Fore
SplineSet
104 0 m 1,0,-1
 104 549 l 2,1,2
 104 633 104 633 150 676.5 c 128,-1,3
 196 720 196 720 288 720 c 2,4,-1
 486 720 l 1,5,-1
 486 614 l 1,6,-1
 306 614 l 2,7,8
 267 614 267 614 248 595 c 128,-1,9
 229 576 229 576 229 540 c 2,10,-1
 229 0 l 1,11,-1
 104 0 l 1,0,-1
15 405 m 1,12,-1
 15 510 l 1,13,-1
 328 510 l 1,14,-1
 328 405 l 1,15,-1
 15 405 l 1,12,-1
424 0 m 1,16,-1
 424 720 l 1,17,-1
 549 720 l 1,18,-1
 549 0 l 1,19,-1
 424 0 l 1,16,-1
EndSplineSet
Validated: 5
Ligature2: "'liga' Standard Ligatures in Latin lookup 21 subtable" f l
LCarets2: 1 308
EndChar

StartChar: w_w_w.liga
Encoding: 65621 -1 314
Width: 2093
GlyphClass: 3
LigCaretCntFixed: 1
Flags: W
AnchorPoint: "Anchor-5" 349 0 baselig 0
AnchorPoint: "Anchor-4" 349 510 baselig 0
AnchorPoint: "Anchor-5" 1046 0 baselig 1
AnchorPoint: "Anchor-4" 1046 510 baselig 1
AnchorPoint: "Anchor-5" 1744 0 baselig 2
AnchorPoint: "Anchor-4" 1744 510 baselig 2
LayerCount: 2
Fore
SplineSet
169 0 m 1,0,-1
 17 510 l 1,1,-1
 148 510 l 1,2,-1
 237 127 l 1,3,-1
 228 127 l 1,4,-1
 338 510 l 1,5,-1
 453 510 l 1,6,-1
 564 127 l 1,7,-1
 555 127 l 1,8,-1
 665 510 l 1,9,-1
 779 510 l 1,10,-1
 890 127 l 1,11,-1
 881 127 l 1,12,-1
 991 510 l 1,13,-1
 1105 510 l 1,14,-1
 1217 127 l 1,15,-1
 1207 127 l 1,16,-1
 1318 510 l 1,17,-1
 1432 510 l 1,18,-1
 1543 127 l 1,19,-1
 1534 127 l 1,20,-1
 1644 510 l 1,21,-1
 1758 510 l 1,22,-1
 1870 127 l 1,23,-1
 1860 127 l 1,24,-1
 1949 510 l 1,25,-1
 2076 510 l 1,26,-1
 1923 0 l 1,27,-1
 1806 0 l 1,28,-1
 1695 379 l 1,29,-1
 1705 379 l 1,30,-1
 1593 0 l 1,31,-1
 1479 0 l 1,32,-1
 1368 379 l 1,33,-1
 1378 379 l 1,34,-1
 1266 0 l 1,35,-1
 1153 0 l 1,36,-1
 1042 379 l 1,37,-1
 1051 379 l 1,38,-1
 940 0 l 1,39,-1
 826 0 l 1,40,-1
 715 379 l 1,41,-1
 725 379 l 1,42,-1
 613 0 l 1,43,-1
 500 0 l 1,44,-1
 389 379 l 1,45,-1
 399 379 l 1,46,-1
 287 0 l 1,47,-1
 169 0 l 1,0,-1
EndSplineSet
Validated: 5
Ligature2: "'liga' Standard Ligatures in Latin lookup 21 subtable" w w w
LCarets2: 2 698 1395
EndChar

StartChar: f_f_i.ss01
Encoding: 65622 -1 315
Width: 929
GlyphClass: 3
LigCaretCntFixed: 1
Flags: W
AnchorPoint: "Anchor-5" 155 0 baselig 0
AnchorPoint: "Anchor-4" 155 740 baselig 0
AnchorPoint: "Anchor-5" 465 0 baselig 1
AnchorPoint: "Anchor-4" 465 740 baselig 1
AnchorPoint: "Anchor-5" 774 0 baselig 2
AnchorPoint: "Anchor-4" 774 740 baselig 2
LayerCount: 2
Fore
SplineSet
424 0 m 1,0,-1
 424 559 l 2,1,2
 424 643 424 643 470 686.5 c 128,-1,3
 516 730 516 730 606 730 c 0,4,5
 626 730 626 730 640 728 c 128,-1,6
 654 726 654 726 667 722 c 1,7,-1
 667 618 l 1,8,9
 660 621 660 621 649.5 622.5 c 128,-1,10
 639 624 639 624 625 624 c 0,11,12
 586 624 586 624 567.5 605 c 128,-1,13
 549 586 549 586 549 550 c 2,14,-1
 549 0 l 1,15,-1
 424 0 l 1,0,-1
104 0 m 1,16,-1
 104 559 l 2,17,18
 104 643 104 643 150 686.5 c 128,-1,19
 196 730 196 730 286 730 c 0,20,21
 307 730 307 730 320.5 728 c 128,-1,22
 334 726 334 726 347 722 c 1,23,-1
 347 618 l 1,24,25
 340 621 340 621 329.5 622.5 c 128,-1,26
 319 624 319 624 305 624 c 0,27,28
 266 624 266 624 247.5 605 c 128,-1,29
 229 586 229 586 229 550 c 2,30,-1
 229 0 l 1,31,-1
 104 0 l 1,16,-1
15 405 m 1,32,-1
 15 510 l 1,33,-1
 783 510 l 1,34,-1
 783 405 l 1,35,-1
 15 405 l 1,32,-1
744 0 m 1,36,-1
 744 510 l 1,37,-1
 869 510 l 1,38,-1
 869 0 l 1,39,-1
 744 0 l 1,36,-1
808 577 m 256,40,41
 777 577 777 577 754.5 599.5 c 128,-1,42
 732 622 732 622 732 653 c 0,43,44
 732 687 732 687 754.5 708 c 128,-1,45
 777 729 777 729 808 729 c 256,46,47
 839 729 839 729 860.5 708 c 128,-1,48
 882 687 882 687 882 653 c 0,49,50
 882 622 882 622 860.5 599.5 c 128,-1,51
 839 577 839 577 808 577 c 256,40,41
EndSplineSet
Validated: 5
LCarets2: 2 310 619
EndChar

StartChar: f_i.ss01
Encoding: 65623 -1 316
Width: 622
GlyphClass: 3
LigCaretCntFixed: 1
Flags: W
AnchorPoint: "Anchor-5" 156 0 baselig 0
AnchorPoint: "Anchor-4" 156 740 baselig 0
AnchorPoint: "Anchor-5" 466 0 baselig 1
AnchorPoint: "Anchor-4" 466 740 baselig 1
LayerCount: 2
Fore
SplineSet
104 0 m 1,0,-1
 104 559 l 2,1,2
 104 643 104 643 150 686.5 c 128,-1,3
 196 730 196 730 286 730 c 0,4,5
 306 730 306 730 320 728 c 128,-1,6
 334 726 334 726 347 722 c 1,7,-1
 347 618 l 1,8,9
 340 621 340 621 329.5 622.5 c 128,-1,10
 319 624 319 624 305 624 c 0,11,12
 266 624 266 624 247.5 605 c 128,-1,13
 229 586 229 586 229 550 c 2,14,-1
 229 0 l 1,15,-1
 104 0 l 1,0,-1
424 0 m 1,16,-1
 424 510 l 1,17,-1
 549 510 l 1,18,-1
 549 0 l 1,19,-1
 424 0 l 1,16,-1
488 578 m 256,20,21
 457 578 457 578 434.5 600 c 128,-1,22
 412 622 412 622 412 654 c 0,23,24
 412 688 412 688 434.5 709 c 128,-1,25
 457 730 457 730 488 730 c 256,26,27
 519 730 519 730 540.5 709 c 128,-1,28
 562 688 562 688 562 654 c 0,29,30
 562 622 562 622 540.5 600 c 128,-1,31
 519 578 519 578 488 578 c 256,20,21
15 405 m 1,32,-1
 15 510 l 1,33,-1
 463 510 l 1,34,-1
 463 405 l 1,35,-1
 15 405 l 1,32,-1
EndSplineSet
Validated: 5
LCarets2: 1 311
EndChar

StartChar: ordfeminine
Encoding: 170 170 317
Width: 367
Flags: W
LayerCount: 2
Fore
SplineSet
232 418 m 1,0,1
 229 430 229 430 227 445 c 128,-1,2
 225 460 225 460 225 480 c 1,3,-1
 224 480 l 1,4,-1
 224 621 l 2,5,6
 224 639 224 639 213 649.5 c 128,-1,7
 202 660 202 660 180 660 c 0,8,9
 161 660 161 660 149.5 652.5 c 128,-1,10
 138 645 138 645 134 634 c 1,11,-1
 48 634 l 1,12,13
 53 676 53 676 88 703 c 128,-1,14
 123 730 123 730 183 730 c 0,15,16
 246 730 246 730 279 701 c 128,-1,17
 312 672 312 672 312 618 c 2,18,-1
 312 480 l 2,19,20
 312 462 312 462 314.5 447.5 c 128,-1,21
 317 433 317 433 321 418 c 1,22,-1
 232 418 l 1,0,1
131 412 m 0,23,24
 89 412 89 412 64.5 435 c 128,-1,25
 40 458 40 458 40 496 c 0,26,27
 40 538 40 538 67 565 c 128,-1,28
 94 592 94 592 148 601 c 2,29,-1
 235 616 l 1,30,-1
 235 557 l 1,31,-1
 164 543 l 2,32,33
 146 540 146 540 137 532.5 c 128,-1,34
 128 525 128 525 128 511 c 256,35,36
 128 497 128 497 137.5 489.5 c 128,-1,37
 147 482 147 482 163 482 c 0,38,39
 188 482 188 482 206 497 c 128,-1,40
 224 512 224 512 224 531 c 1,41,-1
 231 480 l 1,42,43
 219 445 219 445 192 428.5 c 128,-1,44
 165 412 165 412 131 412 c 0,23,24
EndSplineSet
Validated: 5
EndChar

StartChar: ordmasculine
Encoding: 186 186 318
Width: 404
Flags: W
LayerCount: 2
Fore
SplineSet
202 412 m 0,0,1
 153 412 153 412 115.5 432.5 c 128,-1,2
 78 453 78 453 57 489 c 128,-1,3
 36 525 36 525 36 572 c 0,4,5
 36 643 36 643 81.5 686.5 c 128,-1,6
 127 730 127 730 202 730 c 256,7,8
 277 730 277 730 322 686.5 c 128,-1,9
 367 643 367 643 367 572 c 256,10,11
 367 501 367 501 321.5 456.5 c 128,-1,12
 276 412 276 412 202 412 c 0,0,1
202 488 m 0,13,14
 234 488 234 488 254 511.5 c 128,-1,15
 274 535 274 535 274 573 c 256,16,17
 274 611 274 611 254 632.5 c 128,-1,18
 234 654 234 654 202 654 c 0,19,20
 171 654 171 654 150 632 c 128,-1,21
 129 610 129 610 129 573 c 0,22,23
 129 534 129 534 150 511 c 128,-1,24
 171 488 171 488 202 488 c 0,13,14
EndSplineSet
Validated: 1
EndChar

StartChar: zero
Encoding: 48 48 319
Width: 661
Flags: W
LayerCount: 2
Fore
SplineSet
330 -10 m 0,0,1
 244 -10 244 -10 177.5 37 c 128,-1,2
 111 84 111 84 73.5 168 c 128,-1,3
 36 252 36 252 36 363 c 256,4,5
 36 474 36 474 73.5 556 c 128,-1,6
 111 638 111 638 177.5 684 c 128,-1,7
 244 730 244 730 330 730 c 0,8,9
 417 730 417 730 483 684 c 128,-1,10
 549 638 549 638 586.5 556 c 128,-1,11
 624 474 624 474 624 363 c 0,12,13
 624 251 624 251 586.5 167.5 c 128,-1,14
 549 84 549 84 483 37 c 128,-1,15
 417 -10 417 -10 330 -10 c 0,0,1
330 98 m 0,16,17
 382 98 382 98 417 132 c 128,-1,18
 452 166 452 166 470 226 c 128,-1,19
 488 286 488 286 488 364 c 0,20,21
 488 441 488 441 470.5 499.5 c 128,-1,22
 453 558 453 558 418 590 c 128,-1,23
 383 622 383 622 330 622 c 0,24,25
 278 622 278 622 243 589.5 c 128,-1,26
 208 557 208 557 190.5 499 c 128,-1,27
 173 441 173 441 173 364 c 0,28,29
 173 286 173 286 190.5 225.5 c 128,-1,30
 208 165 208 165 243.5 131.5 c 128,-1,31
 279 98 279 98 330 98 c 0,16,17
EndSplineSet
Validated: 1
Substitution2: "'tnum' Tabular Numbers in Latin lookup 19 subtable" zero.tf
Substitution2: "'aalt' Access All Alternates in Latin lookup 0 subtable" zero.tf
EndChar

StartChar: one
Encoding: 49 49 320
Width: 382
Flags: W
LayerCount: 2
Fore
SplineSet
195 0 m 1,0,-1
 195 608 l 1,1,-1
 214 594 l 1,2,3
 17 465 l 1,4,-1
 17 590 l 5,5,-1
 217 720 l 1,6,-1
 321 720 l 1,7,-1
 321 0 l 1,8,-1
 195 0 l 1,0,-1
EndSplineSet
Validated: 5
Substitution2: "'tnum' Tabular Numbers in Latin lookup 19 subtable" one.tf
Substitution2: "'aalt' Access All Alternates in Latin lookup 0 subtable" one.tf
EndChar

StartChar: two
Encoding: 50 50 321
Width: 545
Flags: W
LayerCount: 2
Fore
SplineSet
31 0 m 1,0,-1
 31 101 l 1,1,2
 129 185 129 185 195.5 247 c 128,-1,3
 262 309 262 309 302 357 c 128,-1,4
 342 405 342 405 359 444.5 c 128,-1,5
 376 484 376 484 376 523 c 0,6,7
 376 573 376 573 349 600.5 c 128,-1,8
 322 628 322 628 274 628 c 0,9,10
 223 628 223 628 191.5 597.5 c 128,-1,11
 160 567 160 567 153 511 c 1,12,-1
 23 511 l 1,13,14
 33 612 33 612 101.5 671 c 128,-1,15
 170 730 170 730 280 730 c 0,16,17
 389 730 389 730 451 673 c 128,-1,18
 513 616 513 616 513 516 c 0,19,20
 513 466 513 466 495.5 418 c 128,-1,21
 478 370 478 370 438.5 317.5 c 128,-1,22
 399 265 399 265 333 203 c 128,-1,23
 267 141 267 141 170 62 c 1,24,-1
 139 102 l 1,25,-1
 525 102 l 1,26,-1
 525 0 l 1,27,-1
 31 0 l 1,0,-1
EndSplineSet
Validated: 5
Substitution2: "'ss10' Style Set 10 in Latin lookup 31 subtable" two.ss10
Substitution2: "'tnum' Tabular Numbers in Latin lookup 19 subtable" two.tf
AlternateSubs2: "'aalt' Access All Alternates in Latin lookup 1 subtable" two.ss10 two.tf
EndChar

StartChar: three
Encoding: 51 51 322
Width: 567
Flags: W
LayerCount: 2
Fore
SplineSet
291 -10 m 0,0,1
 217 -10 217 -10 160 17 c 128,-1,2
 103 44 103 44 67.5 97 c 128,-1,3
 32 150 32 150 26 225 c 1,4,-1
 155 225 l 1,5,6
 163 158 163 158 197 125 c 128,-1,7
 231 92 231 92 287 92 c 0,8,9
 338 92 338 92 369.5 121.5 c 128,-1,10
 401 151 401 151 401 205 c 256,11,12
 401 259 401 259 370 292.5 c 128,-1,13
 339 326 339 326 274 326 c 2,14,-1
 203 326 l 1,15,-1
 203 426 l 1,16,-1
 271 426 l 2,17,18
 329 426 329 426 357 454.5 c 128,-1,19
 385 483 385 483 385 529 c 256,20,21
 385 575 385 575 360 601.5 c 128,-1,22
 335 628 335 628 284 628 c 0,23,24
 238 628 238 628 204.5 599.5 c 128,-1,25
 171 571 171 571 165 514 c 1,26,-1
 35 514 l 1,27,28
 42 581 42 581 74.5 629 c 128,-1,29
 107 677 107 677 162 703.5 c 128,-1,30
 217 730 217 730 289 730 c 0,31,32
 359 730 359 730 411 706.5 c 128,-1,33
 463 683 463 683 492 640.5 c 128,-1,34
 521 598 521 598 521 539 c 0,35,36
 521 489 521 489 498 450.5 c 128,-1,37
 475 412 475 412 439.5 390.5 c 128,-1,38
 404 369 404 369 363 369 c 1,39,-1
 361 390 l 1,40,41
 415 390 415 390 455 364.5 c 128,-1,42
 495 339 495 339 516.5 296 c 128,-1,43
 538 253 538 253 538 199 c 0,44,45
 538 135 538 135 506 88 c 128,-1,46
 474 41 474 41 418 15.5 c 128,-1,47
 362 -10 362 -10 291 -10 c 0,0,1
EndSplineSet
Validated: 5
Substitution2: "'tnum' Tabular Numbers in Latin lookup 19 subtable" three.tf
Substitution2: "'aalt' Access All Alternates in Latin lookup 0 subtable" three.tf
EndChar

StartChar: four
Encoding: 52 52 323
Width: 600
Flags: W
LayerCount: 2
Fore
SplineSet
368 0 m 1,0,-1
 368 189 l 1,1,-1
 374 209 l 1,2,-1
 374 617 l 1,3,-1
 423 597 l 1,4,-1
 137 203 l 1,5,-1
 85 247 l 1,6,-1
 577 247 l 1,7,-1
 577 145 l 1,8,-1
 26 145 l 1,9,-1
 26 244 l 1,10,-1
 372 720 l 1,11,-1
 500 720 l 1,12,-1
 500 0 l 1,13,-1
 368 0 l 1,0,-1
EndSplineSet
Validated: 5
Substitution2: "'tnum' Tabular Numbers in Latin lookup 19 subtable" four.tf
Substitution2: "'aalt' Access All Alternates in Latin lookup 0 subtable" four.tf
EndChar

StartChar: five
Encoding: 53 53 324
Width: 570
Flags: W
LayerCount: 2
Fore
SplineSet
287 -10 m 0,0,1
 179 -10 179 -10 112 47.5 c 128,-1,2
 45 105 45 105 30 205 c 1,3,-1
 160 205 l 1,4,5
 169 151 169 151 203 121.5 c 128,-1,6
 237 92 237 92 284 92 c 0,7,8
 336 92 336 92 368.5 127 c 128,-1,9
 401 162 401 162 401 235 c 0,10,11
 401 307 401 307 369.5 344 c 128,-1,12
 338 381 338 381 285 381 c 0,13,14
 251 381 251 381 224 366 c 128,-1,15
 197 351 197 351 183 323 c 1,16,-1
 67 323 l 1,17,-1
 101 720 l 1,18,-1
 496 720 l 1,19,-1
 496 618 l 1,20,-1
 153 618 l 1,21,-1
 216 638 l 1,22,-1
 198 391 l 1,23,-1
 159 397 l 1,24,25
 181 433 181 433 218.5 454 c 128,-1,26
 256 475 256 475 313 475 c 0,27,28
 380 475 380 475 430.5 445.5 c 128,-1,29
 481 416 481 416 509.5 362.5 c 128,-1,30
 538 309 538 309 538 234 c 0,31,32
 538 157 538 157 507 102.5 c 128,-1,33
 476 48 476 48 419.5 19 c 128,-1,34
 363 -10 363 -10 287 -10 c 0,0,1
EndSplineSet
Validated: 5
Substitution2: "'tnum' Tabular Numbers in Latin lookup 19 subtable" five.tf
Substitution2: "'aalt' Access All Alternates in Latin lookup 0 subtable" five.tf
EndChar

StartChar: six
Encoding: 54 54 325
Width: 602
Flags: W
LayerCount: 2
Fore
SplineSet
316 -10 m 0,0,1
 182 -10 182 -10 109 82 c 128,-1,2
 36 174 36 174 36 346 c 0,3,4
 36 467 36 467 71 552.5 c 128,-1,5
 106 638 106 638 171 684 c 128,-1,6
 236 730 236 730 324 730 c 0,7,8
 423 730 423 730 486 675.5 c 128,-1,9
 549 621 549 621 562 525 c 1,10,-1
 433 525 l 1,11,12
 427 575 427 575 397.5 601.5 c 128,-1,13
 368 628 368 628 323 628 c 0,14,15
 247 628 247 628 209 561 c 128,-1,16
 171 494 171 494 171 354 c 2,17,-1
 171 292 l 1,18,-1
 143 301 l 1,19,20
 154 348 154 348 182 382.5 c 128,-1,21
 210 417 210 417 252.5 435.5 c 128,-1,22
 295 454 295 454 346 454 c 0,23,24
 414 454 414 454 465 425 c 128,-1,25
 516 396 516 396 544.5 344.5 c 128,-1,26
 573 293 573 293 573 224 c 0,27,28
 573 153 573 153 541 100.5 c 128,-1,29
 509 48 509 48 451.5 19 c 128,-1,30
 394 -10 394 -10 316 -10 c 0,0,1
310 92 m 0,31,32
 365 92 365 92 400.5 126 c 128,-1,33
 436 160 436 160 436 223 c 0,34,35
 436 287 436 287 400 321 c 128,-1,36
 364 355 364 355 308 355 c 0,37,38
 251 355 251 355 213 322 c 128,-1,39
 175 289 175 289 175 227 c 0,40,41
 175 186 175 186 193 155.5 c 128,-1,42
 211 125 211 125 241.5 108.5 c 128,-1,43
 272 92 272 92 310 92 c 0,31,32
EndSplineSet
Validated: 5
Substitution2: "'tnum' Tabular Numbers in Latin lookup 19 subtable" six.tf
Substitution2: "'aalt' Access All Alternates in Latin lookup 0 subtable" six.tf
EndChar

StartChar: seven
Encoding: 55 55 326
Width: 548
Flags: W
LayerCount: 2
Fore
SplineSet
150 0 m 1,0,1
 164 172 164 172 230.5 333 c 128,-1,2
 297 494 297 494 410 641 c 1,3,-1
 416 618 l 1,4,-1
 23 618 l 1,5,-1
 23 720 l 1,6,-1
 528 720 l 1,7,-1
 528 627 l 1,8,9
 458 525 458 525 407.5 423.5 c 128,-1,10
 357 322 357 322 327.5 217.5 c 128,-1,11
 298 113 298 113 290 0 c 1,12,-1
 150 0 l 1,0,1
EndSplineSet
Validated: 5
Substitution2: "'tnum' Tabular Numbers in Latin lookup 19 subtable" seven.tf
Substitution2: "'aalt' Access All Alternates in Latin lookup 0 subtable" seven.tf
EndChar

StartChar: eight
Encoding: 56 56 327
Width: 586
Flags: W
LayerCount: 2
Fore
SplineSet
293 -10 m 0,0,1
 215 -10 215 -10 156.5 17 c 128,-1,2
 98 44 98 44 65.5 91.5 c 128,-1,3
 33 139 33 139 33 201 c 0,4,5
 33 255 33 255 56.5 298 c 128,-1,6
 80 341 80 341 121 365.5 c 128,-1,7
 162 390 162 390 215 390 c 1,8,-1
 226 369 l 1,9,10
 172 369 172 369 133 389.5 c 128,-1,11
 94 410 94 410 73 448 c 128,-1,12
 52 486 52 486 52 535 c 0,13,14
 52 593 52 593 82 637 c 128,-1,15
 112 681 112 681 166 705.5 c 128,-1,16
 220 730 220 730 293 730 c 256,17,18
 366 730 366 730 420 705.5 c 128,-1,19
 474 681 474 681 504 637 c 128,-1,20
 534 593 534 593 534 535 c 0,21,22
 534 486 534 486 513 448.5 c 128,-1,23
 492 411 492 411 453 390 c 128,-1,24
 414 369 414 369 359 369 c 1,25,-1
 371 390 l 1,26,27
 424 390 424 390 465 365.5 c 128,-1,28
 506 341 506 341 529.5 298 c 128,-1,29
 553 255 553 255 553 200 c 0,30,31
 553 138 553 138 520.5 90.5 c 128,-1,32
 488 43 488 43 430 16.5 c 128,-1,33
 372 -10 372 -10 293 -10 c 0,0,1
293 92 m 0,34,35
 351 92 351 92 383.5 123.5 c 128,-1,36
 416 155 416 155 416 211 c 0,37,38
 416 266 416 266 382.5 297 c 128,-1,39
 349 328 349 328 293 328 c 0,40,41
 236 328 236 328 202.5 297 c 128,-1,42
 169 266 169 266 169 211 c 0,43,44
 169 155 169 155 202.5 123.5 c 128,-1,45
 236 92 236 92 293 92 c 0,34,35
293 423 m 0,46,47
 341 423 341 423 370 450.5 c 128,-1,48
 399 478 399 478 399 525 c 0,49,50
 399 573 399 573 369.5 600.5 c 128,-1,51
 340 628 340 628 292 628 c 0,52,53
 245 628 245 628 216 600.5 c 128,-1,54
 187 573 187 573 187 525 c 0,55,56
 187 478 187 478 216.5 450.5 c 128,-1,57
 246 423 246 423 293 423 c 0,46,47
EndSplineSet
Validated: 5
Substitution2: "'tnum' Tabular Numbers in Latin lookup 19 subtable" eight.tf
Substitution2: "'aalt' Access All Alternates in Latin lookup 0 subtable" eight.tf
EndChar

StartChar: nine
Encoding: 57 57 328
Width: 606
Flags: W
LayerCount: 2
Fore
SplineSet
285 -10 m 0,0,1
 214 -10 214 -10 162 17 c 128,-1,2
 110 44 110 44 79.5 93.5 c 128,-1,3
 49 143 49 143 41 212 c 1,4,-1
 170 212 l 1,5,6
 177 150 177 150 207 121 c 128,-1,7
 237 92 237 92 289 92 c 0,8,9
 326 92 326 92 352 107.5 c 128,-1,10
 378 123 378 123 394.5 155.5 c 128,-1,11
 411 188 411 188 418.5 240 c 128,-1,12
 426 292 426 292 426 366 c 2,13,-1
 426 428 l 1,14,-1
 460 427 l 1,15,16
 450 380 450 380 421.5 345.5 c 128,-1,17
 393 311 393 311 351 292.5 c 128,-1,18
 309 274 309 274 256 274 c 0,19,20
 189 274 189 274 138.5 302.5 c 128,-1,21
 88 331 88 331 59 382 c 128,-1,22
 30 433 30 433 30 499 c 0,23,24
 30 569 30 569 62.5 620.5 c 128,-1,25
 95 672 95 672 153 701 c 128,-1,26
 211 730 211 730 287 730 c 0,27,28
 423 730 423 730 495 637.5 c 128,-1,29
 567 545 567 545 567 368 c 0,30,31
 567 248 567 248 534 163 c 128,-1,32
 501 78 501 78 438 34 c 128,-1,33
 375 -10 375 -10 285 -10 c 0,0,1
296 373 m 0,34,35
 354 373 354 373 387 406 c 128,-1,36
 420 439 420 439 420 495 c 0,37,38
 420 533 420 533 405 563.5 c 128,-1,39
 390 594 390 594 362 611 c 128,-1,40
 334 628 334 628 294 628 c 0,41,42
 237 628 237 628 204.5 592.5 c 128,-1,43
 172 557 172 557 172 500 c 0,44,45
 172 444 172 444 204.5 408.5 c 128,-1,46
 237 373 237 373 296 373 c 0,34,35
EndSplineSet
Validated: 5
Substitution2: "'tnum' Tabular Numbers in Latin lookup 19 subtable" nine.tf
Substitution2: "'aalt' Access All Alternates in Latin lookup 0 subtable" nine.tf
EndChar

StartChar: two.ss10
Encoding: 65624 -1 329
Width: 545
Flags: W
LayerCount: 2
Fore
SplineSet
31 0 m 1,0,-1
 31 76 l 2,1,2
 31 140 31 140 55.5 186.5 c 128,-1,3
 80 233 80 233 119.5 267.5 c 128,-1,4
 159 302 159 302 203.5 331 c 128,-1,5
 248 360 248 360 287 388 c 128,-1,6
 326 416 326 416 351 449 c 128,-1,7
 376 482 376 482 376 525 c 0,8,9
 376 575 376 575 348 601.5 c 128,-1,10
 320 628 320 628 275 628 c 0,11,12
 226 628 226 628 193 597.5 c 128,-1,13
 160 567 160 567 153 511 c 1,14,-1
 23 511 l 1,15,16
 33 612 33 612 101.5 671 c 128,-1,17
 170 730 170 730 279 730 c 0,18,19
 386 730 386 730 449.5 674.5 c 128,-1,20
 513 619 513 619 513 518 c 0,21,22
 513 465 513 465 492 424 c 128,-1,23
 471 383 471 383 437.5 351 c 128,-1,24
 404 319 404 319 364.5 292 c 128,-1,25
 325 265 325 265 286 240.5 c 128,-1,26
 247 216 247 216 216 189.5 c 128,-1,27
 185 163 185 163 168.5 132.5 c 128,-1,28
 152 102 152 102 157 63 c 1,29,-1
 139 102 l 1,30,-1
 525 102 l 1,31,-1
 525 0 l 1,32,-1
 31 0 l 1,0,-1
EndSplineSet
Validated: 37
EndChar

StartChar: zero.tf
Encoding: 65625 -1 330
Width: 592
Flags: W
LayerCount: 2
Fore
SplineSet
296 -10 m 0,0,1
 215 -10 215 -10 153 37.5 c 128,-1,2
 91 85 91 85 55.5 168.5 c 128,-1,3
 20 252 20 252 20 363 c 256,4,5
 20 474 20 474 55.5 556 c 128,-1,6
 91 638 91 638 153.5 684 c 128,-1,7
 216 730 216 730 296 730 c 0,8,9
 377 730 377 730 439 684 c 128,-1,10
 501 638 501 638 536.5 556 c 128,-1,11
 572 474 572 474 572 363 c 256,12,13
 572 252 572 252 536 168 c 128,-1,14
 500 84 500 84 438 37 c 128,-1,15
 376 -10 376 -10 296 -10 c 0,0,1
296 98 m 256,16,17
 341 98 341 98 371 132 c 128,-1,18
 401 166 401 166 416 226.5 c 128,-1,19
 431 287 431 287 431 364 c 256,20,21
 431 441 431 441 416 499 c 128,-1,22
 401 557 401 557 371.5 589.5 c 128,-1,23
 342 622 342 622 296 622 c 256,24,25
 250 622 250 622 220 589.5 c 128,-1,26
 190 557 190 557 175 499 c 128,-1,27
 160 441 160 441 160 364 c 0,28,29
 160 286 160 286 175 225.5 c 128,-1,30
 190 165 190 165 220.5 131.5 c 128,-1,31
 251 98 251 98 296 98 c 256,16,17
EndSplineSet
Validated: 1
Substitution2: "'pnum' Proportional Numbers in Latin lookup 18 subtable" zero
Substitution2: "'aalt' Access All Alternates in Latin lookup 0 subtable" zero
EndChar

StartChar: one.tf
Encoding: 65626 -1 331
Width: 592
Flags: W
LayerCount: 2
Fore
SplineSet
278 30 m 1,0,-1
 278 608 l 1,1,-1
 295 594 l 1,2,3
 280 563 280 563 254.5 537 c 128,-1,4
 229 511 229 511 194.5 492 c 128,-1,5
 160 473 160 473 118 465 c 1,6,-1
 118 590 l 1,7,8
 154 597 154 597 190 616.5 c 128,-1,9
 226 636 226 636 255 663.5 c 128,-1,10
 284 691 284 691 298 720 c 1,11,-1
 408 720 l 1,12,-1
 408 30 l 1,13,-1
 278 30 l 1,0,-1
111 0 m 1,14,-1
 111 102 l 1,15,-1
 547 102 l 1,16,-1
 547 0 l 1,17,-1
 111 0 l 1,14,-1
EndSplineSet
Validated: 5
Substitution2: "'pnum' Proportional Numbers in Latin lookup 18 subtable" one
Substitution2: "'aalt' Access All Alternates in Latin lookup 0 subtable" one
EndChar

StartChar: two.tf
Encoding: 65627 -1 332
Width: 592
Flags: W
LayerCount: 2
Fore
SplineSet
66 0 m 1,0,-1
 66 101 l 1,1,2
 159 185 159 185 219.5 247.5 c 128,-1,3
 280 310 280 310 315 359.5 c 128,-1,4
 350 409 350 409 364 450 c 128,-1,5
 378 491 378 491 378 529 c 0,6,7
 378 577 378 577 357.5 602.5 c 128,-1,8
 337 628 337 628 295 628 c 0,9,10
 250 628 250 628 224.5 597.5 c 128,-1,11
 199 567 199 567 193 511 c 1,12,-1
 59 511 l 1,13,14
 68 612 68 612 132.5 671 c 128,-1,15
 197 730 197 730 301 730 c 0,16,17
 403 730 403 730 461 673 c 128,-1,18
 519 616 519 616 519 516 c 0,19,20
 519 466 519 466 502.5 418 c 128,-1,21
 486 370 486 370 449 317.5 c 128,-1,22
 412 265 412 265 350 203 c 128,-1,23
 288 141 288 141 196 62 c 1,24,-1
 168 102 l 1,25,-1
 532 102 l 1,26,-1
 532 0 l 1,27,-1
 66 0 l 1,0,-1
EndSplineSet
Validated: 5
Substitution2: "'ss10' Style Set 10 in Latin lookup 31 subtable" two.tf.ss10
Substitution2: "'pnum' Proportional Numbers in Latin lookup 18 subtable" two
AlternateSubs2: "'aalt' Access All Alternates in Latin lookup 1 subtable" two two.tf.ss10
EndChar

StartChar: three.tf
Encoding: 65628 -1 333
Width: 592
Flags: W
LayerCount: 2
Fore
SplineSet
303 -10 m 0,0,1
 234 -10 234 -10 180 17 c 128,-1,2
 126 44 126 44 93.5 97 c 128,-1,3
 61 150 61 150 55 225 c 1,4,-1
 188 225 l 1,5,6
 195 161 195 161 222 126.5 c 128,-1,7
 249 92 249 92 298 92 c 0,8,9
 339 92 339 92 366.5 121.5 c 128,-1,10
 394 151 394 151 394 205 c 256,11,12
 394 259 394 259 367.5 292.5 c 128,-1,13
 341 326 341 326 280 326 c 2,14,-1
 220 326 l 1,15,-1
 220 426 l 1,16,-1
 277 426 l 2,17,18
 330 426 330 426 354.5 454.5 c 128,-1,19
 379 483 379 483 379 529 c 0,20,21
 379 574 379 574 359.5 601 c 128,-1,22
 340 628 340 628 296 628 c 0,23,24
 258 628 258 628 230 599.5 c 128,-1,25
 202 571 202 571 196 514 c 1,26,-1
 63 514 l 1,27,28
 70 581 70 581 100.5 629 c 128,-1,29
 131 677 131 677 182 703.5 c 128,-1,30
 233 730 233 730 301 730 c 0,31,32
 368 730 368 730 417 706.5 c 128,-1,33
 466 683 466 683 493 640.5 c 128,-1,34
 520 598 520 598 520 539 c 0,35,36
 520 489 520 489 499 450.5 c 128,-1,37
 478 412 478 412 446 390.5 c 128,-1,38
 414 369 414 369 379 369 c 1,39,-1
 378 390 l 1,40,41
 428 390 428 390 462.5 364.5 c 128,-1,42
 497 339 497 339 516 296 c 128,-1,43
 535 253 535 253 535 199 c 0,44,45
 535 135 535 135 505 88 c 128,-1,46
 475 41 475 41 422.5 15.5 c 128,-1,47
 370 -10 370 -10 303 -10 c 0,0,1
EndSplineSet
Validated: 5
Substitution2: "'pnum' Proportional Numbers in Latin lookup 18 subtable" three
Substitution2: "'aalt' Access All Alternates in Latin lookup 0 subtable" three
EndChar

StartChar: four.tf
Encoding: 65629 -1 334
Width: 592
Flags: W
LayerCount: 2
Fore
SplineSet
352 0 m 1,0,-1
 352 189 l 1,1,-1
 358 209 l 1,2,-1
 358 617 l 1,3,-1
 410 597 l 1,4,-1
 150 203 l 1,5,-1
 92 247 l 1,6,-1
 554 247 l 1,7,-1
 554 145 l 1,8,-1
 38 145 l 1,9,-1
 38 244 l 1,10,-1
 355 720 l 1,11,-1
 487 720 l 1,12,-1
 487 0 l 1,13,-1
 352 0 l 1,0,-1
EndSplineSet
Validated: 5
Substitution2: "'pnum' Proportional Numbers in Latin lookup 18 subtable" four
Substitution2: "'aalt' Access All Alternates in Latin lookup 0 subtable" four
EndChar

StartChar: five.tf
Encoding: 65630 -1 335
Width: 592
Flags: W
LayerCount: 2
Fore
SplineSet
298 -10 m 0,0,1
 198 -10 198 -10 134.5 47.5 c 128,-1,2
 71 105 71 105 57 205 c 1,3,-1
 190 205 l 1,4,5
 196 151 196 151 226 121.5 c 128,-1,6
 256 92 256 92 295 92 c 0,7,8
 338 92 338 92 365 127 c 128,-1,9
 392 162 392 162 392 235 c 0,10,11
 392 307 392 307 366.5 344 c 128,-1,12
 341 381 341 381 297 381 c 0,13,14
 271 381 271 381 248 366 c 128,-1,15
 225 351 225 351 212 323 c 1,16,-1
 91 323 l 1,17,-1
 123 720 l 1,18,-1
 494 720 l 1,19,-1
 494 618 l 1,20,-1
 172 618 l 1,21,-1
 242 638 l 1,22,-1
 226 391 l 1,23,-1
 183 397 l 1,24,25
 206 433 206 433 240 454 c 128,-1,26
 274 475 274 475 325 475 c 0,27,28
 387 475 387 475 434 445.5 c 128,-1,29
 481 416 481 416 507 362.5 c 128,-1,30
 533 309 533 309 533 234 c 0,31,32
 533 157 533 157 503.5 102.5 c 128,-1,33
 474 48 474 48 421.5 19 c 128,-1,34
 369 -10 369 -10 298 -10 c 0,0,1
EndSplineSet
Validated: 5
Substitution2: "'pnum' Proportional Numbers in Latin lookup 18 subtable" five
Substitution2: "'aalt' Access All Alternates in Latin lookup 0 subtable" five
EndChar

StartChar: six.tf
Encoding: 65631 -1 336
Width: 592
Flags: W
LayerCount: 2
Fore
SplineSet
309 -10 m 0,0,1
 183 -10 183 -10 114.5 82.5 c 128,-1,2
 46 175 46 175 46 346 c 0,3,4
 46 466 46 466 79 551.5 c 128,-1,5
 112 637 112 637 173 683.5 c 128,-1,6
 234 730 234 730 318 730 c 0,7,8
 411 730 411 730 470.5 675.5 c 128,-1,9
 530 621 530 621 543 525 c 1,10,-1
 410 525 l 1,11,12
 405 575 405 575 379.5 601.5 c 128,-1,13
 354 628 354 628 317 628 c 0,14,15
 250 628 250 628 217.5 560.5 c 128,-1,16
 185 493 185 493 185 354 c 2,17,-1
 185 292 l 1,18,-1
 157 301 l 1,19,20
 167 348 167 348 192.5 382.5 c 128,-1,21
 218 417 218 417 256 435.5 c 128,-1,22
 294 454 294 454 341 454 c 0,23,24
 404 454 404 454 451.5 425 c 128,-1,25
 499 396 499 396 525.5 344.5 c 128,-1,26
 552 293 552 293 552 224 c 0,27,28
 552 153 552 153 522 100.5 c 128,-1,29
 492 48 492 48 437.5 19 c 128,-1,30
 383 -10 383 -10 309 -10 c 0,0,1
301 92 m 0,31,32
 348 92 348 92 379 126 c 128,-1,33
 410 160 410 160 410 223 c 0,34,35
 410 287 410 287 378.5 321 c 128,-1,36
 347 355 347 355 299 355 c 256,37,38
 251 355 251 355 218 322 c 128,-1,39
 185 289 185 289 185 227 c 0,40,41
 185 186 185 186 201 155.5 c 128,-1,42
 217 125 217 125 243.5 108.5 c 128,-1,43
 270 92 270 92 301 92 c 0,31,32
EndSplineSet
Validated: 5
Substitution2: "'pnum' Proportional Numbers in Latin lookup 18 subtable" six
Substitution2: "'aalt' Access All Alternates in Latin lookup 0 subtable" six
EndChar

StartChar: seven.tf
Encoding: 65632 -1 337
Width: 592
Flags: W
LayerCount: 2
Fore
SplineSet
172 0 m 1,0,1
 186 172 186 172 247.5 332.5 c 128,-1,2
 309 493 309 493 408 641 c 1,3,-1
 414 618 l 1,4,-1
 59 618 l 1,5,-1
 59 720 l 1,6,-1
 532 720 l 1,7,-1
 532 627 l 1,8,9
 440 474 440 474 384 321 c 128,-1,10
 328 168 328 168 316 0 c 1,11,-1
 172 0 l 1,0,1
EndSplineSet
Validated: 5
Substitution2: "'pnum' Proportional Numbers in Latin lookup 18 subtable" seven
Substitution2: "'aalt' Access All Alternates in Latin lookup 0 subtable" seven
EndChar

StartChar: eight.tf
Encoding: 65633 -1 338
Width: 592
Flags: W
LayerCount: 2
Fore
SplineSet
297 -10 m 256,0,1
 224 -10 224 -10 168.5 17 c 128,-1,2
 113 44 113 44 82 91.5 c 128,-1,3
 51 139 51 139 51 201 c 0,4,5
 51 255 51 255 72.5 298 c 128,-1,6
 94 341 94 341 132 365.5 c 128,-1,7
 170 390 170 390 220 390 c 1,8,-1
 233 369 l 1,9,10
 181 369 181 369 144 389.5 c 128,-1,11
 107 410 107 410 88 448 c 128,-1,12
 69 486 69 486 69 535 c 0,13,14
 69 593 69 593 97 637 c 128,-1,15
 125 681 125 681 176 705.5 c 128,-1,16
 227 730 227 730 296 730 c 0,17,18
 366 730 366 730 416.5 705.5 c 128,-1,19
 467 681 467 681 495 637 c 128,-1,20
 523 593 523 593 523 535 c 0,21,22
 523 486 523 486 503.5 448.5 c 128,-1,23
 484 411 484 411 447.5 390 c 128,-1,24
 411 369 411 369 358 369 c 1,25,-1
 372 390 l 1,26,27
 422 390 422 390 460 365.5 c 128,-1,28
 498 341 498 341 519.5 298 c 128,-1,29
 541 255 541 255 541 200 c 0,30,31
 541 138 541 138 510.5 90.5 c 128,-1,32
 480 43 480 43 425 16.5 c 128,-1,33
 370 -10 370 -10 297 -10 c 256,0,1
296 92 m 0,34,35
 344 92 344 92 372 124 c 128,-1,36
 400 156 400 156 400 211 c 256,37,38
 400 266 400 266 371.5 297 c 128,-1,39
 343 328 343 328 296 328 c 256,40,41
 249 328 249 328 220.5 297 c 128,-1,42
 192 266 192 266 192 211 c 0,43,44
 192 155 192 155 219.5 123.5 c 128,-1,45
 247 92 247 92 296 92 c 0,34,35
296 423 m 0,46,47
 335 423 335 423 359 450.5 c 128,-1,48
 383 478 383 478 383 525 c 0,49,50
 383 573 383 573 359 600.5 c 128,-1,51
 335 628 335 628 295 628 c 0,52,53
 257 628 257 628 233 600 c 128,-1,54
 209 572 209 572 209 525 c 0,55,56
 209 479 209 479 233.5 451 c 128,-1,57
 258 423 258 423 296 423 c 0,46,47
EndSplineSet
Validated: 5
Substitution2: "'pnum' Proportional Numbers in Latin lookup 18 subtable" eight
Substitution2: "'aalt' Access All Alternates in Latin lookup 0 subtable" eight
EndChar

StartChar: nine.tf
Encoding: 65634 -1 339
Width: 592
Flags: W
LayerCount: 2
Fore
SplineSet
278 -10 m 0,0,1
 211 -10 211 -10 162 17 c 128,-1,2
 113 44 113 44 84.5 93.5 c 128,-1,3
 56 143 56 143 49 212 c 1,4,-1
 181 212 l 1,5,6
 187 149 187 149 213 120.5 c 128,-1,7
 239 92 239 92 283 92 c 0,8,9
 316 92 316 92 338 107.5 c 128,-1,10
 360 123 360 123 374 155.5 c 128,-1,11
 388 188 388 188 393.5 240.5 c 128,-1,12
 399 293 399 293 399 366 c 2,13,-1
 399 428 l 1,14,-1
 435 427 l 1,15,16
 425 379 425 379 399 344.5 c 128,-1,17
 373 310 373 310 335 292 c 128,-1,18
 297 274 297 274 249 274 c 0,19,20
 187 274 187 274 140 302.5 c 128,-1,21
 93 331 93 331 66 382 c 128,-1,22
 39 433 39 433 39 499 c 0,23,24
 39 569 39 569 69.5 620.5 c 128,-1,25
 100 672 100 672 154.5 701 c 128,-1,26
 209 730 209 730 282 730 c 0,27,28
 410 730 410 730 478 637.5 c 128,-1,29
 546 545 546 545 546 368 c 0,30,31
 546 248 546 248 514.5 163 c 128,-1,32
 483 78 483 78 423.5 34 c 128,-1,33
 364 -10 364 -10 278 -10 c 0,0,1
292 373 m 0,34,35
 343 373 343 373 369.5 406 c 128,-1,36
 396 439 396 439 396 495 c 0,37,38
 396 553 396 553 369.5 590.5 c 128,-1,39
 343 628 343 628 292 628 c 0,40,41
 242 628 242 628 214 592.5 c 128,-1,42
 186 557 186 557 186 500 c 0,43,44
 186 444 186 444 214 408.5 c 128,-1,45
 242 373 242 373 292 373 c 0,34,35
EndSplineSet
Validated: 5
Substitution2: "'pnum' Proportional Numbers in Latin lookup 18 subtable" nine
Substitution2: "'aalt' Access All Alternates in Latin lookup 0 subtable" nine
EndChar

StartChar: two.tf.ss10
Encoding: 65635 -1 340
Width: 592
Flags: W
LayerCount: 2
Fore
SplineSet
67 0 m 1,0,-1
 67 76 l 2,1,2
 67 140 67 140 89.5 186.5 c 128,-1,3
 112 233 112 233 147.5 268 c 128,-1,4
 183 303 183 303 222.5 332 c 128,-1,5
 262 361 262 361 297.5 390 c 128,-1,6
 333 419 333 419 355.5 453 c 128,-1,7
 378 487 378 487 378 531 c 0,8,9
 378 577 378 577 356.5 602.5 c 128,-1,10
 335 628 335 628 295 628 c 0,11,12
 253 628 253 628 225.5 599.5 c 128,-1,13
 198 571 198 571 193 511 c 1,14,-1
 59 511 l 1,15,16
 69 612 69 612 132.5 671 c 128,-1,17
 196 730 196 730 298 730 c 256,18,19
 400 730 400 730 459.5 675.5 c 128,-1,20
 519 621 519 621 519 525 c 0,21,22
 519 470 519 470 500.5 428 c 128,-1,23
 482 386 482 386 451 353 c 128,-1,24
 420 320 420 320 384 293 c 128,-1,25
 348 266 348 266 313 241 c 128,-1,26
 278 216 278 216 249.5 189.5 c 128,-1,27
 221 163 221 163 206.5 132.5 c 128,-1,28
 192 102 192 102 198 63 c 1,29,-1
 180 102 l 1,30,-1
 532 102 l 1,31,-1
 532 0 l 1,32,-1
 67 0 l 1,0,-1
EndSplineSet
Validated: 37
EndChar

StartChar: hyphen_greater.liga
Encoding: 65636 -1 343
Width: 833
GlyphClass: 3
LigCaretCntFixed: 1
Flags: W
LayerCount: 2
Fore
SplineSet
60 418 m 1,0,-1
 695 418 l 1,1,-1
 625 368 l 1,2,-1
 291 702 l 1,3,-1
 450 702 l 1,4,-1
 790 360 l 1,5,-1
 450 18 l 1,6,-1
 291 18 l 1,7,-1
 625 352 l 1,8,-1
 695 302 l 1,9,-1
 60 302 l 1,10,-1
 60 418 l 1,0,-1
EndSplineSet
Validated: 5
Ligature2: "'liga' Standard Ligatures in Latin lookup 21 subtable" hyphen greater
LCarets2: 1 417
EndChar

StartChar: period
Encoding: 46 46 344
Width: 271
Flags: W
LayerCount: 2
Fore
SplineSet
64 0 m 1,0,-1
 64 144 l 1,1,-1
 208 144 l 1,2,-1
 208 0 l 1,3,-1
 64 0 l 1,0,-1
EndSplineSet
Validated: 1
Substitution2: "'ss01' Style Set 1 in Latin lookup 22 subtable" period.ss01
Substitution2: "'aalt' Access All Alternates in Latin lookup 0 subtable" period.ss01
EndChar

StartChar: comma
Encoding: 44 44 345
Width: 271
Flags: WO
LayerCount: 2
Fore
SplineSet
127 -119 m 5,0,-1
 36 -119 l 1,1,-1
 96 128 l 1,2,-1
 232 128 l 5,3,-1
 127 -119 l 5,0,-1
EndSplineSet
Substitution2: "'ss01' Style Set 1 in Latin lookup 22 subtable" comma.ss01
Substitution2: "'aalt' Access All Alternates in Latin lookup 0 subtable" comma.ss01
EndChar

StartChar: exclam
Encoding: 33 33 349
Width: 291
Flags: W
LayerCount: 2
Fore
SplineSet
95 251 m 1,0,-1
 76 740 l 1,1,-1
 215 740 l 1,2,-1
 196 251 l 1,3,-1
 95 251 l 1,0,-1
74 0 m 1,4,-1
 74 144 l 1,5,-1
 218 144 l 1,6,-1
 218 0 l 1,7,-1
 74 0 l 1,4,-1
EndSplineSet
Validated: 1
Substitution2: "'ss01' Style Set 1 in Latin lookup 22 subtable" exclam.ss01
Substitution2: "'case' Case-Sensitive Forms in Latin lookup 20 subtable" exclam.case
AlternateSubs2: "'aalt' Access All Alternates in Latin lookup 1 subtable" exclam.case exclam.ss01
EndChar

StartChar: exclamdown
Encoding: 161 161 350
Width: 291
Flags: W
LayerCount: 2
Fore
SplineSet
76 -205 m 1,0,-1
 95 259 l 1,1,-1
 196 259 l 1,2,-1
 215 -205 l 1,3,-1
 76 -205 l 1,0,-1
218 510 m 1,4,-1
 218 366 l 1,5,-1
 74 366 l 1,6,-1
 74 510 l 1,7,-1
 218 510 l 1,4,-1
EndSplineSet
Validated: 1
Substitution2: "'ss01' Style Set 1 in Latin lookup 22 subtable" exclamdown.ss01
Substitution2: "'case' Case-Sensitive Forms in Latin lookup 20 subtable" exclamdown.case
AlternateSubs2: "'aalt' Access All Alternates in Latin lookup 1 subtable" exclamdown.case exclamdown.ss01
EndChar

StartChar: question
Encoding: 63 63 351
Width: 566
Flags: W
LayerCount: 2
Fore
SplineSet
231 251 m 1,0,1
 231 302 231 302 244 336.5 c 128,-1,2
 257 371 257 371 277.5 395 c 128,-1,3
 298 419 298 419 320.5 437.5 c 128,-1,4
 343 456 343 456 363.5 473 c 128,-1,5
 384 490 384 490 397 510.5 c 128,-1,6
 410 531 410 531 410 559 c 0,7,8
 410 601 410 601 380.5 624.5 c 128,-1,9
 351 648 351 648 299 648 c 0,10,11
 240 648 240 648 202.5 618.5 c 128,-1,12
 165 589 165 589 157 533 c 1,13,-1
 33 533 l 1,14,15
 42 599 42 599 77 648 c 128,-1,16
 112 697 112 697 169.5 723.5 c 128,-1,17
 227 750 227 750 301 750 c 0,18,19
 373 750 373 750 426 726.5 c 128,-1,20
 479 703 479 703 509 660 c 128,-1,21
 539 617 539 617 539 560 c 0,22,23
 539 517 539 517 525.5 487 c 128,-1,24
 512 457 512 457 491 435 c 128,-1,25
 470 413 470 413 445.5 395 c 128,-1,26
 421 377 421 377 400 357 c 128,-1,27
 379 337 379 337 365.5 312 c 128,-1,28
 352 287 352 287 352 251 c 1,29,-1
 231 251 l 1,0,1
220 0 m 1,30,-1
 220 144 l 1,31,-1
 364 144 l 1,32,-1
 364 0 l 1,33,-1
 220 0 l 1,30,-1
EndSplineSet
Validated: 1
Substitution2: "'ss01' Style Set 1 in Latin lookup 22 subtable" question.ss01
Substitution2: "'case' Case-Sensitive Forms in Latin lookup 20 subtable" question.case
AlternateSubs2: "'aalt' Access All Alternates in Latin lookup 1 subtable" question.case question.ss01
EndChar

StartChar: questiondown
Encoding: 191 191 352
Width: 566
Flags: W
LayerCount: 2
Fore
SplineSet
265 -215 m 0,0,1
 195 -215 195 -215 141.5 -192.5 c 128,-1,2
 88 -170 88 -170 57.5 -129 c 128,-1,3
 27 -88 27 -88 27 -34 c 0,4,5
 27 9 27 9 40.5 38.5 c 128,-1,6
 54 68 54 68 75 89.5 c 128,-1,7
 96 111 96 111 120.5 128 c 128,-1,8
 145 145 145 145 166 163 c 128,-1,9
 187 181 187 181 200.5 204 c 128,-1,10
 214 227 214 227 214 259 c 1,11,-1
 335 259 l 1,12,13
 335 211 335 211 322.5 179 c 128,-1,14
 310 147 310 147 289.5 125 c 128,-1,15
 269 103 269 103 246 86 c 128,-1,16
 223 69 223 69 202.5 53 c 128,-1,17
 182 37 182 37 169.5 17 c 128,-1,18
 157 -3 157 -3 157 -32 c 0,19,20
 157 -69 157 -69 187.5 -91 c 128,-1,21
 218 -113 218 -113 272 -113 c 0,22,23
 325 -113 325 -113 363.5 -88.5 c 128,-1,24
 402 -64 402 -64 409 -16 c 1,25,-1
 533 -16 l 1,26,27
 525 -78 525 -78 489 -122.5 c 128,-1,28
 453 -167 453 -167 395.5 -191 c 128,-1,29
 338 -215 338 -215 265 -215 c 0,0,1
346 510 m 1,30,-1
 346 366 l 1,31,-1
 203 366 l 1,32,-1
 203 510 l 1,33,-1
 346 510 l 1,30,-1
EndSplineSet
Validated: 1
Substitution2: "'ss01' Style Set 1 in Latin lookup 22 subtable" questiondown.ss01
Substitution2: "'case' Case-Sensitive Forms in Latin lookup 20 subtable" questiondown.case
AlternateSubs2: "'aalt' Access All Alternates in Latin lookup 1 subtable" questiondown.case questiondown.ss01
EndChar

StartChar: bullet
Encoding: 8226 8226 354
Width: 332
Flags: W
LayerCount: 2
Fore
SplineSet
64 263 m 1,0,-1
 64 468 l 1,1,-1
 269 468 l 1,2,-1
 269 263 l 1,3,-1
 64 263 l 1,0,-1
EndSplineSet
Validated: 1
Substitution2: "'ss01' Style Set 1 in Latin lookup 22 subtable" bullet.ss01
Substitution2: "'case' Case-Sensitive Forms in Latin lookup 20 subtable" bullet.case
AlternateSubs2: "'aalt' Access All Alternates in Latin lookup 1 subtable" bullet.case bullet.ss01
EndChar

StartChar: asterisk
Encoding: 42 42 355
Width: 427
Flags: W
LayerCount: 2
Fore
SplineSet
160 417 m 1,0,-1
 185 530 l 1,1,-1
 97 452 l 1,2,-1
 43 544 l 1,3,-1
 156 579 l 1,4,-1
 43 614 l 1,5,-1
 97 706 l 1,6,-1
 185 628 l 1,7,-1
 160 740 l 1,8,-1
 268 740 l 1,9,-1
 243 628 l 1,10,-1
 331 706 l 1,11,-1
 385 614 l 1,12,-1
 272 579 l 1,13,-1
 385 544 l 1,14,-1
 331 452 l 1,15,-1
 243 530 l 1,16,-1
 268 417 l 1,17,-1
 160 417 l 1,0,-1
EndSplineSet
Validated: 1
EndChar

StartChar: numbersign
Encoding: 35 35 356
Width: 706
Flags: W
LayerCount: 2
Fore
SplineSet
126 0 m 1,0,-1
 226 720 l 1,1,-1
 335 720 l 1,2,-1
 235 0 l 1,3,-1
 126 0 l 1,0,-1
371 0 m 1,4,-1
 471 720 l 1,5,-1
 580 720 l 1,6,-1
 480 0 l 1,7,-1
 371 0 l 1,4,-1
59 532 m 1,8,-1
 673 532 l 1,9,-1
 673 429 l 1,10,-1
 59 429 l 1,11,-1
 59 532 l 1,8,-1
34 301 m 1,12,-1
 648 301 l 1,13,-1
 648 198 l 1,14,-1
 34 198 l 1,15,-1
 34 301 l 1,12,-1
EndSplineSet
Validated: 5
EndChar

StartChar: slash
Encoding: 47 47 357
Width: 432
Flags: W
LayerCount: 2
Fore
SplineSet
37 -73 m 1,0,-1
 286 763 l 1,1,-1
 395 763 l 1,2,-1
 146 -73 l 1,3,-1
 37 -73 l 1,0,-1
EndSplineSet
Validated: 1
EndChar

StartChar: backslash
Encoding: 92 92 358
Width: 432
Flags: W
LayerCount: 2
Fore
SplineSet
37 763 m 1,0,-1
 146 763 l 1,1,-1
 395 -73 l 1,2,-1
 286 -73 l 1,3,-1
 37 763 l 1,0,-1
EndSplineSet
Validated: 1
EndChar

StartChar: exclam.case
Encoding: 65639 -1 361
Width: 291
Flags: W
LayerCount: 2
Fore
SplineSet
95 251 m 1,0,-1
 76 720 l 1,1,-1
 215 720 l 1,2,-1
 196 251 l 1,3,-1
 95 251 l 1,0,-1
74 0 m 1,4,-1
 74 144 l 1,5,-1
 218 144 l 1,6,-1
 218 0 l 1,7,-1
 74 0 l 1,4,-1
EndSplineSet
Validated: 1
EndChar

StartChar: exclamdown.case
Encoding: 65640 -1 362
Width: 291
Flags: W
LayerCount: 2
Fore
SplineSet
76 0 m 1,0,-1
 95 469 l 1,1,-1
 196 469 l 1,2,-1
 215 0 l 1,3,-1
 76 0 l 1,0,-1
218 720 m 1,4,-1
 218 576 l 1,5,-1
 74 576 l 1,6,-1
 74 720 l 1,7,-1
 218 720 l 1,4,-1
EndSplineSet
Validated: 1
EndChar

StartChar: question.case
Encoding: 65641 -1 363
Width: 566
Flags: W
LayerCount: 2
Fore
SplineSet
231 251 m 1,0,1
 231 299 231 299 244 332 c 128,-1,2
 257 365 257 365 277.5 388 c 128,-1,3
 298 411 298 411 320.5 429 c 128,-1,4
 343 447 343 447 363.5 463.5 c 128,-1,5
 384 480 384 480 397 500.5 c 128,-1,6
 410 521 410 521 410 549 c 0,7,8
 410 583 410 583 381.5 605.5 c 128,-1,9
 353 628 353 628 299 628 c 0,10,11
 240 628 240 628 202.5 598.5 c 128,-1,12
 165 569 165 569 157 513 c 1,13,-1
 33 513 l 1,14,15
 42 579 42 579 77 628 c 128,-1,16
 112 677 112 677 169.5 703.5 c 128,-1,17
 227 730 227 730 301 730 c 0,18,19
 374 730 374 730 427 707 c 128,-1,20
 480 684 480 684 509.5 643 c 128,-1,21
 539 602 539 602 539 550 c 0,22,23
 539 507 539 507 525.5 477 c 128,-1,24
 512 447 512 447 491 425.5 c 128,-1,25
 470 404 470 404 445.5 386 c 128,-1,26
 421 368 421 368 400 349.5 c 128,-1,27
 379 331 379 331 365.5 308 c 128,-1,28
 352 285 352 285 352 251 c 1,29,-1
 231 251 l 1,0,1
220 0 m 1,30,-1
 220 144 l 1,31,-1
 364 144 l 1,32,-1
 364 0 l 1,33,-1
 220 0 l 1,30,-1
EndSplineSet
Validated: 1
EndChar

StartChar: questiondown.case
Encoding: 65642 -1 364
Width: 566
Flags: W
LayerCount: 2
Fore
SplineSet
265 -10 m 0,0,1
 195 -10 195 -10 141.5 12.5 c 128,-1,2
 88 35 88 35 57.5 76.5 c 128,-1,3
 27 118 27 118 27 173 c 0,4,5
 27 217 27 217 40.5 247 c 128,-1,6
 54 277 54 277 75 298.5 c 128,-1,7
 96 320 96 320 120.5 337.5 c 128,-1,8
 145 355 145 355 166 372.5 c 128,-1,9
 187 390 187 390 200.5 413.5 c 128,-1,10
 214 437 214 437 214 469 c 1,11,-1
 335 469 l 1,12,13
 335 421 335 421 322.5 389 c 128,-1,14
 310 357 310 357 289.5 335 c 128,-1,15
 269 313 269 313 246 296 c 128,-1,16
 223 279 223 279 202.5 263 c 128,-1,17
 182 247 182 247 169.5 227 c 128,-1,18
 157 207 157 207 157 178 c 0,19,20
 157 137 157 137 187.5 114.5 c 128,-1,21
 218 92 218 92 272 92 c 0,22,23
 325 92 325 92 363.5 116.5 c 128,-1,24
 402 141 402 141 409 189 c 1,25,-1
 533 189 l 1,26,27
 525 127 525 127 489 82.5 c 128,-1,28
 453 38 453 38 395.5 14 c 128,-1,29
 338 -10 338 -10 265 -10 c 0,0,1
346 720 m 1,30,-1
 346 576 l 1,31,-1
 203 576 l 1,32,-1
 203 720 l 1,33,-1
 346 720 l 1,30,-1
EndSplineSet
Validated: 1
EndChar

StartChar: bullet.case
Encoding: 65643 -1 365
Width: 705
Flags: W
LayerCount: 2
Fore
SplineSet
64 90 m 1,0,-1
 64 667 l 1,1,-1
 641 667 l 1,2,-1
 641 90 l 1,3,-1
 64 90 l 1,0,-1
EndSplineSet
Validated: 1
Substitution2: "'ss01' Style Set 1 in Latin lookup 22 subtable" bullet.case.ss01
Substitution2: "'aalt' Access All Alternates in Latin lookup 0 subtable" bullet.case.ss01
EndChar

StartChar: period.ss01
Encoding: 65645 -1 367
Width: 271
Flags: W
LayerCount: 2
Fore
SplineSet
136 -10 m 0,0,1
 102 -10 102 -10 78.5 12.5 c 128,-1,2
 55 35 55 35 55 71 c 0,3,4
 55 106 55 106 78.5 128.5 c 128,-1,5
 102 151 102 151 136 151 c 0,6,7
 168 151 168 151 192 128.5 c 128,-1,8
 216 106 216 106 216 71 c 0,9,10
 216 34 216 34 192 12 c 128,-1,11
 168 -10 168 -10 136 -10 c 0,0,1
EndSplineSet
Validated: 1
EndChar

StartChar: comma.ss01
Encoding: 65646 -1 368
Width: 271
Flags: W
LayerCount: 2
Fore
SplineSet
71 -159 m 1,0,-1
 71 -97 l 1,1,2
 107 -84 107 -84 125.5 -58.5 c 128,-1,3
 144 -33 144 -33 144 12 c 1,4,-1
 184 12 l 1,5,6
 175 4 175 4 161.5 -1 c 128,-1,7
 148 -6 148 -6 136 -6 c 0,8,9
 101 -6 101 -6 78 16 c 128,-1,10
 55 38 55 38 55 72 c 0,11,12
 55 108 55 108 78.5 129.5 c 128,-1,13
 102 151 102 151 133 151 c 0,14,15
 167 151 167 151 191.5 124.5 c 128,-1,16
 216 98 216 98 216 39 c 0,17,18
 216 -35 216 -35 177.5 -87.5 c 128,-1,19
 139 -140 139 -140 71 -159 c 1,0,-1
EndSplineSet
Validated: 5
EndChar

StartChar: exclam.ss01
Encoding: 65650 -1 372
Width: 291
Flags: W
LayerCount: 2
Fore
SplineSet
95 251 m 1,0,-1
 76 740 l 1,1,-1
 215 740 l 1,2,-1
 196 251 l 1,3,-1
 95 251 l 1,0,-1
146 -10 m 0,4,5
 112 -10 112 -10 88.5 12.5 c 128,-1,6
 65 35 65 35 65 71 c 0,7,8
 65 106 65 106 88.5 128.5 c 128,-1,9
 112 151 112 151 146 151 c 0,10,11
 178 151 178 151 202 128.5 c 128,-1,12
 226 106 226 106 226 71 c 0,13,14
 226 34 226 34 202 12 c 128,-1,15
 178 -10 178 -10 146 -10 c 0,4,5
EndSplineSet
Validated: 1
EndChar

StartChar: exclamdown.ss01
Encoding: 65651 -1 373
Width: 308
Flags: W
LayerCount: 2
Fore
SplineSet
84 -205 m 1,0,-1
 103 259 l 1,1,-1
 204 259 l 1,2,-1
 223 -205 l 1,3,-1
 84 -205 l 1,0,-1
153 520 m 0,4,5
 188 520 188 520 211 497.5 c 128,-1,6
 234 475 234 475 234 439 c 0,7,8
 234 404 234 404 211 381.5 c 128,-1,9
 188 359 188 359 153 359 c 0,10,11
 123 359 123 359 98 381.5 c 128,-1,12
 73 404 73 404 73 439 c 0,13,14
 73 476 73 476 98 498 c 128,-1,15
 123 520 123 520 153 520 c 0,4,5
EndSplineSet
Validated: 1
EndChar

StartChar: question.ss01
Encoding: 65652 -1 374
Width: 566
Flags: W
LayerCount: 2
Fore
SplineSet
231 251 m 1,0,1
 231 302 231 302 244 336.5 c 128,-1,2
 257 371 257 371 277.5 395 c 128,-1,3
 298 419 298 419 320.5 437.5 c 128,-1,4
 343 456 343 456 363.5 473 c 128,-1,5
 384 490 384 490 397 510.5 c 128,-1,6
 410 531 410 531 410 559 c 0,7,8
 410 601 410 601 380.5 624.5 c 128,-1,9
 351 648 351 648 299 648 c 0,10,11
 240 648 240 648 202.5 618.5 c 128,-1,12
 165 589 165 589 157 533 c 1,13,-1
 33 533 l 1,14,15
 42 599 42 599 77 648 c 128,-1,16
 112 697 112 697 169.5 723.5 c 128,-1,17
 227 750 227 750 301 750 c 0,18,19
 373 750 373 750 426 726.5 c 128,-1,20
 479 703 479 703 509 660 c 128,-1,21
 539 617 539 617 539 560 c 0,22,23
 539 517 539 517 525.5 487 c 128,-1,24
 512 457 512 457 491 435 c 128,-1,25
 470 413 470 413 445.5 395 c 128,-1,26
 421 377 421 377 400 357 c 128,-1,27
 379 337 379 337 365.5 312 c 128,-1,28
 352 287 352 287 352 251 c 1,29,-1
 231 251 l 1,0,1
292 -10 m 0,30,31
 258 -10 258 -10 234.5 12 c 128,-1,32
 211 34 211 34 211 71 c 0,33,34
 211 106 211 106 234.5 128.5 c 128,-1,35
 258 151 258 151 292 151 c 0,36,37
 324 151 324 151 348 128.5 c 128,-1,38
 372 106 372 106 372 71 c 0,39,40
 372 34 372 34 348 12 c 128,-1,41
 324 -10 324 -10 292 -10 c 0,30,31
EndSplineSet
Validated: 1
EndChar

StartChar: questiondown.ss01
Encoding: 65653 -1 375
Width: 566
Flags: W
LayerCount: 2
Fore
SplineSet
265 -215 m 0,0,1
 195 -215 195 -215 141.5 -192.5 c 128,-1,2
 88 -170 88 -170 57.5 -129 c 128,-1,3
 27 -88 27 -88 27 -34 c 0,4,5
 27 9 27 9 40.5 38.5 c 128,-1,6
 54 68 54 68 75 89.5 c 128,-1,7
 96 111 96 111 120.5 128 c 128,-1,8
 145 145 145 145 166 163 c 128,-1,9
 187 181 187 181 200.5 204 c 128,-1,10
 214 227 214 227 214 259 c 1,11,-1
 335 259 l 1,12,13
 335 211 335 211 322.5 179 c 128,-1,14
 310 147 310 147 289.5 125 c 128,-1,15
 269 103 269 103 246 86 c 128,-1,16
 223 69 223 69 202.5 53 c 128,-1,17
 182 37 182 37 169.5 17 c 128,-1,18
 157 -3 157 -3 157 -32 c 0,19,20
 157 -69 157 -69 187.5 -91 c 128,-1,21
 218 -113 218 -113 272 -113 c 0,22,23
 325 -113 325 -113 363.5 -88.5 c 128,-1,24
 402 -64 402 -64 409 -16 c 1,25,-1
 533 -16 l 1,26,27
 525 -78 525 -78 489 -122.5 c 128,-1,28
 453 -167 453 -167 395.5 -191 c 128,-1,29
 338 -215 338 -215 265 -215 c 0,0,1
274 520 m 0,30,31
 308 520 308 520 331.5 498 c 128,-1,32
 355 476 355 476 355 439 c 0,33,34
 355 404 355 404 331.5 381.5 c 128,-1,35
 308 359 308 359 274 359 c 0,36,37
 243 359 243 359 218.5 381.5 c 128,-1,38
 194 404 194 404 194 439 c 0,39,40
 194 476 194 476 218.5 498 c 128,-1,41
 243 520 243 520 274 520 c 0,30,31
EndSplineSet
Validated: 1
EndChar

StartChar: bullet.ss01
Encoding: 65655 -1 377
Width: 357
Flags: W
LayerCount: 2
Fore
SplineSet
179 249 m 0,0,1
 131 249 131 249 97.5 280.5 c 128,-1,2
 64 312 64 312 64 364 c 0,3,4
 64 413 64 413 97.5 445.5 c 128,-1,5
 131 478 131 478 179 478 c 0,6,7
 224 478 224 478 258.5 445.5 c 128,-1,8
 293 413 293 413 293 364 c 0,9,10
 293 312 293 312 258.5 280.5 c 128,-1,11
 224 249 224 249 179 249 c 0,0,1
EndSplineSet
Validated: 1
EndChar

StartChar: bullet.case.ss01
Encoding: 65657 -1 379
Width: 774
Flags: W
LayerCount: 2
Fore
SplineSet
389 48 m 0,0,1
 252 48 252 48 158 137 c 128,-1,2
 64 226 64 226 64 373 c 0,3,4
 64 512 64 512 158 603 c 128,-1,5
 252 694 252 694 389 694 c 0,6,7
 515 694 515 694 612.5 603 c 128,-1,8
 710 512 710 512 710 373 c 0,9,10
 710 226 710 226 612.5 137 c 128,-1,11
 515 48 515 48 389 48 c 0,0,1
EndSplineSet
Validated: 1
EndChar

StartChar: hyphen
Encoding: 45 45 381
Width: 481
Flags: W
LayerCount: 2
Fore
SplineSet
65 219 m 1,0,-1
 65 325 l 1,1,-1
 416 325 l 1,2,-1
 416 219 l 1,3,-1
 65 219 l 1,0,-1
EndSplineSet
Validated: 1
Substitution2: "'case' Case-Sensitive Forms in Latin lookup 20 subtable" hyphen.case
Substitution2: "'aalt' Access All Alternates in Latin lookup 0 subtable" hyphen.case
EndChar

StartChar: endash
Encoding: 8211 8211 382
Width: 587
Flags: W
LayerCount: 2
Fore
SplineSet
65 224 m 1,0,-1
 65 320 l 1,1,-1
 522 320 l 1,2,-1
 522 224 l 1,3,-1
 65 224 l 1,0,-1
EndSplineSet
Validated: 1
Substitution2: "'case' Case-Sensitive Forms in Latin lookup 20 subtable" endash.case
Substitution2: "'aalt' Access All Alternates in Latin lookup 0 subtable" endash.case
EndChar

StartChar: emdash
Encoding: 8212 8212 383
Width: 879
Flags: W
LayerCount: 2
Fore
SplineSet
65 224 m 1,0,-1
 65 320 l 1,1,-1
 813 320 l 1,2,-1
 813 224 l 1,3,-1
 65 224 l 1,0,-1
EndSplineSet
Validated: 1
Substitution2: "'case' Case-Sensitive Forms in Latin lookup 20 subtable" emdash.case
Substitution2: "'aalt' Access All Alternates in Latin lookup 0 subtable" emdash.case
EndChar

StartChar: hyphen.case
Encoding: 65659 -1 385
Width: 481
Flags: W
LayerCount: 2
Fore
SplineSet
65 307 m 1,0,-1
 65 413 l 1,1,-1
 416 413 l 1,2,-1
 416 307 l 1,3,-1
 65 307 l 1,0,-1
EndSplineSet
Validated: 1
EndChar

StartChar: endash.case
Encoding: 65660 -1 386
Width: 587
Flags: W
LayerCount: 2
Fore
SplineSet
65 312 m 1,0,-1
 65 408 l 1,1,-1
 522 408 l 1,2,-1
 522 312 l 1,3,-1
 65 312 l 1,0,-1
EndSplineSet
Validated: 1
EndChar

StartChar: emdash.case
Encoding: 65661 -1 387
Width: 879
Flags: W
LayerCount: 2
Fore
SplineSet
65 312 m 1,0,-1
 65 408 l 1,1,-1
 813 408 l 1,2,-1
 813 312 l 1,3,-1
 65 312 l 1,0,-1
EndSplineSet
Validated: 1
EndChar

StartChar: parenleft
Encoding: 40 40 388
Width: 433
Flags: W
LayerCount: 2
Fore
SplineSet
268 -110 m 1,0,1
 168 -16 168 -16 120.5 94.5 c 128,-1,2
 73 205 73 205 73 320 c 0,3,4
 73 433 73 433 121 544 c 128,-1,5
 169 655 169 655 268 750 c 1,6,-1
 390 750 l 1,7,8
 291 655 291 655 241.5 547.5 c 128,-1,9
 192 440 192 440 192 320 c 0,10,11
 192 199 192 199 243 91.5 c 128,-1,12
 294 -16 294 -16 390 -110 c 1,13,-1
 268 -110 l 1,0,1
EndSplineSet
Validated: 1
Substitution2: "'case' Case-Sensitive Forms in Latin lookup 20 subtable" parenleft.case
Substitution2: "'aalt' Access All Alternates in Latin lookup 0 subtable" parenleft.case
EndChar

StartChar: parenright
Encoding: 41 41 389
Width: 433
Flags: W
LayerCount: 2
Fore
SplineSet
165 754 m 1,0,1
 265 660 265 660 312.5 549.5 c 128,-1,2
 360 439 360 439 360 324 c 0,3,4
 360 211 360 211 312 99.5 c 128,-1,5
 264 -12 264 -12 165 -106 c 1,6,-1
 43 -106 l 1,7,8
 142 -12 142 -12 191.5 95.5 c 128,-1,9
 241 203 241 203 241 324 c 256,10,11
 241 445 241 445 190 552.5 c 128,-1,12
 139 660 139 660 43 754 c 1,13,-1
 165 754 l 1,0,1
EndSplineSet
Validated: 1
Substitution2: "'case' Case-Sensitive Forms in Latin lookup 20 subtable" parenright.case
Substitution2: "'aalt' Access All Alternates in Latin lookup 0 subtable" parenright.case
EndChar

StartChar: braceleft
Encoding: 123 123 390
Width: 433
Flags: W
LayerCount: 2
Fore
SplineSet
286 -108 m 2,0,1
 218 -108 218 -108 178 -84.5 c 128,-1,2
 138 -61 138 -61 124.5 -21 c 128,-1,3
 111 19 111 19 121 70 c 2,4,-1
 143 173 l 2,5,6
 154 224 154 224 136 247.5 c 128,-1,7
 118 271 118 271 70 271 c 2,8,-1
 33 271 l 1,9,-1
 33 371 l 1,10,-1
 70 371 l 2,11,12
 118 371 118 371 136 395 c 128,-1,13
 154 419 154 419 143 469 c 2,14,-1
 121 572 l 2,15,16
 111 623 111 623 124.5 663 c 128,-1,17
 138 703 138 703 178 726.5 c 128,-1,18
 218 750 218 750 286 750 c 2,19,-1
 380 750 l 1,20,-1
 380 651 l 1,21,-1
 294 651 l 2,22,23
 259 651 259 651 243 630 c 128,-1,24
 227 609 227 609 236 572 c 2,25,-1
 259 473 l 2,26,27
 274 414 274 414 251.5 375 c 128,-1,28
 229 336 229 336 182 321 c 1,29,30
 229 306 229 306 251.5 267 c 128,-1,31
 274 228 274 228 259 169 c 2,32,-1
 236 70 l 2,33,34
 227 33 227 33 243 12 c 128,-1,35
 259 -9 259 -9 294 -9 c 2,36,-1
 380 -9 l 1,37,-1
 380 -108 l 1,38,-1
 286 -108 l 2,0,1
EndSplineSet
Validated: 33
Substitution2: "'case' Case-Sensitive Forms in Latin lookup 20 subtable" braceleft.case
Substitution2: "'aalt' Access All Alternates in Latin lookup 0 subtable" braceleft.case
EndChar

StartChar: braceright
Encoding: 125 125 391
Width: 433
Flags: W
LayerCount: 2
Fore
SplineSet
147 750 m 2,0,1
 215 750 215 750 255 726.5 c 128,-1,2
 295 703 295 703 309 663 c 128,-1,3
 323 623 323 623 312 572 c 2,4,-1
 290 469 l 2,5,6
 279 419 279 419 297 395 c 128,-1,7
 315 371 315 371 363 371 c 2,8,-1
 400 371 l 1,9,-1
 400 271 l 1,10,-1
 363 271 l 2,11,12
 315 271 315 271 297 247.5 c 128,-1,13
 279 224 279 224 290 173 c 2,14,-1
 312 70 l 2,15,16
 323 19 323 19 309 -21 c 128,-1,17
 295 -61 295 -61 255 -84.5 c 128,-1,18
 215 -108 215 -108 147 -108 c 2,19,-1
 53 -108 l 1,20,-1
 53 -9 l 1,21,-1
 139 -9 l 2,22,23
 174 -9 174 -9 190 12 c 128,-1,24
 206 33 206 33 197 70 c 2,25,-1
 174 169 l 2,26,27
 159 228 159 228 181.5 267 c 128,-1,28
 204 306 204 306 251 321 c 1,29,30
 204 336 204 336 181.5 375 c 128,-1,31
 159 414 159 414 174 473 c 2,32,-1
 197 572 l 2,33,34
 206 609 206 609 190 630 c 128,-1,35
 174 651 174 651 139 651 c 2,36,-1
 53 651 l 1,37,-1
 53 750 l 1,38,-1
 147 750 l 2,0,1
EndSplineSet
Validated: 33
Substitution2: "'case' Case-Sensitive Forms in Latin lookup 20 subtable" braceright.case
Substitution2: "'aalt' Access All Alternates in Latin lookup 0 subtable" braceright.case
EndChar

StartChar: bracketleft
Encoding: 91 91 392
Width: 433
Flags: W
LayerCount: 2
Fore
SplineSet
83 -108 m 1,0,-1
 83 750 l 1,1,-1
 380 750 l 1,2,-1
 380 651 l 1,3,-1
 201 651 l 1,4,-1
 201 -9 l 1,5,-1
 380 -9 l 1,6,-1
 380 -108 l 1,7,-1
 83 -108 l 1,0,-1
EndSplineSet
Validated: 1
Substitution2: "'case' Case-Sensitive Forms in Latin lookup 20 subtable" bracketleft.case
Substitution2: "'aalt' Access All Alternates in Latin lookup 0 subtable" bracketleft.case
EndChar

StartChar: bracketright
Encoding: 93 93 393
Width: 433
Flags: W
LayerCount: 2
Fore
SplineSet
350 750 m 1,0,-1
 350 -108 l 1,1,-1
 53 -108 l 1,2,-1
 53 -9 l 1,3,-1
 232 -9 l 1,4,-1
 232 651 l 1,5,-1
 53 651 l 1,6,-1
 53 750 l 1,7,-1
 350 750 l 1,0,-1
EndSplineSet
Validated: 1
Substitution2: "'case' Case-Sensitive Forms in Latin lookup 20 subtable" bracketright.case
Substitution2: "'aalt' Access All Alternates in Latin lookup 0 subtable" bracketright.case
EndChar

StartChar: parenleft.case
Encoding: 65662 -1 394
Width: 433
Flags: W
LayerCount: 2
Fore
SplineSet
268 -40 m 1,0,1
 202 17 202 17 158.5 83 c 128,-1,2
 115 149 115 149 94 220 c 128,-1,3
 73 291 73 291 73 359 c 0,4,5
 73 428 73 428 94 499 c 128,-1,6
 115 570 115 570 159 636.5 c 128,-1,7
 203 703 203 703 268 760 c 1,8,-1
 390 760 l 1,9,10
 291 675 291 675 241.5 571.5 c 128,-1,11
 192 468 192 468 192 359 c 256,12,13
 192 250 192 250 243 147.5 c 128,-1,14
 294 45 294 45 390 -40 c 1,15,-1
 268 -40 l 1,0,1
EndSplineSet
Validated: 1
EndChar

StartChar: parenright.case
Encoding: 65663 -1 395
Width: 433
Flags: W
LayerCount: 2
Fore
SplineSet
165 760 m 1,0,1
 231 704 231 704 274.5 637.5 c 128,-1,2
 318 571 318 571 339 500.5 c 128,-1,3
 360 430 360 430 360 361 c 256,4,5
 360 292 360 292 339 221 c 128,-1,6
 318 150 318 150 274.5 83.5 c 128,-1,7
 231 17 231 17 165 -40 c 1,8,-1
 43 -40 l 1,9,10
 142 45 142 45 191.5 148.5 c 128,-1,11
 241 252 241 252 241 361 c 256,12,13
 241 470 241 470 190 572.5 c 128,-1,14
 139 675 139 675 43 760 c 1,15,-1
 165 760 l 1,0,1
EndSplineSet
Validated: 1
EndChar

StartChar: braceleft.case
Encoding: 65664 -1 396
Width: 433
Flags: W
LayerCount: 2
Fore
SplineSet
286 -40 m 2,0,1
 218 -40 218 -40 175.5 -16 c 128,-1,2
 133 8 133 8 119 48.5 c 128,-1,3
 105 89 105 89 121 138 c 2,4,-1
 143 212 l 2,5,6
 159 261 159 261 138.5 285.5 c 128,-1,7
 118 310 118 310 70 310 c 2,8,-1
 33 310 l 1,9,-1
 33 410 l 1,10,-1
 70 410 l 2,11,12
 118 410 118 410 138.5 434.5 c 128,-1,13
 159 459 159 459 143 508 c 2,14,-1
 121 582 l 2,15,16
 105 632 105 632 119 672.5 c 128,-1,17
 133 713 133 713 175.5 736.5 c 128,-1,18
 218 760 218 760 286 760 c 2,19,-1
 380 760 l 1,20,-1
 380 661 l 1,21,-1
 294 661 l 2,22,23
 259 661 259 661 241.5 639.5 c 128,-1,24
 224 618 224 618 236 582 c 2,25,-1
 259 512 l 2,26,27
 273 474 273 474 266 443 c 128,-1,28
 259 412 259 412 236.5 391 c 128,-1,29
 214 370 214 370 182 360 c 1,30,31
 214 350 214 350 236.5 329 c 128,-1,32
 259 308 259 308 266 277.5 c 128,-1,33
 273 247 273 247 259 208 c 2,34,-1
 236 138 l 2,35,36
 224 102 224 102 241.5 80.5 c 128,-1,37
 259 59 259 59 294 59 c 2,38,-1
 380 59 l 1,39,-1
 380 -40 l 1,40,-1
 286 -40 l 2,0,1
EndSplineSet
Validated: 33
EndChar

StartChar: braceright.case
Encoding: 65665 -1 397
Width: 433
Flags: W
LayerCount: 2
Fore
SplineSet
147 760 m 2,0,1
 215 760 215 760 257.5 736.5 c 128,-1,2
 300 713 300 713 314 672.5 c 128,-1,3
 328 632 328 632 312 582 c 2,4,-1
 290 508 l 2,5,6
 274 459 274 459 294.5 434.5 c 128,-1,7
 315 410 315 410 363 410 c 2,8,-1
 400 410 l 1,9,-1
 400 310 l 1,10,-1
 363 310 l 2,11,12
 315 310 315 310 294.5 285.5 c 128,-1,13
 274 261 274 261 290 212 c 2,14,-1
 312 138 l 2,15,16
 328 89 328 89 314 48.5 c 128,-1,17
 300 8 300 8 257.5 -16 c 128,-1,18
 215 -40 215 -40 147 -40 c 2,19,-1
 53 -40 l 1,20,-1
 53 59 l 1,21,-1
 139 59 l 2,22,23
 174 59 174 59 191.5 80.5 c 128,-1,24
 209 102 209 102 197 138 c 2,25,-1
 174 208 l 2,26,27
 160 247 160 247 167 277.5 c 128,-1,28
 174 308 174 308 197 329 c 128,-1,29
 220 350 220 350 251 360 c 1,30,31
 220 370 220 370 197 391 c 128,-1,32
 174 412 174 412 167 443 c 128,-1,33
 160 474 160 474 174 512 c 2,34,-1
 197 582 l 2,35,36
 209 618 209 618 191.5 639.5 c 128,-1,37
 174 661 174 661 139 661 c 2,38,-1
 53 661 l 1,39,-1
 53 760 l 1,40,-1
 147 760 l 2,0,1
EndSplineSet
Validated: 33
EndChar

StartChar: bracketleft.case
Encoding: 65666 -1 398
Width: 433
Flags: W
LayerCount: 2
Fore
SplineSet
83 -40 m 1,0,-1
 83 760 l 1,1,-1
 380 760 l 1,2,-1
 380 661 l 1,3,-1
 201 661 l 1,4,-1
 201 59 l 1,5,-1
 380 59 l 1,6,-1
 380 -40 l 1,7,-1
 83 -40 l 1,0,-1
EndSplineSet
Validated: 1
EndChar

StartChar: bracketright.case
Encoding: 65667 -1 399
Width: 433
Flags: W
LayerCount: 2
Fore
SplineSet
350 760 m 1,0,-1
 350 -40 l 1,1,-1
 53 -40 l 1,2,-1
 53 59 l 1,3,-1
 232 59 l 1,4,-1
 232 661 l 1,5,-1
 53 661 l 1,6,-1
 53 760 l 1,7,-1
 350 760 l 1,0,-1
EndSplineSet
Validated: 1
EndChar

StartChar: quoteleft
Encoding: 8216 8216 404
Width: 271
Flags: W
LayerCount: 2
Fore
SplineSet
201 477 m 1,0,-1
 79 477 l 5,1,-1
 172 723 l 5,2,-1
 255 723 l 1,3,-1
 201 477 l 1,0,-1
EndSplineSet
Substitution2: "'ss01' Style Set 1 in Latin lookup 22 subtable" quoteleft.ss01
Substitution2: "'aalt' Access All Alternates in Latin lookup 0 subtable" quoteleft.ss01
EndChar

StartChar: quoteright
Encoding: 8217 8217 405
Width: 271
Flags: W
LayerCount: 2
Fore
SplineSet
163 477 m 1,0,-1
 77 477 l 5,1,-1
 133 723 l 5,2,-1
 256 723 l 1,3,-1
 163 477 l 1,0,-1
EndSplineSet
Substitution2: "'ss01' Style Set 1 in Latin lookup 22 subtable" quoteright.ss01
Substitution2: "'aalt' Access All Alternates in Latin lookup 0 subtable" quoteright.ss01
EndChar

StartChar: guillemotright
Encoding: 187 187 407
Width: 539
Flags: W
LayerCount: 2
Fore
SplineSet
362 434 m 1,0,-1
 492 251 l 1,1,-1
 362 68 l 1,2,-1
 242 68 l 1,3,-1
 368 251 l 1,4,-1
 242 434 l 1,5,-1
 362 434 l 1,0,-1
177 434 m 1,6,-1
 307 251 l 1,7,-1
 177 68 l 1,8,-1
 58 68 l 1,9,-1
 183 251 l 1,10,-1
 58 434 l 1,11,-1
 177 434 l 1,6,-1
EndSplineSet
Validated: 1
EndChar

StartChar: guilsinglleft
Encoding: 8249 8249 408
Width: 354
Flags: W
LayerCount: 2
Fore
SplineSet
177 68 m 1,0,-1
 48 251 l 1,1,-1
 177 434 l 1,2,-1
 297 434 l 1,3,-1
 171 251 l 1,4,-1
 297 68 l 1,5,-1
 177 68 l 1,0,-1
EndSplineSet
Validated: 1
EndChar

StartChar: guilsinglright
Encoding: 8250 8250 409
Width: 354
Flags: W
LayerCount: 2
Fore
SplineSet
177 68 m 1,0,-1
 58 68 l 1,1,-1
 183 251 l 1,2,-1
 58 434 l 1,3,-1
 177 434 l 1,4,-1
 307 251 l 1,5,-1
 177 68 l 1,0,-1
EndSplineSet
Validated: 1
EndChar

StartChar: quotesingle
Encoding: 39 39 411
Width: 252
Flags: W
LayerCount: 2
Fore
SplineSet
105 447 m 1,0,-1
 72 575 l 2,1,2
 63 609 63 609 58.5 632 c 128,-1,3
 54 655 54 655 54 676 c 0,4,5
 54 693 54 693 62 710.5 c 128,-1,6
 70 728 70 728 85.5 739 c 128,-1,7
 101 750 101 750 126 750 c 256,8,9
 151 750 151 750 167 739 c 128,-1,10
 183 728 183 728 190.5 710.5 c 128,-1,11
 198 693 198 693 198 676 c 0,12,13
 198 655 198 655 193.5 632 c 128,-1,14
 189 609 189 609 180 575 c 2,15,-1
 147 447 l 1,16,-1
 105 447 l 1,0,-1
EndSplineSet
Validated: 1
EndChar

StartChar: quoteleft.ss01
Encoding: 65672 -1 416
Width: 287
Flags: W
LayerCount: 2
Fore
SplineSet
148 443 m 0,0,1
 112 443 112 443 88 469 c 128,-1,2
 64 495 64 495 64 552 c 0,3,4
 64 623 64 623 104 674.5 c 128,-1,5
 144 726 144 726 219 740 c 1,6,-1
 219 678 l 1,7,8
 176 671 176 671 156 646 c 128,-1,9
 136 621 136 621 136 576 c 1,10,-1
 96 576 l 1,11,12
 105 583 105 583 119 588.5 c 128,-1,13
 133 594 133 594 144 594 c 0,14,15
 181 594 181 594 203.5 572.5 c 128,-1,16
 226 551 226 551 226 519 c 0,17,18
 226 486 226 486 203 464.5 c 128,-1,19
 180 443 180 443 148 443 c 0,0,1
EndSplineSet
Validated: 5
EndChar

StartChar: quoteright.ss01
Encoding: 65673 -1 417
Width: 271
Flags: W
LayerCount: 2
Fore
SplineSet
61 456 m 1,0,-1
 61 518 l 1,1,2
 105 524 105 524 124.5 548.5 c 128,-1,3
 144 573 144 573 144 617 c 1,4,-1
 184 618 l 1,5,6
 175 610 175 610 161.5 605 c 128,-1,7
 148 600 148 600 136 600 c 0,8,9
 100 600 100 600 77 621 c 128,-1,10
 54 642 54 642 54 675 c 256,11,12
 54 708 54 708 77 729 c 128,-1,13
 100 750 100 750 132 750 c 0,14,15
 168 750 168 750 192 724 c 128,-1,16
 216 698 216 698 216 641 c 0,17,18
 216 570 216 570 176.5 519.5 c 128,-1,19
 137 469 137 469 61 456 c 1,0,-1
EndSplineSet
Validated: 5
EndChar

StartChar: less_hyphen.liga
Encoding: 65674 -1 418
Width: 833
GlyphClass: 3
LigCaretCntFixed: 1
Flags: W
LayerCount: 2
Fore
SplineSet
790 302 m 1,0,-1
 155 302 l 1,1,-1
 225 352 l 1,2,-1
 559 18 l 1,3,-1
 401 18 l 1,4,-1
 60 360 l 1,5,-1
 401 702 l 1,6,-1
 560 702 l 1,7,-1
 225 368 l 1,8,-1
 155 418 l 1,9,-1
 790 418 l 1,10,-1
 790 302 l 1,0,-1
EndSplineSet
Validated: 5
Ligature2: "'liga' Standard Ligatures in Latin lookup 21 subtable" less hyphen
LCarets2: 1 417
EndChar

StartChar: at
Encoding: 64 64 419
Width: 859
Flags: W
LayerCount: 2
Fore
SplineSet
427 -10 m 0,0,1
 308 -10 308 -10 220.5 31.5 c 128,-1,2
 133 73 133 73 84.5 148.5 c 128,-1,3
 36 224 36 224 36 326 c 0,4,5
 36 412 36 412 66 485.5 c 128,-1,6
 96 559 96 559 153.5 614 c 128,-1,7
 211 669 211 669 293 699.5 c 128,-1,8
 375 730 375 730 478 730 c 0,9,10
 582 730 582 730 659 693.5 c 128,-1,11
 736 657 736 657 779 592 c 128,-1,12
 822 527 822 527 822 440 c 0,13,14
 822 383 822 383 804 331 c 128,-1,15
 786 279 786 279 753.5 238.5 c 128,-1,16
 721 198 721 198 679.5 174.5 c 128,-1,17
 638 151 638 151 592 151 c 0,18,19
 555 151 555 151 529.5 167 c 128,-1,20
 504 183 504 183 495 210.5 c 128,-1,21
 486 238 486 238 496 273 c 1,22,-1
 498 249 l 1,23,24
 474 203 474 203 435.5 177.5 c 128,-1,25
 397 152 397 152 352 152 c 0,26,27
 289 152 289 152 249 197.5 c 128,-1,28
 209 243 209 243 209 319 c 0,29,30
 209 370 209 370 225 415.5 c 128,-1,31
 241 461 241 461 269.5 496.5 c 128,-1,32
 298 532 298 532 335 552 c 128,-1,33
 372 572 372 572 414 572 c 0,34,35
 476 572 476 572 507.5 538 c 128,-1,36
 539 504 539 504 534 452 c 1,37,-1
 524 453 l 1,38,-1
 548 544 l 1,39,-1
 659 544 l 1,40,-1
 598 308 l 2,41,42
 588 269 588 269 593.5 250.5 c 128,-1,43
 599 232 599 232 620 232 c 0,44,45
 643 232 643 232 663.5 248 c 128,-1,46
 684 264 684 264 700 291.5 c 128,-1,47
 716 319 716 319 725.5 355 c 128,-1,48
 735 391 735 391 735 430 c 0,49,50
 735 500 735 500 703.5 549 c 128,-1,51
 672 598 672 598 614 623.5 c 128,-1,52
 556 649 556 649 476 649 c 0,53,54
 390 649 390 649 324.5 624.5 c 128,-1,55
 259 600 259 600 214.5 556.5 c 128,-1,56
 170 513 170 513 147 454.5 c 128,-1,57
 124 396 124 396 124 328 c 0,58,59
 124 249 124 249 160 191 c 128,-1,60
 196 133 196 133 263 102 c 128,-1,61
 330 71 330 71 422 71 c 0,62,63
 474 71 474 71 526.5 82 c 128,-1,64
 579 93 579 93 627 113 c 1,65,-1
 657 39 l 1,66,67
 611 16 611 16 551.5 3 c 128,-1,68
 492 -10 492 -10 427 -10 c 0,0,1
399 244 m 0,69,70
 421 244 421 244 440 255.5 c 128,-1,71
 459 267 459 267 473.5 287 c 128,-1,72
 488 307 488 307 496 332.5 c 128,-1,73
 504 358 504 358 504 387 c 0,74,75
 504 430 504 430 484 455 c 128,-1,76
 464 480 464 480 429 480 c 0,77,78
 407 480 407 480 388 469 c 128,-1,79
 369 458 369 458 354 438 c 128,-1,80
 339 418 339 418 331 392.5 c 128,-1,81
 323 367 323 367 323 338 c 0,82,83
 323 293 323 293 344 268.5 c 128,-1,84
 365 244 365 244 399 244 c 0,69,70
EndSplineSet
Validated: 37
EndChar

StartChar: ampersand
Encoding: 65675 -1 420
Width: 752
Flags: W
LayerCount: 2
Fore
SplineSet
580 0 m 1,0,-1
 210 398 l 2,1,2
 178 433 178 433 159.5 460.5 c 128,-1,3
 141 488 141 488 133.5 513 c 128,-1,4
 126 538 126 538 126 566 c 0,5,6
 126 612 126 612 151 649 c 128,-1,7
 176 686 176 686 220.5 708 c 128,-1,8
 265 730 265 730 324 730 c 0,9,10
 381 730 381 730 426 709.5 c 128,-1,11
 471 689 471 689 497 651 c 128,-1,12
 523 613 523 613 523 561 c 0,13,14
 523 499 523 499 477.5 448.5 c 128,-1,15
 432 398 432 398 342 367 c 1,16,-1
 283 441 l 1,17,18
 349 463 349 463 380 494 c 128,-1,19
 411 525 411 525 411 563 c 0,20,21
 411 596 411 596 388 618 c 128,-1,22
 365 640 365 640 326 640 c 256,23,24
 287 640 287 640 266 618.5 c 128,-1,25
 245 597 245 597 245 566 c 0,26,27
 245 549 245 549 251.5 530.5 c 128,-1,28
 258 512 258 512 279.5 485 c 128,-1,29
 301 458 301 458 343 414 c 2,30,-1
 740 0 l 1,31,-1
 580 0 l 1,0,-1
301 -10 m 0,32,33
 219 -10 219 -10 157.5 17 c 128,-1,34
 96 44 96 44 62 91.5 c 128,-1,35
 28 139 28 139 28 201 c 0,36,37
 28 284 28 284 84 342 c 128,-1,38
 140 400 140 400 246 432 c 1,39,-1
 306 358 l 1,40,41
 250 340 250 340 216 318 c 128,-1,42
 182 296 182 296 167.5 270.5 c 128,-1,43
 153 245 153 245 153 213 c 0,44,45
 153 156 153 156 195 124.5 c 128,-1,46
 237 93 237 93 311 93 c 0,47,48
 363 93 363 93 408 110 c 128,-1,49
 453 127 453 127 488 162.5 c 128,-1,50
 523 198 523 198 543 254 c 128,-1,51
 563 310 563 310 563 388 c 1,52,-1
 682 388 l 1,53,54
 682 316 682 316 663.5 254.5 c 128,-1,55
 645 193 645 193 610.5 144 c 128,-1,56
 576 95 576 95 529 60.5 c 128,-1,57
 482 26 482 26 424 8 c 128,-1,58
 366 -10 366 -10 301 -10 c 0,32,33
EndSplineSet
Validated: 5
Substitution2: "'calt' Contextual Alternates in Latin lookup 32 subtable" ampersand.ss11
Substitution2: "'aalt' Access All Alternates in Latin lookup 0 subtable" ampersand.ss11
EndChar

StartChar: paragraph
Encoding: 182 182 421
Width: 652
Flags: W
LayerCount: 2
Fore
SplineSet
279 -130 m 1,0,-1
 279 326 l 1,1,-1
 230 326 l 2,2,3
 173 326 173 326 127 350.5 c 128,-1,4
 81 375 81 375 54.5 419 c 128,-1,5
 28 463 28 463 28 520 c 0,6,7
 28 579 28 579 54.5 624 c 128,-1,8
 81 669 81 669 127.5 694.5 c 128,-1,9
 174 720 174 720 233 720 c 2,10,-1
 591 720 l 1,11,-1
 591 -130 l 1,12,-1
 473 -130 l 1,13,-1
 473 626 l 1,14,-1
 397 626 l 1,15,-1
 397 -130 l 1,16,-1
 279 -130 l 1,0,-1
EndSplineSet
Validated: 1
EndChar

StartChar: section
Encoding: 167 167 422
Width: 506
Flags: W
LayerCount: 2
Fore
SplineSet
269 182 m 1,0,-1
 270 262 l 1,1,2
 319 262 319 262 341.5 278.5 c 128,-1,3
 364 295 364 295 364 325 c 0,4,5
 364 353 364 353 346.5 369 c 128,-1,6
 329 385 329 385 293 395 c 2,7,-1
 212 415 l 2,8,9
 136 434 136 434 98 473 c 128,-1,10
 60 512 60 512 60 573 c 0,11,12
 60 646 60 646 113 688 c 128,-1,13
 166 730 166 730 259 730 c 256,14,15
 352 730 352 730 408 689 c 128,-1,16
 464 648 464 648 470 575 c 1,17,-1
 356 575 l 1,18,19
 352 607 352 607 326.5 623 c 128,-1,20
 301 639 301 639 257 639 c 0,21,22
 216 639 216 639 194.5 624.5 c 128,-1,23
 173 610 173 610 173 584 c 0,24,25
 173 561 173 561 190 546 c 128,-1,26
 207 531 207 531 246 521 c 2,27,-1
 332 499 l 2,28,29
 403 482 403 482 440 439.5 c 128,-1,30
 477 397 477 397 477 336 c 0,31,32
 477 263 477 263 422.5 222.5 c 128,-1,33
 368 182 368 182 269 182 c 1,0,-1
248 -56 m 256,34,35
 155 -56 155 -56 99.5 -15 c 128,-1,36
 44 26 44 26 38 99 c 1,37,-1
 151 99 l 1,38,39
 156 67 156 67 181.5 51 c 128,-1,40
 207 35 207 35 250 35 c 0,41,42
 292 35 292 35 313 49.5 c 128,-1,43
 334 64 334 64 334 90 c 0,44,45
 334 113 334 113 318 128 c 128,-1,46
 302 143 302 143 262 153 c 2,47,-1
 176 175 l 2,48,49
 104 194 104 194 67 236 c 128,-1,50
 30 278 30 278 30 338 c 0,51,52
 30 411 30 411 84.5 451.5 c 128,-1,53
 139 492 139 492 238 492 c 1,54,-1
 237 412 l 1,55,56
 188 412 188 412 165.5 396 c 128,-1,57
 143 380 143 380 143 349 c 0,58,59
 143 322 143 322 160.5 306 c 128,-1,60
 178 290 178 290 215 280 c 2,61,-1
 295 259 l 2,62,63
 372 241 372 241 409.5 201.5 c 128,-1,64
 447 162 447 162 447 101 c 0,65,66
 447 28 447 28 394 -14 c 128,-1,67
 341 -56 341 -56 248 -56 c 256,34,35
EndSplineSet
Validated: 5
EndChar

StartChar: copyright
Encoding: 169 169 423
Width: 823
Flags: W
LayerCount: 2
Fore
SplineSet
411 -15 m 256,0,1
 333 -15 333 -15 265 14 c 128,-1,2
 197 43 197 43 145.5 94.5 c 128,-1,3
 94 146 94 146 65 214 c 128,-1,4
 36 282 36 282 36 360 c 256,5,6
 36 438 36 438 65 506 c 128,-1,7
 94 574 94 574 145.5 625.5 c 128,-1,8
 197 677 197 677 265 706 c 128,-1,9
 333 735 333 735 411 735 c 256,10,11
 489 735 489 735 557 706 c 128,-1,12
 625 677 625 677 676.5 625.5 c 128,-1,13
 728 574 728 574 757 506 c 128,-1,14
 786 438 786 438 786 360 c 256,15,16
 786 282 786 282 757 214 c 128,-1,17
 728 146 728 146 676.5 94.5 c 128,-1,18
 625 43 625 43 557 14 c 128,-1,19
 489 -15 489 -15 411 -15 c 256,0,1
411 41 m 0,20,21
 477 41 477 41 534.5 66 c 128,-1,22
 592 91 592 91 635.5 135 c 128,-1,23
 679 179 679 179 703.5 237 c 128,-1,24
 728 295 728 295 728 360 c 256,25,26
 728 425 728 425 703.5 483 c 128,-1,27
 679 541 679 541 635.5 585 c 128,-1,28
 592 629 592 629 534.5 654 c 128,-1,29
 477 679 477 679 411 679 c 0,30,31
 346 679 346 679 288.5 654 c 128,-1,32
 231 629 231 629 187.5 585 c 128,-1,33
 144 541 144 541 119 483 c 128,-1,34
 94 425 94 425 94 360 c 256,35,36
 94 295 94 295 119 237 c 128,-1,37
 144 179 144 179 187.5 135 c 128,-1,38
 231 91 231 91 288.5 66 c 128,-1,39
 346 41 346 41 411 41 c 0,20,21
418 140 m 0,40,41
 356 140 356 140 308 168.5 c 128,-1,42
 260 197 260 197 233 247 c 128,-1,43
 206 297 206 297 206 361 c 256,44,45
 206 425 206 425 233 474 c 128,-1,46
 260 523 260 523 308 551.5 c 128,-1,47
 356 580 356 580 417 580 c 0,48,49
 494 580 494 580 546.5 535 c 128,-1,50
 599 490 599 490 609 417 c 1,51,-1
 532 417 l 1,52,53
 525 462 525 462 494 488 c 128,-1,54
 463 514 463 514 417 514 c 0,55,56
 358 514 358 514 321.5 472 c 128,-1,57
 285 430 285 430 285 362 c 0,58,59
 285 292 285 292 322 249 c 128,-1,60
 359 206 359 206 418 206 c 0,61,62
 462 206 462 206 493 232.5 c 128,-1,63
 524 259 524 259 532 303 c 1,64,-1
 610 303 l 1,65,66
 599 229 599 229 546.5 184.5 c 128,-1,67
 494 140 494 140 418 140 c 0,40,41
EndSplineSet
Validated: 1
EndChar

StartChar: registered
Encoding: 174 174 424
Width: 823
Flags: W
LayerCount: 2
Fore
SplineSet
411 -15 m 256,0,1
 333 -15 333 -15 265 14 c 128,-1,2
 197 43 197 43 145.5 94.5 c 128,-1,3
 94 146 94 146 65 214 c 128,-1,4
 36 282 36 282 36 360 c 256,5,6
 36 438 36 438 65 506 c 128,-1,7
 94 574 94 574 145.5 625.5 c 128,-1,8
 197 677 197 677 265 706 c 128,-1,9
 333 735 333 735 411 735 c 256,10,11
 489 735 489 735 557 706 c 128,-1,12
 625 677 625 677 676.5 625.5 c 128,-1,13
 728 574 728 574 757 506 c 128,-1,14
 786 438 786 438 786 360 c 256,15,16
 786 282 786 282 757 214 c 128,-1,17
 728 146 728 146 676.5 94.5 c 128,-1,18
 625 43 625 43 557 14 c 128,-1,19
 489 -15 489 -15 411 -15 c 256,0,1
411 41 m 0,20,21
 477 41 477 41 534.5 66 c 128,-1,22
 592 91 592 91 635.5 135 c 128,-1,23
 679 179 679 179 703.5 237 c 128,-1,24
 728 295 728 295 728 360 c 256,25,26
 728 425 728 425 703.5 483 c 128,-1,27
 679 541 679 541 635.5 585 c 128,-1,28
 592 629 592 629 534.5 654 c 128,-1,29
 477 679 477 679 411 679 c 0,30,31
 346 679 346 679 288.5 654 c 128,-1,32
 231 629 231 629 187.5 585 c 128,-1,33
 144 541 144 541 119 483 c 128,-1,34
 94 425 94 425 94 360 c 256,35,36
 94 295 94 295 119 237 c 128,-1,37
 144 179 144 179 187.5 135 c 128,-1,38
 231 91 231 91 288.5 66 c 128,-1,39
 346 41 346 41 411 41 c 0,20,21
255 145 m 1,40,-1
 255 575 l 1,41,-1
 440 575 l 2,42,43
 509 575 509 575 548 543.5 c 128,-1,44
 587 512 587 512 587 457 c 0,45,46
 587 369 587 369 472 345 c 1,47,-1
 474 361 l 1,48,49
 524 363 524 363 552 338 c 128,-1,50
 580 313 580 313 580 267 c 2,51,-1
 580 196 l 2,52,53
 580 186 580 186 581 173.5 c 128,-1,54
 582 161 582 161 585 145 c 1,55,-1
 506 145 l 1,56,57
 504 154 504 154 503 166.5 c 128,-1,58
 502 179 502 179 502 196 c 2,59,-1
 502 247 l 2,60,61
 502 287 502 287 483 307 c 128,-1,62
 464 327 464 327 425 327 c 2,63,-1
 291 327 l 1,64,-1
 291 389 l 1,65,-1
 436 389 l 2,66,67
 471 389 471 389 490 405 c 128,-1,68
 509 421 509 421 509 450 c 0,69,70
 509 480 509 480 490 495 c 128,-1,71
 471 510 471 510 436 510 c 2,72,-1
 332 510 l 1,73,-1
 332 145 l 1,74,-1
 255 145 l 1,40,-1
EndSplineSet
Validated: 37
EndChar

StartChar: trademark
Encoding: 8482 8482 425
Width: 836
Flags: W
LayerCount: 2
Fore
SplineSet
163 360 m 1,0,-1
 163 704 l 1,1,-1
 253 704 l 1,2,-1
 253 360 l 1,3,-1
 163 360 l 1,0,-1
53 646 m 1,4,-1
 53 720 l 1,5,-1
 364 720 l 1,6,-1
 364 646 l 1,7,-1
 53 646 l 1,4,-1
384 360 m 1,8,-1
 384 720 l 1,9,-1
 516 720 l 1,10,-1
 610 374 l 1,11,-1
 557 374 l 1,12,-1
 650 720 l 1,13,-1
 784 720 l 1,14,-1
 784 360 l 1,15,-1
 695 360 l 1,16,-1
 695 696 l 1,17,-1
 711 696 l 1,18,-1
 625 360 l 1,19,-1
 538 360 l 1,20,-1
 454 694 l 1,21,-1
 468 694 l 1,22,-1
 468 360 l 1,23,-1
 384 360 l 1,8,-1
EndSplineSet
Validated: 5
EndChar

StartChar: degree
Encoding: 176 176 426
Width: 373
Flags: W
LayerCount: 2
Fore
SplineSet
187 449 m 0,0,1
 147 449 147 449 114 468.5 c 128,-1,2
 81 488 81 488 62 521 c 128,-1,3
 43 554 43 554 43 593 c 256,4,5
 43 632 43 632 62 664.5 c 128,-1,6
 81 697 81 697 114 716 c 128,-1,7
 147 735 147 735 187 735 c 0,8,9
 228 735 228 735 260 716 c 128,-1,10
 292 697 292 697 310.5 664.5 c 128,-1,11
 329 632 329 632 329 593 c 256,12,13
 329 554 329 554 310.5 521 c 128,-1,14
 292 488 292 488 260 468.5 c 128,-1,15
 228 449 228 449 187 449 c 0,0,1
188 515 m 0,16,17
 219 515 219 515 240.5 538 c 128,-1,18
 262 561 262 561 262 593 c 0,19,20
 262 624 262 624 240.5 646.5 c 128,-1,21
 219 669 219 669 188 669 c 0,22,23
 154 669 154 669 132.5 646.5 c 128,-1,24
 111 624 111 624 111 593 c 0,25,26
 111 561 111 561 132.5 538 c 128,-1,27
 154 515 154 515 188 515 c 0,16,17
EndSplineSet
Validated: 1
EndChar

StartChar: bar
Encoding: 124 124 427
Width: 232
Flags: W
LayerCount: 2
Fore
SplineSet
62 -130 m 1,0,-1
 62 790 l 1,1,-1
 171 790 l 1,2,-1
 171 -130 l 1,3,-1
 62 -130 l 1,0,-1
EndSplineSet
Validated: 1
EndChar

StartChar: ampersand.ss11
Encoding: 38 38 428
Width: 752
Flags: W
LayerCount: 2
Fore
SplineSet
251 0 m 2,0,1
 185 0 185 0 136 24 c 128,-1,2
 87 48 87 48 59.5 92 c 128,-1,3
 32 136 32 136 32 195 c 0,4,5
 32 252 32 252 57.5 296 c 128,-1,6
 83 340 83 340 127.5 365 c 128,-1,7
 172 390 172 390 228 390 c 1,8,-1
 239 369 l 1,9,10
 189 369 189 369 149 391.5 c 128,-1,11
 109 414 109 414 85.5 454.5 c 128,-1,12
 62 495 62 495 62 546 c 0,13,14
 62 631 62 631 129 680.5 c 128,-1,15
 196 730 196 730 321 730 c 0,16,17
 356 730 356 730 387.5 725.5 c 128,-1,18
 419 721 419 721 451 711 c 1,19,-1
 451 611 l 1,20,21
 425 620 425 620 394 624.5 c 128,-1,22
 363 629 363 629 333 629 c 0,23,24
 260 629 260 629 225.5 602.5 c 128,-1,25
 191 576 191 576 191 527 c 256,26,27
 191 478 191 478 222.5 451 c 128,-1,28
 254 424 254 424 313 424 c 2,29,-1
 725 424 l 1,30,-1
 725 330 l 1,31,-1
 282 330 l 2,32,33
 227 330 227 330 195 297.5 c 128,-1,34
 163 265 163 265 163 209 c 0,35,36
 163 156 163 156 193 126 c 128,-1,37
 223 96 223 96 277 96 c 2,38,-1
 535 96 l 1,39,-1
 535 0 l 1,40,-1
 251 0 l 2,0,1
467 0 m 1,41,-1
 467 498 l 5,42,-1
 596 547 l 1,43,-1
 596 0 l 1,44,-1
 467 0 l 1,41,-1
EndSplineSet
Validated: 5
EndChar

StartChar: cent
Encoding: 162 162 429
Width: 540
GlyphClass: 2
Flags: W
AnchorPoint: "Anchor-2" 276 0 basechar 0
AnchorPoint: "Anchor-0" 285 510 basechar 0
LayerCount: 2
Fore
SplineSet
232 482 m 1,0,-1
 232 616 l 1,1,-1
 334 616 l 1,2,-1
 334 482 l 1,3,-1
 232 482 l 1,0,-1
334 20 m 1,4,-1
 334 -109 l 1,5,-1
 232 -109 l 1,6,-1
 232 20 l 1,7,-1
 334 20 l 1,4,-1
282 -10 m 0,8,9
 207 -10 207 -10 149.5 24 c 128,-1,10
 92 58 92 58 59.5 118 c 128,-1,11
 27 178 27 178 27 256 c 0,12,13
 27 333 27 333 59.5 393 c 128,-1,14
 92 453 92 453 149.5 486.5 c 128,-1,15
 207 520 207 520 282 520 c 0,16,17
 344 520 344 520 394 496.5 c 128,-1,18
 444 473 444 473 475.5 430.5 c 128,-1,19
 507 388 507 388 516 330 c 1,20,-1
 396 330 l 1,21,22
 386 373 386 373 356.5 396 c 128,-1,23
 327 419 327 419 284 419 c 0,24,25
 245 419 245 419 216.5 399.5 c 128,-1,26
 188 380 188 380 172.5 343.5 c 128,-1,27
 157 307 157 307 157 256 c 256,28,29
 157 205 157 205 172.5 168 c 128,-1,30
 188 131 188 131 216.5 111 c 128,-1,31
 245 91 245 91 284 91 c 0,32,33
 326 91 326 91 356.5 114 c 128,-1,34
 387 137 387 137 396 180 c 1,35,-1
 516 180 l 1,36,37
 507 122 507 122 475 79.5 c 128,-1,38
 443 37 443 37 393 13.5 c 128,-1,39
 343 -10 343 -10 282 -10 c 0,8,9
EndSplineSet
Validated: 5
Substitution2: "'ss12' Style Set 12 in Latin lookup 33 subtable" cent.ss12
Substitution2: "'aalt' Access All Alternates in Latin lookup 0 subtable" cent.ss12
EndChar

StartChar: dollar
Encoding: 36 36 430
Width: 621
GlyphClass: 2
Flags: W
AnchorPoint: "Anchor-2" 326 0 basechar 0
AnchorPoint: "Anchor-0" 320 720 basechar 0
LayerCount: 2
Fore
SplineSet
268 696 m 1,0,-1
 268 830 l 1,1,-1
 371 830 l 1,2,-1
 371 696 l 1,3,-1
 268 696 l 1,0,-1
371 20 m 1,4,-1
 371 -109 l 1,5,-1
 268 -109 l 1,6,-1
 268 20 l 1,7,-1
 371 20 l 1,4,-1
331 -9 m 0,8,9
 199 -9 199 -9 120.5 53.5 c 128,-1,10
 42 116 42 116 30 230 c 1,11,-1
 154 230 l 1,12,13
 162 163 162 163 209.5 126.5 c 128,-1,14
 257 90 257 90 336 90 c 0,15,16
 400 90 400 90 434 114.5 c 128,-1,17
 468 139 468 139 468 182 c 0,18,19
 468 221 468 221 446.5 245.5 c 128,-1,20
 425 270 425 270 374 286 c 2,21,-1
 249 327 l 2,22,23
 153 358 153 358 108.5 407 c 128,-1,24
 64 456 64 456 64 529 c 0,25,26
 64 591 64 591 95 636.5 c 128,-1,27
 126 682 126 682 183 706.5 c 128,-1,28
 240 731 240 731 316 731 c 0,29,30
 433 731 433 731 503 672.5 c 128,-1,31
 573 614 573 614 582 514 c 1,32,-1
 458 514 l 1,33,34
 448 575 448 575 410.5 603 c 128,-1,35
 373 631 373 631 310 631 c 0,36,37
 253 631 253 631 220.5 608.5 c 128,-1,38
 188 586 188 586 188 546 c 0,39,40
 188 514 188 514 208.5 490 c 128,-1,41
 229 466 229 466 283 449 c 2,42,-1
 411 407 l 2,43,44
 506 377 506 377 549.5 326.5 c 128,-1,45
 593 276 593 276 593 201 c 0,46,47
 593 100 593 100 524 45.5 c 128,-1,48
 455 -9 455 -9 331 -9 c 0,8,9
EndSplineSet
Validated: 5
Substitution2: "'ss12' Style Set 12 in Latin lookup 33 subtable" dollar.ss12
Substitution2: "'aalt' Access All Alternates in Latin lookup 0 subtable" dollar.ss12
EndChar

StartChar: Euro
Encoding: 8364 8364 431
Width: 697
Flags: W
LayerCount: 2
Fore
SplineSet
393 -10 m 256,0,1
 323 -10 323 -10 265 17 c 128,-1,2
 207 44 207 44 164.5 94 c 128,-1,3
 122 144 122 144 98.5 212 c 128,-1,4
 75 280 75 280 75 362 c 256,5,6
 75 444 75 444 98 511 c 128,-1,7
 121 578 121 578 163.5 627.5 c 128,-1,8
 206 677 206 677 264 703.5 c 128,-1,9
 322 730 322 730 393 730 c 0,10,11
 463 730 463 730 519 705.5 c 128,-1,12
 575 681 575 681 613 636.5 c 128,-1,13
 651 592 651 592 665 530 c 1,14,-1
 533 530 l 1,15,16
 521 577 521 577 484.5 601.5 c 128,-1,17
 448 626 448 626 392 626 c 256,18,19
 336 626 336 626 294 594 c 128,-1,20
 252 562 252 562 229 503 c 128,-1,21
 206 444 206 444 206 363 c 0,22,23
 206 281 206 281 229.5 220.5 c 128,-1,24
 253 160 253 160 295.5 127 c 128,-1,25
 338 94 338 94 393 94 c 256,26,27
 448 94 448 94 483.5 118 c 128,-1,28
 519 142 519 142 532 189 c 1,29,-1
 666 189 l 1,30,31
 651 127 651 127 613 82.5 c 128,-1,32
 575 38 575 38 519 14 c 128,-1,33
 463 -10 463 -10 393 -10 c 256,0,1
0 388 m 1,34,-1
 15 476 l 1,35,-1
 489 476 l 1,36,-1
 473 388 l 1,37,-1
 0 388 l 1,34,-1
0 246 m 1,38,-1
 15 334 l 1,39,-1
 464 334 l 1,40,-1
 449 246 l 1,41,-1
 0 246 l 1,38,-1
EndSplineSet
Validated: 5
EndChar

StartChar: sterling
Encoding: 163 163 432
Width: 586
Flags: W
LayerCount: 2
Fore
SplineSet
42 0 m 1,0,-1
 42 104 l 1,1,2
 86 162 86 162 102.5 204 c 128,-1,3
 119 246 119 246 119 280 c 0,4,5
 119 313 119 313 108 340 c 128,-1,6
 97 367 97 367 82 394 c 128,-1,7
 67 421 67 421 55.5 451.5 c 128,-1,8
 44 482 44 482 44 522 c 0,9,10
 44 584 44 584 73.5 630.5 c 128,-1,11
 103 677 103 677 158 703.5 c 128,-1,12
 213 730 213 730 289 730 c 0,13,14
 367 730 367 730 423.5 703 c 128,-1,15
 480 676 480 676 513 627.5 c 128,-1,16
 546 579 546 579 551 515 c 1,17,-1
 428 515 l 1,18,19
 421 571 421 571 388 599.5 c 128,-1,20
 355 628 355 628 296 628 c 0,21,22
 235 628 235 628 204.5 599 c 128,-1,23
 174 570 174 570 174 521 c 0,24,25
 174 492 174 492 184.5 465 c 128,-1,26
 195 438 195 438 208.5 411 c 128,-1,27
 222 384 222 384 232.5 354 c 128,-1,28
 243 324 243 324 243 289 c 0,29,30
 243 247 243 247 222 194 c 128,-1,31
 201 141 201 141 144 71 c 1,32,-1
 132 109 l 1,33,-1
 527 109 l 1,34,-1
 527 0 l 1,35,-1
 42 0 l 1,0,-1
14 289 m 1,36,-1
 14 395 l 1,37,-1
 452 395 l 1,38,-1
 452 289 l 1,39,-1
 14 289 l 1,36,-1
EndSplineSet
Validated: 5
EndChar

StartChar: yen
Encoding: 165 165 433
Width: 624
Flags: W
LayerCount: 2
Fore
SplineSet
248 0 m 1,0,-1
 248 303 l 1,1,-1
 15 720 l 1,2,-1
 169 720 l 1,3,-1
 363 331 l 1,4,-1
 275 331 l 1,5,-1
 468 720 l 1,6,-1
 609 720 l 1,7,-1
 377 303 l 1,8,-1
 377 0 l 1,9,-1
 248 0 l 1,0,-1
44 246 m 1,10,-1
 44 334 l 1,11,-1
 581 334 l 1,12,-1
 581 246 l 1,13,-1
 44 246 l 1,10,-1
271 388 m 1,14,-1
 44 388 l 1,15,-1
 44 476 l 1,16,-1
 227 476 l 1,17,-1
 271 388 l 1,14,-1
421 476 m 1,18,-1
 581 476 l 1,19,-1
 581 388 l 1,20,-1
 374 388 l 1,21,-1
 421 476 l 1,18,-1
EndSplineSet
Validated: 5
EndChar

StartChar: cent.ss12
Encoding: 65676 -1 434
Width: 540
Flags: W
LayerCount: 2
Fore
SplineSet
282 -10 m 0,0,1
 207 -10 207 -10 149.5 24 c 128,-1,2
 92 58 92 58 59.5 118 c 128,-1,3
 27 178 27 178 27 256 c 0,4,5
 27 333 27 333 59.5 393 c 128,-1,6
 92 453 92 453 149.5 486.5 c 128,-1,7
 207 520 207 520 282 520 c 0,8,9
 344 520 344 520 394 496.5 c 128,-1,10
 444 473 444 473 475.5 430.5 c 128,-1,11
 507 388 507 388 516 330 c 1,12,-1
 404 330 l 1,13,14
 394 377 394 377 363 402 c 128,-1,15
 332 427 332 427 283 427 c 0,16,17
 219 427 219 427 184 382 c 128,-1,18
 149 337 149 337 149 256 c 256,19,20
 149 175 149 175 184 129 c 128,-1,21
 219 83 219 83 284 83 c 0,22,23
 332 83 332 83 363 108 c 128,-1,24
 394 133 394 133 404 180 c 1,25,-1
 516 180 l 1,26,27
 507 122 507 122 475 79.5 c 128,-1,28
 443 37 443 37 393 13.5 c 128,-1,29
 343 -10 343 -10 282 -10 c 0,0,1
232 -109 m 1,30,-1
 232 32 l 1,31,-1
 236 58 l 1,32,-1
 236 455 l 1,33,-1
 232 485 l 1,34,-1
 232 616 l 1,35,-1
 334 616 l 1,36,-1
 334 482 l 1,37,-1
 330 457 l 1,38,-1
 330 61 l 1,39,-1
 334 36 l 1,40,-1
 334 -109 l 1,41,-1
 232 -109 l 1,30,-1
EndSplineSet
Validated: 5
EndChar

StartChar: dollar.ss12
Encoding: 65677 -1 435
Width: 621
Flags: W
LayerCount: 2
Fore
SplineSet
331 -9 m 0,0,1
 199 -9 199 -9 120.5 53.5 c 128,-1,2
 42 116 42 116 30 230 c 1,3,-1
 153 230 l 1,4,5
 160 163 160 163 208 126.5 c 128,-1,6
 256 90 256 90 336 90 c 0,7,8
 401 90 401 90 435.5 114 c 128,-1,9
 470 138 470 138 470 182 c 0,10,11
 470 221 470 221 447.5 245.5 c 128,-1,12
 425 270 425 270 374 287 c 2,13,-1
 249 328 l 2,14,15
 153 359 153 359 108.5 407.5 c 128,-1,16
 64 456 64 456 64 529 c 0,17,18
 64 591 64 591 95 636.5 c 128,-1,19
 126 682 126 682 183 706.5 c 128,-1,20
 240 731 240 731 316 731 c 0,21,22
 433 731 433 731 502.5 672.5 c 128,-1,23
 572 614 572 614 582 514 c 1,24,-1
 459 514 l 1,25,26
 449 575 449 575 411.5 603.5 c 128,-1,27
 374 632 374 632 310 632 c 0,28,29
 252 632 252 632 219.5 609.5 c 128,-1,30
 187 587 187 587 187 546 c 0,31,32
 187 514 187 514 207.5 490 c 128,-1,33
 228 466 228 466 283 448 c 2,34,-1
 411 406 l 2,35,36
 506 376 506 376 549 326 c 128,-1,37
 592 276 592 276 592 201 c 0,38,39
 592 100 592 100 523.5 45.5 c 128,-1,40
 455 -9 455 -9 331 -9 c 0,0,1
268 -109 m 1,41,-1
 268 32 l 1,42,-1
 273 58 l 1,43,-1
 273 669 l 1,44,-1
 268 699 l 1,45,-1
 268 830 l 1,46,-1
 371 830 l 1,47,-1
 371 696 l 1,48,-1
 366 671 l 1,49,-1
 366 61 l 1,50,-1
 371 36 l 1,51,-1
 371 -109 l 1,52,-1
 268 -109 l 1,41,-1
EndSplineSet
Validated: 5
EndChar

StartChar: plus
Encoding: 43 43 436
Width: 544
Flags: W
LayerCount: 2
Fore
SplineSet
224 140 m 1,0,-1
 224 603 l 1,1,-1
 321 603 l 1,2,-1
 321 140 l 1,3,-1
 224 140 l 1,0,-1
53 324 m 1,4,-1
 53 418 l 1,5,-1
 491 418 l 1,6,-1
 491 324 l 1,7,-1
 53 324 l 1,4,-1
EndSplineSet
Validated: 5
Substitution2: "'tnum' Tabular Numbers in Latin lookup 19 subtable" plus.tf
Substitution2: "'aalt' Access All Alternates in Latin lookup 0 subtable" plus.tf
EndChar

StartChar: minus
Encoding: 8722 8722 437
Width: 544
Flags: W
LayerCount: 2
Fore
SplineSet
53 324 m 1,0,-1
 53 418 l 1,1,-1
 491 418 l 1,2,-1
 491 324 l 1,3,-1
 53 324 l 1,0,-1
EndSplineSet
Validated: 1
Substitution2: "'tnum' Tabular Numbers in Latin lookup 19 subtable" minus.tf
Substitution2: "'aalt' Access All Alternates in Latin lookup 0 subtable" minus.tf
EndChar

StartChar: multiply
Encoding: 215 215 438
Width: 544
Flags: W
LayerCount: 2
Fore
SplineSet
422 154 m 1,0,-1
 55 522 l 1,1,-1
 123 590 l 1,2,-1
 490 222 l 1,3,-1
 422 154 l 1,0,-1
123 154 m 1,4,-1
 55 222 l 1,5,-1
 422 590 l 1,6,-1
 490 522 l 1,7,-1
 123 154 l 1,4,-1
EndSplineSet
Validated: 5
Substitution2: "'tnum' Tabular Numbers in Latin lookup 19 subtable" multiply.tf
Substitution2: "'aalt' Access All Alternates in Latin lookup 0 subtable" multiply.tf
EndChar

StartChar: divide
Encoding: 247 247 439
Width: 544
Flags: W
LayerCount: 2
Fore
SplineSet
53 324 m 1,0,-1
 53 418 l 1,1,-1
 491 418 l 1,2,-1
 491 324 l 1,3,-1
 53 324 l 1,0,-1
273 479 m 0,4,5
 243 479 243 479 223.5 498 c 128,-1,6
 204 517 204 517 204 548 c 0,7,8
 204 577 204 577 223.5 596.5 c 128,-1,9
 243 616 243 616 273 616 c 0,10,11
 299 616 299 616 319.5 597 c 128,-1,12
 340 578 340 578 340 548 c 0,13,14
 340 517 340 517 319.5 498 c 128,-1,15
 299 479 299 479 273 479 c 0,4,5
273 127 m 0,16,17
 243 127 243 127 223.5 146 c 128,-1,18
 204 165 204 165 204 196 c 0,19,20
 204 225 204 225 223.5 244.5 c 128,-1,21
 243 264 243 264 273 264 c 0,22,23
 299 264 299 264 319.5 244.5 c 128,-1,24
 340 225 340 225 340 196 c 0,25,26
 340 165 340 165 319.5 146 c 128,-1,27
 299 127 299 127 273 127 c 0,16,17
EndSplineSet
Validated: 1
Substitution2: "'tnum' Tabular Numbers in Latin lookup 19 subtable" divide.tf
Substitution2: "'aalt' Access All Alternates in Latin lookup 0 subtable" divide.tf
EndChar

StartChar: equal
Encoding: 61 61 440
Width: 544
Flags: W
LayerCount: 2
Fore
SplineSet
53 424 m 1,0,-1
 53 518 l 1,1,-1
 491 518 l 1,2,-1
 491 424 l 1,3,-1
 53 424 l 1,0,-1
53 224 m 1,4,-1
 53 318 l 1,5,-1
 491 318 l 1,6,-1
 491 224 l 1,7,-1
 53 224 l 1,4,-1
EndSplineSet
Validated: 1
Substitution2: "'tnum' Tabular Numbers in Latin lookup 19 subtable" equal.tf
Substitution2: "'aalt' Access All Alternates in Latin lookup 0 subtable" equal.tf
EndChar

StartChar: greater
Encoding: 62 62 441
Width: 544
Flags: W
LayerCount: 2
Fore
SplineSet
53 166 m 1,0,-1
 53 266 l 1,1,-1
 396 382 l 1,2,-1
 396 359 l 1,3,-1
 53 473 l 1,4,-1
 53 573 l 1,5,-1
 491 423 l 1,6,-1
 491 319 l 1,7,-1
 53 166 l 1,0,-1
EndSplineSet
Validated: 5
Substitution2: "'tnum' Tabular Numbers in Latin lookup 19 subtable" greater.tf
Substitution2: "'aalt' Access All Alternates in Latin lookup 0 subtable" greater.tf
EndChar

StartChar: less
Encoding: 60 60 442
Width: 544
Flags: W
LayerCount: 2
Fore
SplineSet
491 576 m 1,0,-1
 491 476 l 1,1,-1
 148 360 l 1,2,-1
 148 383 l 1,3,-1
 491 269 l 1,4,-1
 491 169 l 1,5,-1
 53 319 l 1,6,-1
 53 423 l 1,7,-1
 491 576 l 1,0,-1
EndSplineSet
Validated: 5
Substitution2: "'tnum' Tabular Numbers in Latin lookup 19 subtable" less.tf
Substitution2: "'aalt' Access All Alternates in Latin lookup 0 subtable" less.tf
EndChar

StartChar: asciitilde
Encoding: 126 126 443
Width: 544
Flags: W
LayerCount: 2
Fore
SplineSet
387 277 m 0,0,1
 428 277 428 277 460.5 293.5 c 128,-1,2
 493 310 493 310 513 343.5 c 128,-1,3
 533 377 533 377 537 428 c 1,4,-1
 455 428 l 1,5,6
 449 401 449 401 431.5 388 c 128,-1,7
 414 375 414 375 386 375 c 0,8,9
 361 375 361 375 336.5 384.5 c 128,-1,10
 312 394 312 394 285 406.5 c 128,-1,11
 258 419 258 419 226.5 428.5 c 128,-1,12
 195 438 195 438 157 438 c 0,13,14
 117 438 117 438 84.5 421.5 c 128,-1,15
 52 405 52 405 32 372 c 128,-1,16
 12 339 12 339 8 287 c 1,17,-1
 90 287 l 1,18,19
 97 314 97 314 114 327 c 128,-1,20
 131 340 131 340 159 340 c 0,21,22
 185 340 185 340 209.5 330.5 c 128,-1,23
 234 321 234 321 260 308.5 c 128,-1,24
 286 296 286 296 317 286.5 c 128,-1,25
 348 277 348 277 387 277 c 0,0,1
EndSplineSet
Validated: 9
EndChar

StartChar: asciicircum
Encoding: 94 94 444
Width: 544
Flags: W
LayerCount: 2
Fore
SplineSet
163 491 m 1,0,-1
 68 491 l 1,1,-1
 219 740 l 1,2,-1
 325 740 l 1,3,-1
 476 491 l 1,4,-1
 381 491 l 1,5,-1
 237 699 l 1,6,-1
 308 699 l 1,7,-1
 163 491 l 1,0,-1
EndSplineSet
Validated: 5
EndChar

StartChar: percent
Encoding: 37 37 445
Width: 772
Flags: W
LayerCount: 2
Fore
SplineSet
76 0 m 1,0,-1
 599 720 l 1,1,-1
 701 720 l 1,2,-1
 179 0 l 1,3,-1
 76 0 l 1,0,-1
576 -10 m 0,4,5
 535 -10 535 -10 498.5 10 c 128,-1,6
 462 30 462 30 439.5 71 c 128,-1,7
 417 112 417 112 417 174 c 0,8,9
 417 237 417 237 439 277.5 c 128,-1,10
 461 318 461 318 497.5 337.5 c 128,-1,11
 534 357 534 357 576 357 c 0,12,13
 621 357 621 357 657.5 337 c 128,-1,14
 694 317 694 317 716 277 c 128,-1,15
 738 237 738 237 738 174 c 0,16,17
 738 112 738 112 715 71 c 128,-1,18
 692 30 692 30 655.5 10 c 128,-1,19
 619 -10 619 -10 576 -10 c 0,4,5
576 65 m 256,20,21
 610 65 610 65 632.5 93.5 c 128,-1,22
 655 122 655 122 655 175 c 0,23,24
 655 227 655 227 632.5 254.5 c 128,-1,25
 610 282 610 282 576 282 c 256,26,27
 542 282 542 282 521 254.5 c 128,-1,28
 500 227 500 227 500 175 c 0,29,30
 500 122 500 122 521 93.5 c 128,-1,31
 542 65 542 65 576 65 c 256,20,21
194 363 m 0,32,33
 152 363 152 363 115.5 382.5 c 128,-1,34
 79 402 79 402 57 443 c 128,-1,35
 35 484 35 484 35 547 c 0,36,37
 35 609 35 609 57 649.5 c 128,-1,38
 79 690 79 690 115.5 710 c 128,-1,39
 152 730 152 730 194 730 c 0,40,41
 238 730 238 730 274.5 710 c 128,-1,42
 311 690 311 690 332.5 649.5 c 128,-1,43
 354 609 354 609 354 547 c 0,44,45
 354 484 354 484 331.5 443 c 128,-1,46
 309 402 309 402 273 382.5 c 128,-1,47
 237 363 237 363 194 363 c 0,32,33
194 438 m 0,48,49
 227 438 227 438 249.5 466 c 128,-1,50
 272 494 272 494 272 548 c 0,51,52
 272 600 272 600 250.5 627.5 c 128,-1,53
 229 655 229 655 194 655 c 0,54,55
 160 655 160 655 139 627.5 c 128,-1,56
 118 600 118 600 118 548 c 0,57,58
 118 494 118 494 139 466 c 128,-1,59
 160 438 160 438 194 438 c 0,48,49
EndSplineSet
Validated: 1
Substitution2: "'tnum' Tabular Numbers in Latin lookup 19 subtable" percent.tf
Substitution2: "'aalt' Access All Alternates in Latin lookup 0 subtable" percent.tf
EndChar

StartChar: perthousand
Encoding: 8240 8240 446
Width: 823
Flags: W
LayerCount: 2
Fore
SplineSet
170 363 m 256,0,1
 133 363 133 363 101 382.5 c 128,-1,2
 69 402 69 402 49.5 443 c 128,-1,3
 30 484 30 484 30 547 c 0,4,5
 30 609 30 609 49.5 649.5 c 128,-1,6
 69 690 69 690 100.5 710 c 128,-1,7
 132 730 132 730 170 730 c 0,8,9
 228 730 228 730 269 685 c 128,-1,10
 310 640 310 640 310 547 c 0,11,12
 310 484 310 484 290.5 443 c 128,-1,13
 271 402 271 402 239 382.5 c 128,-1,14
 207 363 207 363 170 363 c 256,0,1
169 432 m 256,15,16
 198 432 198 432 217 461.5 c 128,-1,17
 236 491 236 491 236 548 c 0,18,19
 236 602 236 602 217.5 631 c 128,-1,20
 199 660 199 660 169 660 c 0,21,22
 140 660 140 660 122 631.5 c 128,-1,23
 104 603 104 603 104 548 c 0,24,25
 104 491 104 491 122 461.5 c 128,-1,26
 140 432 140 432 169 432 c 256,15,16
65 0 m 1,27,-1
 509 720 l 1,28,-1
 601 720 l 1,29,-1
 159 0 l 1,30,-1
 65 0 l 1,27,-1
486 -10 m 0,31,32
 454 -10 454 -10 423.5 10.5 c 128,-1,33
 393 31 393 31 374.5 72 c 128,-1,34
 356 113 356 113 356 174 c 0,35,36
 356 236 356 236 374.5 276 c 128,-1,37
 393 316 393 316 423 336.5 c 128,-1,38
 453 357 453 357 486 357 c 0,39,40
 537 357 537 357 569 313.5 c 128,-1,41
 601 270 601 270 601 174 c 256,42,43
 601 78 601 78 568 34 c 128,-1,44
 535 -10 535 -10 486 -10 c 0,31,32
486 60 m 0,45,46
 511 60 511 60 527 89.5 c 128,-1,47
 543 119 543 119 543 175 c 0,48,49
 543 230 543 230 527 259 c 128,-1,50
 511 288 511 288 486 288 c 256,51,52
 461 288 461 288 445.5 259 c 128,-1,53
 430 230 430 230 430 175 c 0,54,55
 430 119 430 119 445 89.5 c 128,-1,56
 460 60 460 60 486 60 c 0,45,46
662 60 m 256,57,58
 687 60 687 60 703 89.5 c 128,-1,59
 719 119 719 119 719 175 c 0,60,61
 719 230 719 230 703.5 259 c 128,-1,62
 688 288 688 288 662 288 c 0,63,64
 637 288 637 288 621.5 259 c 128,-1,65
 606 230 606 230 606 175 c 0,66,67
 606 119 606 119 621.5 89.5 c 128,-1,68
 637 60 637 60 662 60 c 256,57,58
662 -10 m 0,69,70
 613 -10 613 -10 580 34 c 128,-1,71
 547 78 547 78 547 174 c 256,72,73
 547 270 547 270 579.5 313.5 c 128,-1,74
 612 357 612 357 662 357 c 0,75,76
 696 357 696 357 726 336.5 c 128,-1,77
 756 316 756 316 774.5 276 c 128,-1,78
 793 236 793 236 793 174 c 0,79,80
 793 113 793 113 774 72 c 128,-1,81
 755 31 755 31 725 10.5 c 128,-1,82
 695 -10 695 -10 662 -10 c 0,69,70
EndSplineSet
Validated: 5
Substitution2: "'tnum' Tabular Numbers in Latin lookup 19 subtable" perthousand.tf
Substitution2: "'aalt' Access All Alternates in Latin lookup 0 subtable" perthousand.tf
EndChar

StartChar: plus.tf
Encoding: 65678 -1 447
Width: 592
Flags: W
LayerCount: 2
Fore
SplineSet
247 140 m 1,0,-1
 247 603 l 1,1,-1
 346 603 l 1,2,-1
 346 140 l 1,3,-1
 247 140 l 1,0,-1
66 324 m 1,4,-1
 66 418 l 1,5,-1
 526 418 l 1,6,-1
 526 324 l 1,7,-1
 66 324 l 1,4,-1
EndSplineSet
Validated: 5
Substitution2: "'pnum' Proportional Numbers in Latin lookup 18 subtable" plus
Substitution2: "'aalt' Access All Alternates in Latin lookup 0 subtable" plus
EndChar

StartChar: minus.tf
Encoding: 65679 -1 448
Width: 592
Flags: W
LayerCount: 2
Fore
SplineSet
66 324 m 1,0,-1
 66 418 l 1,1,-1
 526 418 l 1,2,-1
 526 324 l 1,3,-1
 66 324 l 1,0,-1
EndSplineSet
Validated: 1
Substitution2: "'pnum' Proportional Numbers in Latin lookup 18 subtable" minus
Substitution2: "'aalt' Access All Alternates in Latin lookup 0 subtable" minus
EndChar

StartChar: multiply.tf
Encoding: 65680 -1 449
Width: 592
Flags: W
LayerCount: 2
Fore
SplineSet
457 154 m 1,0,-1
 66 522 l 1,1,-1
 134 590 l 1,2,-1
 525 222 l 1,3,-1
 457 154 l 1,0,-1
134 154 m 1,4,-1
 66 222 l 1,5,-1
 457 590 l 1,6,-1
 525 522 l 1,7,-1
 134 154 l 1,4,-1
EndSplineSet
Validated: 5
Substitution2: "'pnum' Proportional Numbers in Latin lookup 18 subtable" multiply
Substitution2: "'aalt' Access All Alternates in Latin lookup 0 subtable" multiply
EndChar

StartChar: divide.tf
Encoding: 65681 -1 450
Width: 592
Flags: W
LayerCount: 2
Fore
SplineSet
66 324 m 1,0,-1
 66 418 l 1,1,-1
 526 418 l 1,2,-1
 526 324 l 1,3,-1
 66 324 l 1,0,-1
297 479 m 0,4,5
 266 479 266 479 246 498 c 128,-1,6
 226 517 226 517 226 548 c 0,7,8
 226 577 226 577 246 596.5 c 128,-1,9
 266 616 266 616 297 616 c 0,10,11
 324 616 324 616 345 597 c 128,-1,12
 366 578 366 578 366 548 c 0,13,14
 366 517 366 517 345 498 c 128,-1,15
 324 479 324 479 297 479 c 0,4,5
297 127 m 0,16,17
 266 127 266 127 246 146 c 128,-1,18
 226 165 226 165 226 196 c 0,19,20
 226 225 226 225 246 244.5 c 128,-1,21
 266 264 266 264 297 264 c 0,22,23
 324 264 324 264 345 244.5 c 128,-1,24
 366 225 366 225 366 196 c 0,25,26
 366 165 366 165 345 146 c 128,-1,27
 324 127 324 127 297 127 c 0,16,17
EndSplineSet
Validated: 1
Substitution2: "'pnum' Proportional Numbers in Latin lookup 18 subtable" divide
Substitution2: "'aalt' Access All Alternates in Latin lookup 0 subtable" divide
EndChar

StartChar: equal.tf
Encoding: 65682 -1 451
Width: 592
Flags: W
LayerCount: 2
Fore
SplineSet
65 424 m 1,0,-1
 65 518 l 1,1,-1
 526 518 l 1,2,-1
 526 424 l 1,3,-1
 65 424 l 1,0,-1
65 224 m 1,4,-1
 65 318 l 1,5,-1
 526 318 l 1,6,-1
 526 224 l 1,7,-1
 65 224 l 1,4,-1
EndSplineSet
Validated: 1
Substitution2: "'pnum' Proportional Numbers in Latin lookup 18 subtable" equal
Substitution2: "'aalt' Access All Alternates in Latin lookup 0 subtable" equal
EndChar

StartChar: greater.tf
Encoding: 65683 -1 452
Width: 592
Flags: W
LayerCount: 2
Fore
SplineSet
66 166 m 1,0,-1
 66 266 l 1,1,-1
 433 382 l 1,2,-1
 433 359 l 1,3,-1
 66 473 l 1,4,-1
 66 573 l 1,5,-1
 526 423 l 1,6,-1
 526 319 l 1,7,-1
 66 166 l 1,0,-1
EndSplineSet
Validated: 5
Substitution2: "'pnum' Proportional Numbers in Latin lookup 18 subtable" greater
Substitution2: "'aalt' Access All Alternates in Latin lookup 0 subtable" greater
EndChar

StartChar: less.tf
Encoding: 65684 -1 453
Width: 592
Flags: W
LayerCount: 2
Fore
SplineSet
491 576 m 1,0,-1
 491 476 l 1,1,-1
 148 360 l 1,2,-1
 148 383 l 1,3,-1
 491 269 l 1,4,-1
 491 169 l 1,5,-1
 53 319 l 1,6,-1
 53 423 l 1,7,-1
 491 576 l 1,0,-1
EndSplineSet
Validated: 5
Substitution2: "'pnum' Proportional Numbers in Latin lookup 18 subtable" less
Substitution2: "'aalt' Access All Alternates in Latin lookup 0 subtable" less
EndChar

StartChar: percent.tf
Encoding: 65685 -1 454
Width: 592
Flags: W
LayerCount: 2
Fore
SplineSet
27 0 m 1,0,-1
 480 720 l 1,1,-1
 567 720 l 1,2,-1
 115 0 l 1,3,-1
 27 0 l 1,0,-1
436 -10 m 0,4,5
 401 -10 401 -10 370 10 c 128,-1,6
 339 30 339 30 319 71 c 128,-1,7
 299 112 299 112 299 173 c 0,8,9
 299 236 299 236 318.5 276 c 128,-1,10
 338 316 338 316 369.5 336 c 128,-1,11
 401 356 401 356 436 356 c 0,12,13
 473 356 473 356 504.5 336 c 128,-1,14
 536 316 536 316 555 276 c 128,-1,15
 574 236 574 236 574 173 c 0,16,17
 574 112 574 112 554.5 71 c 128,-1,18
 535 30 535 30 503.5 10 c 128,-1,19
 472 -10 472 -10 436 -10 c 0,4,5
436 58 m 0,20,21
 456 58 456 58 473 83.5 c 128,-1,22
 490 109 490 109 490 174 c 0,23,24
 490 238 490 238 474 263 c 128,-1,25
 458 288 458 288 436 288 c 0,26,27
 415 288 415 288 399.5 263.5 c 128,-1,28
 384 239 384 239 384 174 c 256,29,30
 384 109 384 109 399.5 83.5 c 128,-1,31
 415 58 415 58 436 58 c 0,20,21
155 364 m 0,32,33
 119 364 119 364 88 384 c 128,-1,34
 57 404 57 404 37.5 445 c 128,-1,35
 18 486 18 486 18 548 c 256,36,37
 18 610 18 610 37.5 650 c 128,-1,38
 57 690 57 690 88 710 c 128,-1,39
 119 730 119 730 155 730 c 256,40,41
 191 730 191 730 222.5 710 c 128,-1,42
 254 690 254 690 273 650 c 128,-1,43
 292 610 292 610 292 548 c 256,44,45
 292 486 292 486 272.5 445 c 128,-1,46
 253 404 253 404 221.5 384 c 128,-1,47
 190 364 190 364 155 364 c 0,32,33
154 432 m 256,48,49
 175 432 175 432 191.5 458 c 128,-1,50
 208 484 208 484 208 549 c 0,51,52
 208 612 208 612 192 637 c 128,-1,53
 176 662 176 662 155 662 c 256,54,55
 134 662 134 662 118 637.5 c 128,-1,56
 102 613 102 613 102 548 c 0,57,58
 102 484 102 484 117.5 458 c 128,-1,59
 133 432 133 432 154 432 c 256,48,49
EndSplineSet
Validated: 1
Substitution2: "'pnum' Proportional Numbers in Latin lookup 18 subtable" percent
Substitution2: "'aalt' Access All Alternates in Latin lookup 0 subtable" percent
EndChar

StartChar: perthousand.tf
Encoding: 65686 -1 455
Width: 592
Flags: W
LayerCount: 2
Fore
SplineSet
57 279 m 1,0,-1
 36 345 l 1,1,-1
 523 496 l 1,2,-1
 544 429 l 1,3,-1
 57 279 l 1,0,-1
257 -10 m 0,4,5
 207 -10 207 -10 173 32 c 128,-1,6
 139 74 139 74 139 145 c 256,7,8
 139 216 139 216 172.5 258 c 128,-1,9
 206 300 206 300 257 300 c 0,10,11
 309 300 309 300 342.5 258.5 c 128,-1,12
 376 217 376 217 376 145 c 0,13,14
 376 74 376 74 342 32 c 128,-1,15
 308 -10 308 -10 257 -10 c 0,4,5
257 51 m 0,16,17
 278 51 278 51 291.5 76.5 c 128,-1,18
 305 102 305 102 305 146 c 0,19,20
 305 189 305 189 292 213.5 c 128,-1,21
 279 238 279 238 257 238 c 256,22,23
 235 238 235 238 223 213.5 c 128,-1,24
 211 189 211 189 211 146 c 0,25,26
 211 102 211 102 223 76.5 c 128,-1,27
 235 51 235 51 257 51 c 0,16,17
441 -10 m 0,28,29
 391 -10 391 -10 357.5 32 c 128,-1,30
 324 74 324 74 324 145 c 256,31,32
 324 216 324 216 357 258 c 128,-1,33
 390 300 390 300 441 300 c 0,34,35
 493 300 493 300 526.5 258.5 c 128,-1,36
 560 217 560 217 560 145 c 256,37,38
 560 73 560 73 526 31.5 c 128,-1,39
 492 -10 492 -10 441 -10 c 0,28,29
441 51 m 0,40,41
 462 51 462 51 475.5 76.5 c 128,-1,42
 489 102 489 102 489 146 c 0,43,44
 489 189 489 189 476 213.5 c 128,-1,45
 463 238 463 238 441 238 c 256,46,47
 419 238 419 238 407 213.5 c 128,-1,48
 395 189 395 189 395 146 c 0,49,50
 395 102 395 102 407 76.5 c 128,-1,51
 419 51 419 51 441 51 c 0,40,41
150 420 m 0,52,53
 99 420 99 420 65.5 462 c 128,-1,54
 32 504 32 504 32 576 c 0,55,56
 32 647 32 647 65.5 688.5 c 128,-1,57
 99 730 99 730 150 730 c 0,58,59
 202 730 202 730 235.5 689 c 128,-1,60
 269 648 269 648 269 576 c 256,61,62
 269 504 269 504 234.5 462 c 128,-1,63
 200 420 200 420 150 420 c 0,52,53
150 481 m 0,64,65
 171 481 171 481 184 506.5 c 128,-1,66
 197 532 197 532 197 577 c 0,67,68
 197 620 197 620 184.5 644.5 c 128,-1,69
 172 669 172 669 150 669 c 256,70,71
 128 669 128 669 115.5 644.5 c 128,-1,72
 103 620 103 620 103 577 c 0,73,74
 103 532 103 532 115.5 506.5 c 128,-1,75
 128 481 128 481 150 481 c 0,64,65
EndSplineSet
Validated: 5
Substitution2: "'pnum' Proportional Numbers in Latin lookup 18 subtable" perthousand
Substitution2: "'aalt' Access All Alternates in Latin lookup 0 subtable" perthousand
EndChar

StartChar: arrowup
Encoding: 8593 8593 456
Width: 804
Flags: W
LayerCount: 2
Fore
SplineSet
344 5 m 1,0,-1
 344 641 l 1,1,-1
 394 571 l 1,2,-1
 60 237 l 1,3,-1
 60 395 l 1,4,-1
 402 736 l 1,5,-1
 744 395 l 1,6,-1
 744 236 l 1,7,-1
 410 571 l 1,8,-1
 460 641 l 1,9,-1
 460 5 l 1,10,-1
 344 5 l 1,0,-1
EndSplineSet
Validated: 5
EndChar

StartChar: uni2197
Encoding: 8599 8599 457
Width: 718
Flags: W
LayerCount: 2
Fore
SplineSet
99 180 m 1,0,-1
 549 629 l 1,1,-1
 535 544 l 1,2,-1
 62 544 l 1,3,-1
 174 657 l 1,4,-1
 657 655 l 1,5,-1
 658 172 l 1,6,-1
 546 60 l 1,7,-1
 546 533 l 1,8,-1
 631 547 l 1,9,-1
 181 98 l 1,10,-1
 99 180 l 1,0,-1
EndSplineSet
Validated: 5
EndChar

StartChar: arrowright
Encoding: 8594 8594 458
Width: 850
Flags: W
LayerCount: 2
Fore
SplineSet
60 418 m 1,0,-1
 695 418 l 1,1,-1
 625 368 l 1,2,-1
 291 702 l 1,3,-1
 450 702 l 1,4,-1
 790 360 l 1,5,-1
 450 18 l 1,6,-1
 291 18 l 1,7,-1
 625 352 l 1,8,-1
 695 302 l 1,9,-1
 60 302 l 1,10,-1
 60 418 l 1,0,-1
EndSplineSet
Validated: 5
EndChar

StartChar: uni2198
Encoding: 8600 8600 459
Width: 718
Flags: W
LayerCount: 2
Fore
SplineSet
182 620 m 1,0,-1
 631 170 l 1,1,-1
 546 185 l 1,2,-1
 546 657 l 1,3,-1
 658 545 l 1,4,-1
 657 62 l 1,5,-1
 174 61 l 1,6,-1
 62 173 l 1,7,-1
 534 173 l 1,8,-1
 549 88 l 1,9,-1
 100 538 l 1,10,-1
 182 620 l 1,0,-1
EndSplineSet
Validated: 5
EndChar

StartChar: arrowdown
Encoding: 8595 8595 460
Width: 804
Flags: W
LayerCount: 2
Fore
SplineSet
344 715 m 1,0,-1
 460 715 l 1,1,-1
 460 79 l 1,2,-1
 410 149 l 1,3,-1
 744 484 l 1,4,-1
 744 325 l 1,5,-1
 402 -16 l 1,6,-1
 60 325 l 1,7,-1
 60 483 l 1,8,-1
 394 149 l 1,9,-1
 344 79 l 1,10,-1
 344 715 l 1,0,-1
EndSplineSet
Validated: 5
EndChar

StartChar: uni2199
Encoding: 8601 8601 461
Width: 718
Flags: W
LayerCount: 2
Fore
SplineSet
619 537 m 1,0,-1
 169 89 l 1,1,-1
 183 173 l 1,2,-1
 656 173 l 1,3,-1
 544 61 l 1,4,-1
 61 63 l 1,5,-1
 60 545 l 1,6,-1
 172 658 l 1,7,-1
 172 185 l 1,8,-1
 87 171 l 1,9,-1
 537 619 l 1,10,-1
 619 537 l 1,0,-1
EndSplineSet
Validated: 5
EndChar

StartChar: arrowleft
Encoding: 8592 8592 462
Width: 850
Flags: W
LayerCount: 2
Fore
SplineSet
790 302 m 1,0,-1
 155 302 l 1,1,-1
 225 352 l 1,2,-1
 559 18 l 1,3,-1
 401 18 l 1,4,-1
 60 360 l 1,5,-1
 401 702 l 1,6,-1
 560 702 l 1,7,-1
 225 368 l 1,8,-1
 155 418 l 1,9,-1
 790 418 l 1,10,-1
 790 302 l 1,0,-1
EndSplineSet
Validated: 5
EndChar

StartChar: uni2196
Encoding: 8598 8598 463
Width: 718
Flags: W
LayerCount: 2
Fore
SplineSet
536 100 m 1,0,-1
 88 550 l 1,1,-1
 172 535 l 1,2,-1
 172 63 l 1,3,-1
 60 175 l 1,4,-1
 62 658 l 1,5,-1
 544 659 l 1,6,-1
 657 547 l 1,7,-1
 184 547 l 1,8,-1
 170 632 l 1,9,-1
 618 182 l 1,10,-1
 536 100 l 1,0,-1
EndSplineSet
Validated: 5
EndChar

StartChar: arrowboth
Encoding: 8596 8596 464
Width: 1147
Flags: W
LayerCount: 2
Fore
SplineSet
401 18 m 1,0,-1
 60 360 l 1,1,-1
 401 702 l 1,2,-1
 559 702 l 1,3,-1
 275 418 l 1,4,-1
 872 418 l 1,5,-1
 588 702 l 1,6,-1
 747 702 l 1,7,-1
 1087 360 l 1,8,-1
 747 18 l 1,9,-1
 588 18 l 1,10,-1
 872 302 l 1,11,-1
 275 302 l 1,12,-1
 560 18 l 1,13,-1
 401 18 l 1,0,-1
EndSplineSet
Validated: 1
EndChar

StartChar: arrowupdn
Encoding: 8597 8597 465
Width: 804
Flags: W
LayerCount: 2
Fore
SplineSet
402 -154 m 1,0,-1
 60 187 l 1,1,-1
 60 346 l 1,2,-1
 344 61 l 1,3,-1
 344 659 l 1,4,-1
 60 374 l 1,5,-1
 60 533 l 1,6,-1
 402 874 l 1,7,-1
 744 533 l 1,8,-1
 744 374 l 1,9,-1
 460 659 l 1,10,-1
 460 61 l 1,11,-1
 744 346 l 1,12,-1
 744 187 l 1,13,-1
 402 -154 l 1,0,-1
EndSplineSet
Validated: 1
EndChar

StartChar: uni0308
Encoding: 776 776 466
Width: 0
GlyphClass: 4
Flags: W
AnchorPoint: "Anchor-7" 242 732 basemark 0
AnchorPoint: "Anchor-7" 242 510 mark 0
AnchorPoint: "Anchor-4" 242 510 mark 0
AnchorPoint: "Anchor-0" 242 510 mark 0
LayerCount: 2
Fore
SplineSet
287 593 m 1,0,-1
 287 732 l 1,1,-1
 423 732 l 1,2,-1
 423 593 l 1,3,-1
 287 593 l 1,0,-1
60 593 m 1,4,-1
 60 732 l 1,5,-1
 196 732 l 1,6,-1
 196 593 l 1,7,-1
 60 593 l 1,4,-1
EndSplineSet
Validated: 1
Substitution2: "'ss01' Style Set 1 in Latin lookup 22 subtable" uni0308.ss01
Substitution2: "'aalt' Access All Alternates in Latin lookup 0 subtable" uni0308.ss01
EndChar

StartChar: uni0307
Encoding: 775 775 467
Width: 0
GlyphClass: 4
Flags: W
AnchorPoint: "Anchor-7" 128 732 basemark 0
AnchorPoint: "Anchor-7" 128 510 mark 0
AnchorPoint: "Anchor-4" 128 510 mark 0
AnchorPoint: "Anchor-0" 128 510 mark 0
LayerCount: 2
Fore
SplineSet
60 594 m 1,0,-1
 60 732 l 1,1,-1
 196 732 l 1,2,-1
 196 594 l 1,3,-1
 60 594 l 1,0,-1
EndSplineSet
Validated: 1
Substitution2: "'ss01' Style Set 1 in Latin lookup 22 subtable" uni0307.ss01
Substitution2: "'aalt' Access All Alternates in Latin lookup 0 subtable" uni0307.ss01
EndChar

StartChar: gravecomb
Encoding: 768 768 468
Width: 0
GlyphClass: 4
Flags: W
AnchorPoint: "Anchor-7" 242 740 basemark 0
AnchorPoint: "Anchor-7" 242 510 mark 0
AnchorPoint: "Anchor-4" 242 510 mark 0
AnchorPoint: "Anchor-0" 242 510 mark 0
LayerCount: 2
Fore
SplineSet
220 583 m 1,0,-1
 60 740 l 1,1,-1
 230 740 l 1,2,-1
 331 583 l 1,3,-1
 220 583 l 1,0,-1
EndSplineSet
Validated: 1
EndChar

StartChar: acutecomb
Encoding: 769 769 469
Width: 0
GlyphClass: 4
Flags: W
AnchorPoint: "Anchor-7" 149 740 basemark 0
AnchorPoint: "Anchor-7" 149 510 mark 0
AnchorPoint: "Anchor-4" 149 510 mark 0
AnchorPoint: "Anchor-0" 149 510 mark 0
LayerCount: 2
Fore
SplineSet
171 583 m 1,0,-1
 60 583 l 1,1,-1
 161 740 l 1,2,-1
 331 740 l 1,3,-1
 171 583 l 1,0,-1
EndSplineSet
Validated: 1
EndChar

StartChar: uni030B
Encoding: 779 779 470
Width: 0
GlyphClass: 4
Flags: W
AnchorPoint: "Anchor-7" 229 740 basemark 0
AnchorPoint: "Anchor-7" 229 510 mark 0
AnchorPoint: "Anchor-4" 229 510 mark 0
AnchorPoint: "Anchor-0" 229 510 mark 0
LayerCount: 2
Fore
SplineSet
155 583 m 1,0,-1
 60 583 l 1,1,-1
 116 740 l 1,2,-1
 258 740 l 1,3,-1
 155 583 l 1,0,-1
365 583 m 1,4,-1
 270 583 l 1,5,-1
 326 740 l 1,6,-1
 468 740 l 1,7,-1
 365 583 l 1,4,-1
EndSplineSet
Validated: 1
EndChar

StartChar: uni030C.alt
Encoding: 65687 -1 471
Width: 0
GlyphClass: 4
Flags: W
AnchorPoint: "Anchor-1" 60 720 mark 0
LayerCount: 2
Fore
SplineSet
143 490 m 1,0,-1
 60 490 l 1,1,-1
 60 720 l 1,2,-1
 169 720 l 1,3,-1
 143 490 l 1,0,-1
EndSplineSet
Validated: 1
EndChar

StartChar: uni0302
Encoding: 770 770 472
Width: 0
GlyphClass: 4
Flags: W
AnchorPoint: "Anchor-7" 254 740 basemark 0
AnchorPoint: "Anchor-7" 254 510 mark 0
AnchorPoint: "Anchor-4" 254 510 mark 0
AnchorPoint: "Anchor-0" 254 510 mark 0
LayerCount: 2
Fore
SplineSet
60 583 m 1,0,-1
 189 740 l 1,1,-1
 320 740 l 1,2,-1
 449 583 l 1,3,-1
 343 583 l 1,4,-1
 201 713 l 1,5,-1
 308 713 l 1,6,-1
 166 583 l 1,7,-1
 60 583 l 1,0,-1
EndSplineSet
Validated: 5
EndChar

StartChar: uni030C
Encoding: 780 780 473
Width: 0
GlyphClass: 4
Flags: W
AnchorPoint: "Anchor-7" 254 740 basemark 0
AnchorPoint: "Anchor-7" 254 510 mark 0
AnchorPoint: "Anchor-4" 254 510 mark 0
AnchorPoint: "Anchor-0" 254 510 mark 0
LayerCount: 2
Fore
SplineSet
189 583 m 1,0,-1
 60 740 l 1,1,-1
 166 740 l 1,2,-1
 308 610 l 1,3,-1
 201 610 l 1,4,-1
 343 740 l 1,5,-1
 449 740 l 1,6,-1
 320 583 l 1,7,-1
 189 583 l 1,0,-1
EndSplineSet
Validated: 5
EndChar

StartChar: uni0306
Encoding: 774 774 474
Width: 0
GlyphClass: 4
Flags: W
AnchorPoint: "Anchor-7" 229 740 basemark 0
AnchorPoint: "Anchor-7" 229 510 mark 0
AnchorPoint: "Anchor-4" 229 510 mark 0
AnchorPoint: "Anchor-0" 229 510 mark 0
LayerCount: 2
Fore
SplineSet
229 576 m 256,0,1
 180 576 180 576 142 596.5 c 128,-1,2
 104 617 104 617 82 654.5 c 128,-1,3
 60 692 60 692 60 740 c 1,4,-1
 147 740 l 1,5,6
 147 706 147 706 169 686.5 c 128,-1,7
 191 667 191 667 229 667 c 0,8,9
 268 667 268 667 289.5 686.5 c 128,-1,10
 311 706 311 706 311 740 c 1,11,-1
 398 740 l 1,12,13
 398 692 398 692 376 655 c 128,-1,14
 354 618 354 618 316 597 c 128,-1,15
 278 576 278 576 229 576 c 256,0,1
EndSplineSet
Validated: 1
EndChar

StartChar: uni030A
Encoding: 778 778 475
Width: 0
GlyphClass: 4
Flags: W
AnchorPoint: "Anchor-7" 168 776 basemark 0
AnchorPoint: "Anchor-7" 168 510 mark 0
AnchorPoint: "Anchor-4" 168 510 mark 0
AnchorPoint: "Anchor-0" 168 510 mark 0
LayerCount: 2
Fore
SplineSet
168 561 m 256,0,1
 122 561 122 561 91 592.5 c 128,-1,2
 60 624 60 624 60 669 c 0,3,4
 60 713 60 713 91 744.5 c 128,-1,5
 122 776 122 776 168 776 c 256,6,7
 214 776 214 776 244.5 744.5 c 128,-1,8
 275 713 275 713 275 669 c 0,9,10
 275 624 275 624 244.5 592.5 c 128,-1,11
 214 561 214 561 168 561 c 256,0,1
168 626 m 256,12,13
 186 626 186 626 197 639 c 128,-1,14
 208 652 208 652 208 669 c 256,15,16
 208 686 208 686 196.5 698.5 c 128,-1,17
 185 711 185 711 168 711 c 0,18,19
 149 711 149 711 138 698.5 c 128,-1,20
 127 686 127 686 127 669 c 256,21,22
 127 652 127 652 138.5 639 c 128,-1,23
 150 626 150 626 168 626 c 256,12,13
EndSplineSet
Validated: 1
EndChar

StartChar: tildecomb
Encoding: 771 771 476
Width: 0
GlyphClass: 4
Flags: W
AnchorPoint: "Anchor-7" 261 735 basemark 0
AnchorPoint: "Anchor-7" 261 510 mark 0
AnchorPoint: "Anchor-4" 261 510 mark 0
AnchorPoint: "Anchor-0" 261 510 mark 0
LayerCount: 2
Fore
SplineSet
336 592 m 0,0,1
 308 592 308 592 287.5 600.5 c 128,-1,2
 267 609 267 609 250 620.5 c 128,-1,3
 233 632 233 632 217 640.5 c 128,-1,4
 201 649 201 649 184 649 c 0,5,6
 163 649 163 649 150.5 635.5 c 128,-1,7
 138 622 138 622 138 599 c 1,8,-1
 60 599 l 1,9,10
 60 637 60 637 75 667.5 c 128,-1,11
 90 698 90 698 119.5 716.5 c 128,-1,12
 149 735 149 735 189 735 c 0,13,14
 218 735 218 735 238 727 c 128,-1,15
 258 719 258 719 274 707.5 c 128,-1,16
 290 696 290 696 305 687.5 c 128,-1,17
 320 679 320 679 338 679 c 0,18,19
 360 679 360 679 372 692.5 c 128,-1,20
 384 706 384 706 384 729 c 1,21,-1
 463 729 l 1,22,23
 463 691 463 691 447.5 660 c 128,-1,24
 432 629 432 629 403.5 610.5 c 128,-1,25
 375 592 375 592 336 592 c 0,0,1
EndSplineSet
Validated: 1
EndChar

StartChar: uni0304
Encoding: 772 772 477
Width: 0
GlyphClass: 4
Flags: W
AnchorPoint: "Anchor-7" 237 716 basemark 0
AnchorPoint: "Anchor-7" 237 510 mark 0
AnchorPoint: "Anchor-4" 237 510 mark 0
AnchorPoint: "Anchor-0" 237 510 mark 0
LayerCount: 2
Fore
SplineSet
60 626 m 1,0,-1
 60 716 l 1,1,-1
 413 716 l 1,2,-1
 413 626 l 1,3,-1
 60 626 l 1,0,-1
EndSplineSet
Validated: 1
EndChar

StartChar: uni0312
Encoding: 786 786 478
Width: 0
GlyphClass: 4
Flags: W
AnchorPoint: "Anchor-7" 135 840 basemark 0
AnchorPoint: "Anchor-7" 135 510 mark 0
AnchorPoint: "Anchor-4" 135 510 mark 0
AnchorPoint: "Anchor-0" 135 510 mark 0
LayerCount: 2
Fore
SplineSet
67 583 m 1,0,-1
 67 686 l 2,1,2
 67 750 67 750 103 792 c 128,-1,3
 139 834 139 834 203 840 c 1,4,-1
 203 782 l 1,5,6
 169 778 169 778 152 757.5 c 128,-1,7
 135 737 135 737 135 700 c 1,8,-1
 90 709 l 1,9,-1
 203 709 l 1,10,-1
 203 583 l 1,11,-1
 67 583 l 1,0,-1
EndSplineSet
Validated: 5
Substitution2: "'ss01' Style Set 1 in Latin lookup 22 subtable" uni0312.ss01
Substitution2: "'aalt' Access All Alternates in Latin lookup 0 subtable" uni0312.ss01
EndChar

StartChar: uni0326
Encoding: 806 806 479
Width: 0
GlyphClass: 4
Flags: W
AnchorPoint: "Anchor-6" 135 -331 basemark 0
AnchorPoint: "Anchor-6" 135 0 mark 0
AnchorPoint: "Anchor-5" 135 0 mark 0
AnchorPoint: "Anchor-2" 135 0 mark 0
LayerCount: 2
Fore
SplineSet
67 -331 m 1,0,-1
 67 -273 l 1,1,2
 101 -269 101 -269 118.5 -248 c 128,-1,3
 136 -227 136 -227 136 -191 c 1,4,-1
 180 -200 l 1,5,-1
 67 -200 l 1,6,-1
 67 -74 l 1,7,-1
 203 -74 l 1,8,-1
 203 -176 l 2,9,10
 203 -241 203 -241 167 -283 c 128,-1,11
 131 -325 131 -325 67 -331 c 1,0,-1
EndSplineSet
Validated: 5
Substitution2: "'ss01' Style Set 1 in Latin lookup 22 subtable" uni0326.ss01
Substitution2: "'aalt' Access All Alternates in Latin lookup 0 subtable" uni0326.ss01
EndChar

StartChar: uni0327
Encoding: 807 807 480
Width: 0
GlyphClass: 4
Flags: W
AnchorPoint: "Anchor-6" 186 -215 basemark 0
AnchorPoint: "Anchor-6" 196 0 mark 0
AnchorPoint: "Anchor-5" 196 0 mark 0
AnchorPoint: "Anchor-2" 196 0 mark 0
LayerCount: 2
Fore
SplineSet
188 -215 m 0,0,1
 131 -215 131 -215 96.5 -190 c 128,-1,2
 62 -165 62 -165 60 -122 c 1,3,-1
 142 -122 l 1,4,5
 144 -137 144 -137 156.5 -144.5 c 128,-1,6
 169 -152 169 -152 188 -152 c 0,7,8
 203 -152 203 -152 214 -145.5 c 128,-1,9
 225 -139 225 -139 225 -127 c 0,10,11
 225 -111 225 -111 207 -102 c 128,-1,12
 189 -93 189 -93 138 -90 c 1,13,-1
 163 12 l 1,14,-1
 237 12 l 1,15,-1
 224 -36 l 1,16,17
 268 -46 268 -46 289.5 -69.5 c 128,-1,18
 311 -93 311 -93 311 -126 c 0,19,20
 311 -165 311 -165 278.5 -190 c 128,-1,21
 246 -215 246 -215 188 -215 c 0,0,1
EndSplineSet
Validated: 1
EndChar

StartChar: uni0328
Encoding: 808 808 481
Width: 0
GlyphClass: 4
Flags: W
AnchorPoint: "Anchor-3" 234 0 mark 0
LayerCount: 2
Fore
SplineSet
164 -216 m 0,0,1
 114 -216 114 -216 87 -192 c 128,-1,2
 60 -168 60 -168 60 -130 c 0,3,4
 60 -86 60 -86 95 -49.5 c 128,-1,5
 130 -13 130 -13 186 17 c 1,6,-1
 234 0 l 1,7,8
 187 -36 187 -36 166.5 -63 c 128,-1,9
 146 -90 146 -90 146 -115 c 0,10,11
 146 -131 146 -131 154.5 -140 c 128,-1,12
 163 -149 163 -149 177 -149 c 0,13,14
 198 -149 198 -149 214 -134 c 1,15,-1
 243 -194 l 1,16,17
 229 -205 229 -205 210 -210.5 c 128,-1,18
 191 -216 191 -216 164 -216 c 0,0,1
EndSplineSet
Validated: 1
EndChar

StartChar: uni0308.ss01
Encoding: 65688 -1 482
Width: 0
GlyphClass: 4
Flags: W
AnchorPoint: "Anchor-7" 249 742 basemark 0
AnchorPoint: "Anchor-7" 249 510 mark 0
AnchorPoint: "Anchor-4" 249 510 mark 0
AnchorPoint: "Anchor-0" 249 510 mark 0
LayerCount: 2
Fore
SplineSet
135 590 m 0,0,1
 103 590 103 590 81.5 612.5 c 128,-1,2
 60 635 60 635 60 667 c 0,3,4
 60 700 60 700 81.5 721 c 128,-1,5
 103 742 103 742 135 742 c 0,6,7
 166 742 166 742 187.5 721 c 128,-1,8
 209 700 209 700 209 667 c 0,9,10
 209 635 209 635 187.5 612.5 c 128,-1,11
 166 590 166 590 135 590 c 0,0,1
362 590 m 0,12,13
 331 590 331 590 309.5 612.5 c 128,-1,14
 288 635 288 635 288 667 c 0,15,16
 288 700 288 700 309.5 721 c 128,-1,17
 331 742 331 742 362 742 c 0,18,19
 394 742 394 742 415.5 721 c 128,-1,20
 437 700 437 700 437 667 c 0,21,22
 437 635 437 635 415.5 612.5 c 128,-1,23
 394 590 394 590 362 590 c 0,12,13
EndSplineSet
Validated: 1
EndChar

StartChar: uni0307.ss01
Encoding: 65689 -1 483
Width: 0
GlyphClass: 4
Flags: W
AnchorPoint: "Anchor-7" 141 743 basemark 0
AnchorPoint: "Anchor-7" 141 510 mark 0
AnchorPoint: "Anchor-4" 141 510 mark 0
AnchorPoint: "Anchor-0" 141 510 mark 0
LayerCount: 2
Fore
SplineSet
143 578 m 0,0,1
 109 578 109 578 84.5 602 c 128,-1,2
 60 626 60 626 60 660 c 0,3,4
 60 698 60 698 84.5 720.5 c 128,-1,5
 109 743 109 743 143 743 c 0,6,7
 175 743 175 743 198.5 720.5 c 128,-1,8
 222 698 222 698 222 660 c 0,9,10
 222 626 222 626 198.5 602 c 128,-1,11
 175 578 175 578 143 578 c 0,0,1
EndSplineSet
Validated: 1
EndChar

StartChar: uni0312.ss01
Encoding: 65690 -1 484
Width: 0
GlyphClass: 4
Flags: W
AnchorPoint: "Anchor-7" 135 840 basemark 0
AnchorPoint: "Anchor-7" 135 510 mark 0
AnchorPoint: "Anchor-4" 135 510 mark 0
AnchorPoint: "Anchor-0" 135 510 mark 0
LayerCount: 2
Fore
SplineSet
138 576 m 0,0,1
 105 576 105 576 82.5 600 c 128,-1,2
 60 624 60 624 60 675 c 0,3,4
 60 717 60 717 76.5 753 c 128,-1,5
 93 789 93 789 123 812.5 c 128,-1,6
 153 836 153 836 195 840 c 1,7,-1
 195 782 l 1,8,9
 161 778 161 778 144 757.5 c 128,-1,10
 127 737 127 737 127 700 c 1,11,-1
 90 699 l 1,12,13
 99 706 99 706 111.5 711 c 128,-1,14
 124 716 124 716 135 716 c 0,15,16
 167 716 167 716 188.5 696 c 128,-1,17
 210 676 210 676 210 646 c 256,18,19
 210 616 210 616 189 596 c 128,-1,20
 168 576 168 576 138 576 c 0,0,1
EndSplineSet
Validated: 5
EndChar

StartChar: uni0326.ss01
Encoding: 65691 -1 485
Width: 0
GlyphClass: 4
Flags: W
AnchorPoint: "Anchor-6" 135 -331 basemark 0
AnchorPoint: "Anchor-6" 135 0 mark 0
AnchorPoint: "Anchor-5" 135 0 mark 0
AnchorPoint: "Anchor-2" 135 0 mark 0
LayerCount: 2
Fore
SplineSet
75 -331 m 1,0,-1
 75 -273 l 1,1,2
 109 -269 109 -269 126 -248 c 128,-1,3
 143 -227 143 -227 143 -191 c 1,4,-1
 180 -190 l 1,5,6
 171 -197 171 -197 158.5 -202 c 128,-1,7
 146 -207 146 -207 135 -207 c 0,8,9
 103 -207 103 -207 81.5 -187 c 128,-1,10
 60 -167 60 -167 60 -137 c 0,11,12
 60 -106 60 -106 81 -86.5 c 128,-1,13
 102 -67 102 -67 132 -67 c 0,14,15
 165 -67 165 -67 187.5 -91 c 128,-1,16
 210 -115 210 -115 210 -165 c 0,17,18
 210 -208 210 -208 194 -244 c 128,-1,19
 178 -280 178 -280 147.5 -303.5 c 128,-1,20
 117 -327 117 -327 75 -331 c 1,0,-1
EndSplineSet
Validated: 5
EndChar

